G04 #@! TF.GenerationSoftware,KiCad,Pcbnew,(5.1.4)-1*
G04 #@! TF.CreationDate,2019-09-20T01:57:43+03:00*
G04 #@! TF.ProjectId,Simple_BMS,53696d70-6c65-45f4-924d-532e6b696361,rev?*
G04 #@! TF.SameCoordinates,Original*
G04 #@! TF.FileFunction,Copper,L1,Top*
G04 #@! TF.FilePolarity,Positive*
%FSLAX46Y46*%
G04 Gerber Fmt 4.6, Leading zero omitted, Abs format (unit mm)*
G04 Created by KiCad (PCBNEW (5.1.4)-1) date 2019-09-20 01:57:43*
%MOMM*%
%LPD*%
G04 APERTURE LIST*
%ADD10C,2.700000*%
%ADD11C,0.100000*%
%ADD12R,1.900000X1.200000*%
%ADD13O,1.900000X1.200000*%
%ADD14R,1.900000X1.500000*%
%ADD15C,1.450000*%
%ADD16R,1.350000X0.400000*%
%ADD17R,1.060000X0.650000*%
%ADD18C,1.150000*%
%ADD19C,1.300000*%
%ADD20R,1.700000X1.700000*%
%ADD21O,1.700000X1.700000*%
%ADD22C,0.800000*%
%ADD23C,0.500000*%
%ADD24C,0.700000*%
%ADD25C,0.250000*%
%ADD26C,1.000000*%
%ADD27C,0.300000*%
%ADD28C,0.254000*%
G04 APERTURE END LIST*
D10*
X119660000Y-81860000D03*
D11*
G36*
X120784503Y-84471204D02*
G01*
X120808772Y-84474804D01*
X120832570Y-84480765D01*
X120855670Y-84489030D01*
X120877849Y-84499520D01*
X120898892Y-84512133D01*
X120918598Y-84526748D01*
X120936776Y-84543224D01*
X120953252Y-84561402D01*
X120967867Y-84581108D01*
X120980480Y-84602151D01*
X120990970Y-84624330D01*
X120999235Y-84647430D01*
X121005196Y-84671228D01*
X121008796Y-84695497D01*
X121010000Y-84720001D01*
X121010000Y-86919999D01*
X121008796Y-86944503D01*
X121005196Y-86968772D01*
X120999235Y-86992570D01*
X120990970Y-87015670D01*
X120980480Y-87037849D01*
X120967867Y-87058892D01*
X120953252Y-87078598D01*
X120936776Y-87096776D01*
X120918598Y-87113252D01*
X120898892Y-87127867D01*
X120877849Y-87140480D01*
X120855670Y-87150970D01*
X120832570Y-87159235D01*
X120808772Y-87165196D01*
X120784503Y-87168796D01*
X120759999Y-87170000D01*
X118560001Y-87170000D01*
X118535497Y-87168796D01*
X118511228Y-87165196D01*
X118487430Y-87159235D01*
X118464330Y-87150970D01*
X118442151Y-87140480D01*
X118421108Y-87127867D01*
X118401402Y-87113252D01*
X118383224Y-87096776D01*
X118366748Y-87078598D01*
X118352133Y-87058892D01*
X118339520Y-87037849D01*
X118329030Y-87015670D01*
X118320765Y-86992570D01*
X118314804Y-86968772D01*
X118311204Y-86944503D01*
X118310000Y-86919999D01*
X118310000Y-84720001D01*
X118311204Y-84695497D01*
X118314804Y-84671228D01*
X118320765Y-84647430D01*
X118329030Y-84624330D01*
X118339520Y-84602151D01*
X118352133Y-84581108D01*
X118366748Y-84561402D01*
X118383224Y-84543224D01*
X118401402Y-84526748D01*
X118421108Y-84512133D01*
X118442151Y-84499520D01*
X118464330Y-84489030D01*
X118487430Y-84480765D01*
X118511228Y-84474804D01*
X118535497Y-84471204D01*
X118560001Y-84470000D01*
X120759999Y-84470000D01*
X120784503Y-84471204D01*
X120784503Y-84471204D01*
G37*
D10*
X119660000Y-85820000D03*
D12*
X98142500Y-83280000D03*
X98142500Y-89080000D03*
D13*
X98142500Y-89680000D03*
X98142500Y-82680000D03*
D14*
X98142500Y-85180000D03*
D15*
X100842500Y-88680000D03*
D16*
X100842500Y-86180000D03*
X100842500Y-86830000D03*
X100842500Y-87480000D03*
X100842500Y-84880000D03*
X100842500Y-85530000D03*
D15*
X100842500Y-83680000D03*
D14*
X98142500Y-87180000D03*
D17*
X111820000Y-86330000D03*
X111820000Y-85380000D03*
X111820000Y-84430000D03*
X109620000Y-84430000D03*
X109620000Y-86330000D03*
D11*
G36*
X106414505Y-83851204D02*
G01*
X106438773Y-83854804D01*
X106462572Y-83860765D01*
X106485671Y-83869030D01*
X106507850Y-83879520D01*
X106528893Y-83892132D01*
X106548599Y-83906747D01*
X106566777Y-83923223D01*
X106583253Y-83941401D01*
X106597868Y-83961107D01*
X106610480Y-83982150D01*
X106620970Y-84004329D01*
X106629235Y-84027428D01*
X106635196Y-84051227D01*
X106638796Y-84075495D01*
X106640000Y-84099999D01*
X106640000Y-84750001D01*
X106638796Y-84774505D01*
X106635196Y-84798773D01*
X106629235Y-84822572D01*
X106620970Y-84845671D01*
X106610480Y-84867850D01*
X106597868Y-84888893D01*
X106583253Y-84908599D01*
X106566777Y-84926777D01*
X106548599Y-84943253D01*
X106528893Y-84957868D01*
X106507850Y-84970480D01*
X106485671Y-84980970D01*
X106462572Y-84989235D01*
X106438773Y-84995196D01*
X106414505Y-84998796D01*
X106390001Y-85000000D01*
X105489999Y-85000000D01*
X105465495Y-84998796D01*
X105441227Y-84995196D01*
X105417428Y-84989235D01*
X105394329Y-84980970D01*
X105372150Y-84970480D01*
X105351107Y-84957868D01*
X105331401Y-84943253D01*
X105313223Y-84926777D01*
X105296747Y-84908599D01*
X105282132Y-84888893D01*
X105269520Y-84867850D01*
X105259030Y-84845671D01*
X105250765Y-84822572D01*
X105244804Y-84798773D01*
X105241204Y-84774505D01*
X105240000Y-84750001D01*
X105240000Y-84099999D01*
X105241204Y-84075495D01*
X105244804Y-84051227D01*
X105250765Y-84027428D01*
X105259030Y-84004329D01*
X105269520Y-83982150D01*
X105282132Y-83961107D01*
X105296747Y-83941401D01*
X105313223Y-83923223D01*
X105331401Y-83906747D01*
X105351107Y-83892132D01*
X105372150Y-83879520D01*
X105394329Y-83869030D01*
X105417428Y-83860765D01*
X105441227Y-83854804D01*
X105465495Y-83851204D01*
X105489999Y-83850000D01*
X106390001Y-83850000D01*
X106414505Y-83851204D01*
X106414505Y-83851204D01*
G37*
D18*
X105940000Y-84425000D03*
D11*
G36*
X106414505Y-85901204D02*
G01*
X106438773Y-85904804D01*
X106462572Y-85910765D01*
X106485671Y-85919030D01*
X106507850Y-85929520D01*
X106528893Y-85942132D01*
X106548599Y-85956747D01*
X106566777Y-85973223D01*
X106583253Y-85991401D01*
X106597868Y-86011107D01*
X106610480Y-86032150D01*
X106620970Y-86054329D01*
X106629235Y-86077428D01*
X106635196Y-86101227D01*
X106638796Y-86125495D01*
X106640000Y-86149999D01*
X106640000Y-86800001D01*
X106638796Y-86824505D01*
X106635196Y-86848773D01*
X106629235Y-86872572D01*
X106620970Y-86895671D01*
X106610480Y-86917850D01*
X106597868Y-86938893D01*
X106583253Y-86958599D01*
X106566777Y-86976777D01*
X106548599Y-86993253D01*
X106528893Y-87007868D01*
X106507850Y-87020480D01*
X106485671Y-87030970D01*
X106462572Y-87039235D01*
X106438773Y-87045196D01*
X106414505Y-87048796D01*
X106390001Y-87050000D01*
X105489999Y-87050000D01*
X105465495Y-87048796D01*
X105441227Y-87045196D01*
X105417428Y-87039235D01*
X105394329Y-87030970D01*
X105372150Y-87020480D01*
X105351107Y-87007868D01*
X105331401Y-86993253D01*
X105313223Y-86976777D01*
X105296747Y-86958599D01*
X105282132Y-86938893D01*
X105269520Y-86917850D01*
X105259030Y-86895671D01*
X105250765Y-86872572D01*
X105244804Y-86848773D01*
X105241204Y-86824505D01*
X105240000Y-86800001D01*
X105240000Y-86149999D01*
X105241204Y-86125495D01*
X105244804Y-86101227D01*
X105250765Y-86077428D01*
X105259030Y-86054329D01*
X105269520Y-86032150D01*
X105282132Y-86011107D01*
X105296747Y-85991401D01*
X105313223Y-85973223D01*
X105331401Y-85956747D01*
X105351107Y-85942132D01*
X105372150Y-85929520D01*
X105394329Y-85919030D01*
X105417428Y-85910765D01*
X105441227Y-85904804D01*
X105465495Y-85901204D01*
X105489999Y-85900000D01*
X106390001Y-85900000D01*
X106414505Y-85901204D01*
X106414505Y-85901204D01*
G37*
D18*
X105940000Y-86475000D03*
D11*
G36*
X115794505Y-85901204D02*
G01*
X115818773Y-85904804D01*
X115842572Y-85910765D01*
X115865671Y-85919030D01*
X115887850Y-85929520D01*
X115908893Y-85942132D01*
X115928599Y-85956747D01*
X115946777Y-85973223D01*
X115963253Y-85991401D01*
X115977868Y-86011107D01*
X115990480Y-86032150D01*
X116000970Y-86054329D01*
X116009235Y-86077428D01*
X116015196Y-86101227D01*
X116018796Y-86125495D01*
X116020000Y-86149999D01*
X116020000Y-86800001D01*
X116018796Y-86824505D01*
X116015196Y-86848773D01*
X116009235Y-86872572D01*
X116000970Y-86895671D01*
X115990480Y-86917850D01*
X115977868Y-86938893D01*
X115963253Y-86958599D01*
X115946777Y-86976777D01*
X115928599Y-86993253D01*
X115908893Y-87007868D01*
X115887850Y-87020480D01*
X115865671Y-87030970D01*
X115842572Y-87039235D01*
X115818773Y-87045196D01*
X115794505Y-87048796D01*
X115770001Y-87050000D01*
X114869999Y-87050000D01*
X114845495Y-87048796D01*
X114821227Y-87045196D01*
X114797428Y-87039235D01*
X114774329Y-87030970D01*
X114752150Y-87020480D01*
X114731107Y-87007868D01*
X114711401Y-86993253D01*
X114693223Y-86976777D01*
X114676747Y-86958599D01*
X114662132Y-86938893D01*
X114649520Y-86917850D01*
X114639030Y-86895671D01*
X114630765Y-86872572D01*
X114624804Y-86848773D01*
X114621204Y-86824505D01*
X114620000Y-86800001D01*
X114620000Y-86149999D01*
X114621204Y-86125495D01*
X114624804Y-86101227D01*
X114630765Y-86077428D01*
X114639030Y-86054329D01*
X114649520Y-86032150D01*
X114662132Y-86011107D01*
X114676747Y-85991401D01*
X114693223Y-85973223D01*
X114711401Y-85956747D01*
X114731107Y-85942132D01*
X114752150Y-85929520D01*
X114774329Y-85919030D01*
X114797428Y-85910765D01*
X114821227Y-85904804D01*
X114845495Y-85901204D01*
X114869999Y-85900000D01*
X115770001Y-85900000D01*
X115794505Y-85901204D01*
X115794505Y-85901204D01*
G37*
D18*
X115320000Y-86475000D03*
D11*
G36*
X115794505Y-83851204D02*
G01*
X115818773Y-83854804D01*
X115842572Y-83860765D01*
X115865671Y-83869030D01*
X115887850Y-83879520D01*
X115908893Y-83892132D01*
X115928599Y-83906747D01*
X115946777Y-83923223D01*
X115963253Y-83941401D01*
X115977868Y-83961107D01*
X115990480Y-83982150D01*
X116000970Y-84004329D01*
X116009235Y-84027428D01*
X116015196Y-84051227D01*
X116018796Y-84075495D01*
X116020000Y-84099999D01*
X116020000Y-84750001D01*
X116018796Y-84774505D01*
X116015196Y-84798773D01*
X116009235Y-84822572D01*
X116000970Y-84845671D01*
X115990480Y-84867850D01*
X115977868Y-84888893D01*
X115963253Y-84908599D01*
X115946777Y-84926777D01*
X115928599Y-84943253D01*
X115908893Y-84957868D01*
X115887850Y-84970480D01*
X115865671Y-84980970D01*
X115842572Y-84989235D01*
X115818773Y-84995196D01*
X115794505Y-84998796D01*
X115770001Y-85000000D01*
X114869999Y-85000000D01*
X114845495Y-84998796D01*
X114821227Y-84995196D01*
X114797428Y-84989235D01*
X114774329Y-84980970D01*
X114752150Y-84970480D01*
X114731107Y-84957868D01*
X114711401Y-84943253D01*
X114693223Y-84926777D01*
X114676747Y-84908599D01*
X114662132Y-84888893D01*
X114649520Y-84867850D01*
X114639030Y-84845671D01*
X114630765Y-84822572D01*
X114624804Y-84798773D01*
X114621204Y-84774505D01*
X114620000Y-84750001D01*
X114620000Y-84099999D01*
X114621204Y-84075495D01*
X114624804Y-84051227D01*
X114630765Y-84027428D01*
X114639030Y-84004329D01*
X114649520Y-83982150D01*
X114662132Y-83961107D01*
X114676747Y-83941401D01*
X114693223Y-83923223D01*
X114711401Y-83906747D01*
X114731107Y-83892132D01*
X114752150Y-83879520D01*
X114774329Y-83869030D01*
X114797428Y-83860765D01*
X114821227Y-83854804D01*
X114845495Y-83851204D01*
X114869999Y-83850000D01*
X115770001Y-83850000D01*
X115794505Y-83851204D01*
X115794505Y-83851204D01*
G37*
D18*
X115320000Y-84425000D03*
D11*
G36*
X123309704Y-90375004D02*
G01*
X123333973Y-90378604D01*
X123357771Y-90384565D01*
X123380871Y-90392830D01*
X123403049Y-90403320D01*
X123424093Y-90415933D01*
X123443798Y-90430547D01*
X123461977Y-90447023D01*
X123478453Y-90465202D01*
X123493067Y-90484907D01*
X123505680Y-90505951D01*
X123516170Y-90528129D01*
X123524435Y-90551229D01*
X123530396Y-90575027D01*
X123533996Y-90599296D01*
X123535200Y-90623800D01*
X123535200Y-91448800D01*
X123533996Y-91473304D01*
X123530396Y-91497573D01*
X123524435Y-91521371D01*
X123516170Y-91544471D01*
X123505680Y-91566649D01*
X123493067Y-91587693D01*
X123478453Y-91607398D01*
X123461977Y-91625577D01*
X123443798Y-91642053D01*
X123424093Y-91656667D01*
X123403049Y-91669280D01*
X123380871Y-91679770D01*
X123357771Y-91688035D01*
X123333973Y-91693996D01*
X123309704Y-91697596D01*
X123285200Y-91698800D01*
X122485200Y-91698800D01*
X122460696Y-91697596D01*
X122436427Y-91693996D01*
X122412629Y-91688035D01*
X122389529Y-91679770D01*
X122367351Y-91669280D01*
X122346307Y-91656667D01*
X122326602Y-91642053D01*
X122308423Y-91625577D01*
X122291947Y-91607398D01*
X122277333Y-91587693D01*
X122264720Y-91566649D01*
X122254230Y-91544471D01*
X122245965Y-91521371D01*
X122240004Y-91497573D01*
X122236404Y-91473304D01*
X122235200Y-91448800D01*
X122235200Y-90623800D01*
X122236404Y-90599296D01*
X122240004Y-90575027D01*
X122245965Y-90551229D01*
X122254230Y-90528129D01*
X122264720Y-90505951D01*
X122277333Y-90484907D01*
X122291947Y-90465202D01*
X122308423Y-90447023D01*
X122326602Y-90430547D01*
X122346307Y-90415933D01*
X122367351Y-90403320D01*
X122389529Y-90392830D01*
X122412629Y-90384565D01*
X122436427Y-90378604D01*
X122460696Y-90375004D01*
X122485200Y-90373800D01*
X123285200Y-90373800D01*
X123309704Y-90375004D01*
X123309704Y-90375004D01*
G37*
D19*
X122885200Y-91036300D03*
D11*
G36*
X123309704Y-92300004D02*
G01*
X123333973Y-92303604D01*
X123357771Y-92309565D01*
X123380871Y-92317830D01*
X123403049Y-92328320D01*
X123424093Y-92340933D01*
X123443798Y-92355547D01*
X123461977Y-92372023D01*
X123478453Y-92390202D01*
X123493067Y-92409907D01*
X123505680Y-92430951D01*
X123516170Y-92453129D01*
X123524435Y-92476229D01*
X123530396Y-92500027D01*
X123533996Y-92524296D01*
X123535200Y-92548800D01*
X123535200Y-93373800D01*
X123533996Y-93398304D01*
X123530396Y-93422573D01*
X123524435Y-93446371D01*
X123516170Y-93469471D01*
X123505680Y-93491649D01*
X123493067Y-93512693D01*
X123478453Y-93532398D01*
X123461977Y-93550577D01*
X123443798Y-93567053D01*
X123424093Y-93581667D01*
X123403049Y-93594280D01*
X123380871Y-93604770D01*
X123357771Y-93613035D01*
X123333973Y-93618996D01*
X123309704Y-93622596D01*
X123285200Y-93623800D01*
X122485200Y-93623800D01*
X122460696Y-93622596D01*
X122436427Y-93618996D01*
X122412629Y-93613035D01*
X122389529Y-93604770D01*
X122367351Y-93594280D01*
X122346307Y-93581667D01*
X122326602Y-93567053D01*
X122308423Y-93550577D01*
X122291947Y-93532398D01*
X122277333Y-93512693D01*
X122264720Y-93491649D01*
X122254230Y-93469471D01*
X122245965Y-93446371D01*
X122240004Y-93422573D01*
X122236404Y-93398304D01*
X122235200Y-93373800D01*
X122235200Y-92548800D01*
X122236404Y-92524296D01*
X122240004Y-92500027D01*
X122245965Y-92476229D01*
X122254230Y-92453129D01*
X122264720Y-92430951D01*
X122277333Y-92409907D01*
X122291947Y-92390202D01*
X122308423Y-92372023D01*
X122326602Y-92355547D01*
X122346307Y-92340933D01*
X122367351Y-92328320D01*
X122389529Y-92317830D01*
X122412629Y-92309565D01*
X122436427Y-92303604D01*
X122460696Y-92300004D01*
X122485200Y-92298800D01*
X123285200Y-92298800D01*
X123309704Y-92300004D01*
X123309704Y-92300004D01*
G37*
D19*
X122885200Y-92961300D03*
D11*
G36*
X117924904Y-92350804D02*
G01*
X117949173Y-92354404D01*
X117972971Y-92360365D01*
X117996071Y-92368630D01*
X118018249Y-92379120D01*
X118039293Y-92391733D01*
X118058998Y-92406347D01*
X118077177Y-92422823D01*
X118093653Y-92441002D01*
X118108267Y-92460707D01*
X118120880Y-92481751D01*
X118131370Y-92503929D01*
X118139635Y-92527029D01*
X118145596Y-92550827D01*
X118149196Y-92575096D01*
X118150400Y-92599600D01*
X118150400Y-93424600D01*
X118149196Y-93449104D01*
X118145596Y-93473373D01*
X118139635Y-93497171D01*
X118131370Y-93520271D01*
X118120880Y-93542449D01*
X118108267Y-93563493D01*
X118093653Y-93583198D01*
X118077177Y-93601377D01*
X118058998Y-93617853D01*
X118039293Y-93632467D01*
X118018249Y-93645080D01*
X117996071Y-93655570D01*
X117972971Y-93663835D01*
X117949173Y-93669796D01*
X117924904Y-93673396D01*
X117900400Y-93674600D01*
X117100400Y-93674600D01*
X117075896Y-93673396D01*
X117051627Y-93669796D01*
X117027829Y-93663835D01*
X117004729Y-93655570D01*
X116982551Y-93645080D01*
X116961507Y-93632467D01*
X116941802Y-93617853D01*
X116923623Y-93601377D01*
X116907147Y-93583198D01*
X116892533Y-93563493D01*
X116879920Y-93542449D01*
X116869430Y-93520271D01*
X116861165Y-93497171D01*
X116855204Y-93473373D01*
X116851604Y-93449104D01*
X116850400Y-93424600D01*
X116850400Y-92599600D01*
X116851604Y-92575096D01*
X116855204Y-92550827D01*
X116861165Y-92527029D01*
X116869430Y-92503929D01*
X116879920Y-92481751D01*
X116892533Y-92460707D01*
X116907147Y-92441002D01*
X116923623Y-92422823D01*
X116941802Y-92406347D01*
X116961507Y-92391733D01*
X116982551Y-92379120D01*
X117004729Y-92368630D01*
X117027829Y-92360365D01*
X117051627Y-92354404D01*
X117075896Y-92350804D01*
X117100400Y-92349600D01*
X117900400Y-92349600D01*
X117924904Y-92350804D01*
X117924904Y-92350804D01*
G37*
D19*
X117500400Y-93012100D03*
D11*
G36*
X117924904Y-90425804D02*
G01*
X117949173Y-90429404D01*
X117972971Y-90435365D01*
X117996071Y-90443630D01*
X118018249Y-90454120D01*
X118039293Y-90466733D01*
X118058998Y-90481347D01*
X118077177Y-90497823D01*
X118093653Y-90516002D01*
X118108267Y-90535707D01*
X118120880Y-90556751D01*
X118131370Y-90578929D01*
X118139635Y-90602029D01*
X118145596Y-90625827D01*
X118149196Y-90650096D01*
X118150400Y-90674600D01*
X118150400Y-91499600D01*
X118149196Y-91524104D01*
X118145596Y-91548373D01*
X118139635Y-91572171D01*
X118131370Y-91595271D01*
X118120880Y-91617449D01*
X118108267Y-91638493D01*
X118093653Y-91658198D01*
X118077177Y-91676377D01*
X118058998Y-91692853D01*
X118039293Y-91707467D01*
X118018249Y-91720080D01*
X117996071Y-91730570D01*
X117972971Y-91738835D01*
X117949173Y-91744796D01*
X117924904Y-91748396D01*
X117900400Y-91749600D01*
X117100400Y-91749600D01*
X117075896Y-91748396D01*
X117051627Y-91744796D01*
X117027829Y-91738835D01*
X117004729Y-91730570D01*
X116982551Y-91720080D01*
X116961507Y-91707467D01*
X116941802Y-91692853D01*
X116923623Y-91676377D01*
X116907147Y-91658198D01*
X116892533Y-91638493D01*
X116879920Y-91617449D01*
X116869430Y-91595271D01*
X116861165Y-91572171D01*
X116855204Y-91548373D01*
X116851604Y-91524104D01*
X116850400Y-91499600D01*
X116850400Y-90674600D01*
X116851604Y-90650096D01*
X116855204Y-90625827D01*
X116861165Y-90602029D01*
X116869430Y-90578929D01*
X116879920Y-90556751D01*
X116892533Y-90535707D01*
X116907147Y-90516002D01*
X116923623Y-90497823D01*
X116941802Y-90481347D01*
X116961507Y-90466733D01*
X116982551Y-90454120D01*
X117004729Y-90443630D01*
X117027829Y-90435365D01*
X117051627Y-90429404D01*
X117075896Y-90425804D01*
X117100400Y-90424600D01*
X117900400Y-90424600D01*
X117924904Y-90425804D01*
X117924904Y-90425804D01*
G37*
D19*
X117500400Y-91087100D03*
D20*
X107238800Y-95046800D03*
D21*
X104698800Y-95046800D03*
X107238800Y-92506800D03*
X104698800Y-92506800D03*
X107238800Y-89966800D03*
X104698800Y-89966800D03*
D11*
G36*
X125798105Y-90349204D02*
G01*
X125822373Y-90352804D01*
X125846172Y-90358765D01*
X125869271Y-90367030D01*
X125891450Y-90377520D01*
X125912493Y-90390132D01*
X125932199Y-90404747D01*
X125950377Y-90421223D01*
X125966853Y-90439401D01*
X125981468Y-90459107D01*
X125994080Y-90480150D01*
X126004570Y-90502329D01*
X126012835Y-90525428D01*
X126018796Y-90549227D01*
X126022396Y-90573495D01*
X126023600Y-90597999D01*
X126023600Y-91248001D01*
X126022396Y-91272505D01*
X126018796Y-91296773D01*
X126012835Y-91320572D01*
X126004570Y-91343671D01*
X125994080Y-91365850D01*
X125981468Y-91386893D01*
X125966853Y-91406599D01*
X125950377Y-91424777D01*
X125932199Y-91441253D01*
X125912493Y-91455868D01*
X125891450Y-91468480D01*
X125869271Y-91478970D01*
X125846172Y-91487235D01*
X125822373Y-91493196D01*
X125798105Y-91496796D01*
X125773601Y-91498000D01*
X124873599Y-91498000D01*
X124849095Y-91496796D01*
X124824827Y-91493196D01*
X124801028Y-91487235D01*
X124777929Y-91478970D01*
X124755750Y-91468480D01*
X124734707Y-91455868D01*
X124715001Y-91441253D01*
X124696823Y-91424777D01*
X124680347Y-91406599D01*
X124665732Y-91386893D01*
X124653120Y-91365850D01*
X124642630Y-91343671D01*
X124634365Y-91320572D01*
X124628404Y-91296773D01*
X124624804Y-91272505D01*
X124623600Y-91248001D01*
X124623600Y-90597999D01*
X124624804Y-90573495D01*
X124628404Y-90549227D01*
X124634365Y-90525428D01*
X124642630Y-90502329D01*
X124653120Y-90480150D01*
X124665732Y-90459107D01*
X124680347Y-90439401D01*
X124696823Y-90421223D01*
X124715001Y-90404747D01*
X124734707Y-90390132D01*
X124755750Y-90377520D01*
X124777929Y-90367030D01*
X124801028Y-90358765D01*
X124824827Y-90352804D01*
X124849095Y-90349204D01*
X124873599Y-90348000D01*
X125773601Y-90348000D01*
X125798105Y-90349204D01*
X125798105Y-90349204D01*
G37*
D18*
X125323600Y-90923000D03*
D11*
G36*
X125798105Y-92399204D02*
G01*
X125822373Y-92402804D01*
X125846172Y-92408765D01*
X125869271Y-92417030D01*
X125891450Y-92427520D01*
X125912493Y-92440132D01*
X125932199Y-92454747D01*
X125950377Y-92471223D01*
X125966853Y-92489401D01*
X125981468Y-92509107D01*
X125994080Y-92530150D01*
X126004570Y-92552329D01*
X126012835Y-92575428D01*
X126018796Y-92599227D01*
X126022396Y-92623495D01*
X126023600Y-92647999D01*
X126023600Y-93298001D01*
X126022396Y-93322505D01*
X126018796Y-93346773D01*
X126012835Y-93370572D01*
X126004570Y-93393671D01*
X125994080Y-93415850D01*
X125981468Y-93436893D01*
X125966853Y-93456599D01*
X125950377Y-93474777D01*
X125932199Y-93491253D01*
X125912493Y-93505868D01*
X125891450Y-93518480D01*
X125869271Y-93528970D01*
X125846172Y-93537235D01*
X125822373Y-93543196D01*
X125798105Y-93546796D01*
X125773601Y-93548000D01*
X124873599Y-93548000D01*
X124849095Y-93546796D01*
X124824827Y-93543196D01*
X124801028Y-93537235D01*
X124777929Y-93528970D01*
X124755750Y-93518480D01*
X124734707Y-93505868D01*
X124715001Y-93491253D01*
X124696823Y-93474777D01*
X124680347Y-93456599D01*
X124665732Y-93436893D01*
X124653120Y-93415850D01*
X124642630Y-93393671D01*
X124634365Y-93370572D01*
X124628404Y-93346773D01*
X124624804Y-93322505D01*
X124623600Y-93298001D01*
X124623600Y-92647999D01*
X124624804Y-92623495D01*
X124628404Y-92599227D01*
X124634365Y-92575428D01*
X124642630Y-92552329D01*
X124653120Y-92530150D01*
X124665732Y-92509107D01*
X124680347Y-92489401D01*
X124696823Y-92471223D01*
X124715001Y-92454747D01*
X124734707Y-92440132D01*
X124755750Y-92427520D01*
X124777929Y-92417030D01*
X124801028Y-92408765D01*
X124824827Y-92402804D01*
X124849095Y-92399204D01*
X124873599Y-92398000D01*
X125773601Y-92398000D01*
X125798105Y-92399204D01*
X125798105Y-92399204D01*
G37*
D18*
X125323600Y-92973000D03*
D11*
G36*
X120260905Y-90349204D02*
G01*
X120285173Y-90352804D01*
X120308972Y-90358765D01*
X120332071Y-90367030D01*
X120354250Y-90377520D01*
X120375293Y-90390132D01*
X120394999Y-90404747D01*
X120413177Y-90421223D01*
X120429653Y-90439401D01*
X120444268Y-90459107D01*
X120456880Y-90480150D01*
X120467370Y-90502329D01*
X120475635Y-90525428D01*
X120481596Y-90549227D01*
X120485196Y-90573495D01*
X120486400Y-90597999D01*
X120486400Y-91248001D01*
X120485196Y-91272505D01*
X120481596Y-91296773D01*
X120475635Y-91320572D01*
X120467370Y-91343671D01*
X120456880Y-91365850D01*
X120444268Y-91386893D01*
X120429653Y-91406599D01*
X120413177Y-91424777D01*
X120394999Y-91441253D01*
X120375293Y-91455868D01*
X120354250Y-91468480D01*
X120332071Y-91478970D01*
X120308972Y-91487235D01*
X120285173Y-91493196D01*
X120260905Y-91496796D01*
X120236401Y-91498000D01*
X119336399Y-91498000D01*
X119311895Y-91496796D01*
X119287627Y-91493196D01*
X119263828Y-91487235D01*
X119240729Y-91478970D01*
X119218550Y-91468480D01*
X119197507Y-91455868D01*
X119177801Y-91441253D01*
X119159623Y-91424777D01*
X119143147Y-91406599D01*
X119128532Y-91386893D01*
X119115920Y-91365850D01*
X119105430Y-91343671D01*
X119097165Y-91320572D01*
X119091204Y-91296773D01*
X119087604Y-91272505D01*
X119086400Y-91248001D01*
X119086400Y-90597999D01*
X119087604Y-90573495D01*
X119091204Y-90549227D01*
X119097165Y-90525428D01*
X119105430Y-90502329D01*
X119115920Y-90480150D01*
X119128532Y-90459107D01*
X119143147Y-90439401D01*
X119159623Y-90421223D01*
X119177801Y-90404747D01*
X119197507Y-90390132D01*
X119218550Y-90377520D01*
X119240729Y-90367030D01*
X119263828Y-90358765D01*
X119287627Y-90352804D01*
X119311895Y-90349204D01*
X119336399Y-90348000D01*
X120236401Y-90348000D01*
X120260905Y-90349204D01*
X120260905Y-90349204D01*
G37*
D18*
X119786400Y-90923000D03*
D11*
G36*
X120260905Y-92399204D02*
G01*
X120285173Y-92402804D01*
X120308972Y-92408765D01*
X120332071Y-92417030D01*
X120354250Y-92427520D01*
X120375293Y-92440132D01*
X120394999Y-92454747D01*
X120413177Y-92471223D01*
X120429653Y-92489401D01*
X120444268Y-92509107D01*
X120456880Y-92530150D01*
X120467370Y-92552329D01*
X120475635Y-92575428D01*
X120481596Y-92599227D01*
X120485196Y-92623495D01*
X120486400Y-92647999D01*
X120486400Y-93298001D01*
X120485196Y-93322505D01*
X120481596Y-93346773D01*
X120475635Y-93370572D01*
X120467370Y-93393671D01*
X120456880Y-93415850D01*
X120444268Y-93436893D01*
X120429653Y-93456599D01*
X120413177Y-93474777D01*
X120394999Y-93491253D01*
X120375293Y-93505868D01*
X120354250Y-93518480D01*
X120332071Y-93528970D01*
X120308972Y-93537235D01*
X120285173Y-93543196D01*
X120260905Y-93546796D01*
X120236401Y-93548000D01*
X119336399Y-93548000D01*
X119311895Y-93546796D01*
X119287627Y-93543196D01*
X119263828Y-93537235D01*
X119240729Y-93528970D01*
X119218550Y-93518480D01*
X119197507Y-93505868D01*
X119177801Y-93491253D01*
X119159623Y-93474777D01*
X119143147Y-93456599D01*
X119128532Y-93436893D01*
X119115920Y-93415850D01*
X119105430Y-93393671D01*
X119097165Y-93370572D01*
X119091204Y-93346773D01*
X119087604Y-93322505D01*
X119086400Y-93298001D01*
X119086400Y-92647999D01*
X119087604Y-92623495D01*
X119091204Y-92599227D01*
X119097165Y-92575428D01*
X119105430Y-92552329D01*
X119115920Y-92530150D01*
X119128532Y-92509107D01*
X119143147Y-92489401D01*
X119159623Y-92471223D01*
X119177801Y-92454747D01*
X119197507Y-92440132D01*
X119218550Y-92427520D01*
X119240729Y-92417030D01*
X119263828Y-92408765D01*
X119287627Y-92402804D01*
X119311895Y-92399204D01*
X119336399Y-92398000D01*
X120236401Y-92398000D01*
X120260905Y-92399204D01*
X120260905Y-92399204D01*
G37*
D18*
X119786400Y-92973000D03*
D11*
G36*
X111824505Y-94321204D02*
G01*
X111848773Y-94324804D01*
X111872572Y-94330765D01*
X111895671Y-94339030D01*
X111917850Y-94349520D01*
X111938893Y-94362132D01*
X111958599Y-94376747D01*
X111976777Y-94393223D01*
X111993253Y-94411401D01*
X112007868Y-94431107D01*
X112020480Y-94452150D01*
X112030970Y-94474329D01*
X112039235Y-94497428D01*
X112045196Y-94521227D01*
X112048796Y-94545495D01*
X112050000Y-94569999D01*
X112050000Y-95470001D01*
X112048796Y-95494505D01*
X112045196Y-95518773D01*
X112039235Y-95542572D01*
X112030970Y-95565671D01*
X112020480Y-95587850D01*
X112007868Y-95608893D01*
X111993253Y-95628599D01*
X111976777Y-95646777D01*
X111958599Y-95663253D01*
X111938893Y-95677868D01*
X111917850Y-95690480D01*
X111895671Y-95700970D01*
X111872572Y-95709235D01*
X111848773Y-95715196D01*
X111824505Y-95718796D01*
X111800001Y-95720000D01*
X111149999Y-95720000D01*
X111125495Y-95718796D01*
X111101227Y-95715196D01*
X111077428Y-95709235D01*
X111054329Y-95700970D01*
X111032150Y-95690480D01*
X111011107Y-95677868D01*
X110991401Y-95663253D01*
X110973223Y-95646777D01*
X110956747Y-95628599D01*
X110942132Y-95608893D01*
X110929520Y-95587850D01*
X110919030Y-95565671D01*
X110910765Y-95542572D01*
X110904804Y-95518773D01*
X110901204Y-95494505D01*
X110900000Y-95470001D01*
X110900000Y-94569999D01*
X110901204Y-94545495D01*
X110904804Y-94521227D01*
X110910765Y-94497428D01*
X110919030Y-94474329D01*
X110929520Y-94452150D01*
X110942132Y-94431107D01*
X110956747Y-94411401D01*
X110973223Y-94393223D01*
X110991401Y-94376747D01*
X111011107Y-94362132D01*
X111032150Y-94349520D01*
X111054329Y-94339030D01*
X111077428Y-94330765D01*
X111101227Y-94324804D01*
X111125495Y-94321204D01*
X111149999Y-94320000D01*
X111800001Y-94320000D01*
X111824505Y-94321204D01*
X111824505Y-94321204D01*
G37*
D18*
X111475000Y-95020000D03*
D11*
G36*
X113874505Y-94321204D02*
G01*
X113898773Y-94324804D01*
X113922572Y-94330765D01*
X113945671Y-94339030D01*
X113967850Y-94349520D01*
X113988893Y-94362132D01*
X114008599Y-94376747D01*
X114026777Y-94393223D01*
X114043253Y-94411401D01*
X114057868Y-94431107D01*
X114070480Y-94452150D01*
X114080970Y-94474329D01*
X114089235Y-94497428D01*
X114095196Y-94521227D01*
X114098796Y-94545495D01*
X114100000Y-94569999D01*
X114100000Y-95470001D01*
X114098796Y-95494505D01*
X114095196Y-95518773D01*
X114089235Y-95542572D01*
X114080970Y-95565671D01*
X114070480Y-95587850D01*
X114057868Y-95608893D01*
X114043253Y-95628599D01*
X114026777Y-95646777D01*
X114008599Y-95663253D01*
X113988893Y-95677868D01*
X113967850Y-95690480D01*
X113945671Y-95700970D01*
X113922572Y-95709235D01*
X113898773Y-95715196D01*
X113874505Y-95718796D01*
X113850001Y-95720000D01*
X113199999Y-95720000D01*
X113175495Y-95718796D01*
X113151227Y-95715196D01*
X113127428Y-95709235D01*
X113104329Y-95700970D01*
X113082150Y-95690480D01*
X113061107Y-95677868D01*
X113041401Y-95663253D01*
X113023223Y-95646777D01*
X113006747Y-95628599D01*
X112992132Y-95608893D01*
X112979520Y-95587850D01*
X112969030Y-95565671D01*
X112960765Y-95542572D01*
X112954804Y-95518773D01*
X112951204Y-95494505D01*
X112950000Y-95470001D01*
X112950000Y-94569999D01*
X112951204Y-94545495D01*
X112954804Y-94521227D01*
X112960765Y-94497428D01*
X112969030Y-94474329D01*
X112979520Y-94452150D01*
X112992132Y-94431107D01*
X113006747Y-94411401D01*
X113023223Y-94393223D01*
X113041401Y-94376747D01*
X113061107Y-94362132D01*
X113082150Y-94349520D01*
X113104329Y-94339030D01*
X113127428Y-94330765D01*
X113151227Y-94324804D01*
X113175495Y-94321204D01*
X113199999Y-94320000D01*
X113850001Y-94320000D01*
X113874505Y-94321204D01*
X113874505Y-94321204D01*
G37*
D18*
X113525000Y-95020000D03*
D11*
G36*
X111844505Y-91761204D02*
G01*
X111868773Y-91764804D01*
X111892572Y-91770765D01*
X111915671Y-91779030D01*
X111937850Y-91789520D01*
X111958893Y-91802132D01*
X111978599Y-91816747D01*
X111996777Y-91833223D01*
X112013253Y-91851401D01*
X112027868Y-91871107D01*
X112040480Y-91892150D01*
X112050970Y-91914329D01*
X112059235Y-91937428D01*
X112065196Y-91961227D01*
X112068796Y-91985495D01*
X112070000Y-92009999D01*
X112070000Y-92910001D01*
X112068796Y-92934505D01*
X112065196Y-92958773D01*
X112059235Y-92982572D01*
X112050970Y-93005671D01*
X112040480Y-93027850D01*
X112027868Y-93048893D01*
X112013253Y-93068599D01*
X111996777Y-93086777D01*
X111978599Y-93103253D01*
X111958893Y-93117868D01*
X111937850Y-93130480D01*
X111915671Y-93140970D01*
X111892572Y-93149235D01*
X111868773Y-93155196D01*
X111844505Y-93158796D01*
X111820001Y-93160000D01*
X111169999Y-93160000D01*
X111145495Y-93158796D01*
X111121227Y-93155196D01*
X111097428Y-93149235D01*
X111074329Y-93140970D01*
X111052150Y-93130480D01*
X111031107Y-93117868D01*
X111011401Y-93103253D01*
X110993223Y-93086777D01*
X110976747Y-93068599D01*
X110962132Y-93048893D01*
X110949520Y-93027850D01*
X110939030Y-93005671D01*
X110930765Y-92982572D01*
X110924804Y-92958773D01*
X110921204Y-92934505D01*
X110920000Y-92910001D01*
X110920000Y-92009999D01*
X110921204Y-91985495D01*
X110924804Y-91961227D01*
X110930765Y-91937428D01*
X110939030Y-91914329D01*
X110949520Y-91892150D01*
X110962132Y-91871107D01*
X110976747Y-91851401D01*
X110993223Y-91833223D01*
X111011401Y-91816747D01*
X111031107Y-91802132D01*
X111052150Y-91789520D01*
X111074329Y-91779030D01*
X111097428Y-91770765D01*
X111121227Y-91764804D01*
X111145495Y-91761204D01*
X111169999Y-91760000D01*
X111820001Y-91760000D01*
X111844505Y-91761204D01*
X111844505Y-91761204D01*
G37*
D18*
X111495000Y-92460000D03*
D11*
G36*
X113894505Y-91761204D02*
G01*
X113918773Y-91764804D01*
X113942572Y-91770765D01*
X113965671Y-91779030D01*
X113987850Y-91789520D01*
X114008893Y-91802132D01*
X114028599Y-91816747D01*
X114046777Y-91833223D01*
X114063253Y-91851401D01*
X114077868Y-91871107D01*
X114090480Y-91892150D01*
X114100970Y-91914329D01*
X114109235Y-91937428D01*
X114115196Y-91961227D01*
X114118796Y-91985495D01*
X114120000Y-92009999D01*
X114120000Y-92910001D01*
X114118796Y-92934505D01*
X114115196Y-92958773D01*
X114109235Y-92982572D01*
X114100970Y-93005671D01*
X114090480Y-93027850D01*
X114077868Y-93048893D01*
X114063253Y-93068599D01*
X114046777Y-93086777D01*
X114028599Y-93103253D01*
X114008893Y-93117868D01*
X113987850Y-93130480D01*
X113965671Y-93140970D01*
X113942572Y-93149235D01*
X113918773Y-93155196D01*
X113894505Y-93158796D01*
X113870001Y-93160000D01*
X113219999Y-93160000D01*
X113195495Y-93158796D01*
X113171227Y-93155196D01*
X113147428Y-93149235D01*
X113124329Y-93140970D01*
X113102150Y-93130480D01*
X113081107Y-93117868D01*
X113061401Y-93103253D01*
X113043223Y-93086777D01*
X113026747Y-93068599D01*
X113012132Y-93048893D01*
X112999520Y-93027850D01*
X112989030Y-93005671D01*
X112980765Y-92982572D01*
X112974804Y-92958773D01*
X112971204Y-92934505D01*
X112970000Y-92910001D01*
X112970000Y-92009999D01*
X112971204Y-91985495D01*
X112974804Y-91961227D01*
X112980765Y-91937428D01*
X112989030Y-91914329D01*
X112999520Y-91892150D01*
X113012132Y-91871107D01*
X113026747Y-91851401D01*
X113043223Y-91833223D01*
X113061401Y-91816747D01*
X113081107Y-91802132D01*
X113102150Y-91789520D01*
X113124329Y-91779030D01*
X113147428Y-91770765D01*
X113171227Y-91764804D01*
X113195495Y-91761204D01*
X113219999Y-91760000D01*
X113870001Y-91760000D01*
X113894505Y-91761204D01*
X113894505Y-91761204D01*
G37*
D18*
X113545000Y-92460000D03*
D11*
G36*
X113874505Y-89261204D02*
G01*
X113898773Y-89264804D01*
X113922572Y-89270765D01*
X113945671Y-89279030D01*
X113967850Y-89289520D01*
X113988893Y-89302132D01*
X114008599Y-89316747D01*
X114026777Y-89333223D01*
X114043253Y-89351401D01*
X114057868Y-89371107D01*
X114070480Y-89392150D01*
X114080970Y-89414329D01*
X114089235Y-89437428D01*
X114095196Y-89461227D01*
X114098796Y-89485495D01*
X114100000Y-89509999D01*
X114100000Y-90410001D01*
X114098796Y-90434505D01*
X114095196Y-90458773D01*
X114089235Y-90482572D01*
X114080970Y-90505671D01*
X114070480Y-90527850D01*
X114057868Y-90548893D01*
X114043253Y-90568599D01*
X114026777Y-90586777D01*
X114008599Y-90603253D01*
X113988893Y-90617868D01*
X113967850Y-90630480D01*
X113945671Y-90640970D01*
X113922572Y-90649235D01*
X113898773Y-90655196D01*
X113874505Y-90658796D01*
X113850001Y-90660000D01*
X113199999Y-90660000D01*
X113175495Y-90658796D01*
X113151227Y-90655196D01*
X113127428Y-90649235D01*
X113104329Y-90640970D01*
X113082150Y-90630480D01*
X113061107Y-90617868D01*
X113041401Y-90603253D01*
X113023223Y-90586777D01*
X113006747Y-90568599D01*
X112992132Y-90548893D01*
X112979520Y-90527850D01*
X112969030Y-90505671D01*
X112960765Y-90482572D01*
X112954804Y-90458773D01*
X112951204Y-90434505D01*
X112950000Y-90410001D01*
X112950000Y-89509999D01*
X112951204Y-89485495D01*
X112954804Y-89461227D01*
X112960765Y-89437428D01*
X112969030Y-89414329D01*
X112979520Y-89392150D01*
X112992132Y-89371107D01*
X113006747Y-89351401D01*
X113023223Y-89333223D01*
X113041401Y-89316747D01*
X113061107Y-89302132D01*
X113082150Y-89289520D01*
X113104329Y-89279030D01*
X113127428Y-89270765D01*
X113151227Y-89264804D01*
X113175495Y-89261204D01*
X113199999Y-89260000D01*
X113850001Y-89260000D01*
X113874505Y-89261204D01*
X113874505Y-89261204D01*
G37*
D18*
X113525000Y-89960000D03*
D11*
G36*
X111824505Y-89261204D02*
G01*
X111848773Y-89264804D01*
X111872572Y-89270765D01*
X111895671Y-89279030D01*
X111917850Y-89289520D01*
X111938893Y-89302132D01*
X111958599Y-89316747D01*
X111976777Y-89333223D01*
X111993253Y-89351401D01*
X112007868Y-89371107D01*
X112020480Y-89392150D01*
X112030970Y-89414329D01*
X112039235Y-89437428D01*
X112045196Y-89461227D01*
X112048796Y-89485495D01*
X112050000Y-89509999D01*
X112050000Y-90410001D01*
X112048796Y-90434505D01*
X112045196Y-90458773D01*
X112039235Y-90482572D01*
X112030970Y-90505671D01*
X112020480Y-90527850D01*
X112007868Y-90548893D01*
X111993253Y-90568599D01*
X111976777Y-90586777D01*
X111958599Y-90603253D01*
X111938893Y-90617868D01*
X111917850Y-90630480D01*
X111895671Y-90640970D01*
X111872572Y-90649235D01*
X111848773Y-90655196D01*
X111824505Y-90658796D01*
X111800001Y-90660000D01*
X111149999Y-90660000D01*
X111125495Y-90658796D01*
X111101227Y-90655196D01*
X111077428Y-90649235D01*
X111054329Y-90640970D01*
X111032150Y-90630480D01*
X111011107Y-90617868D01*
X110991401Y-90603253D01*
X110973223Y-90586777D01*
X110956747Y-90568599D01*
X110942132Y-90548893D01*
X110929520Y-90527850D01*
X110919030Y-90505671D01*
X110910765Y-90482572D01*
X110904804Y-90458773D01*
X110901204Y-90434505D01*
X110900000Y-90410001D01*
X110900000Y-89509999D01*
X110901204Y-89485495D01*
X110904804Y-89461227D01*
X110910765Y-89437428D01*
X110919030Y-89414329D01*
X110929520Y-89392150D01*
X110942132Y-89371107D01*
X110956747Y-89351401D01*
X110973223Y-89333223D01*
X110991401Y-89316747D01*
X111011107Y-89302132D01*
X111032150Y-89289520D01*
X111054329Y-89279030D01*
X111077428Y-89270765D01*
X111101227Y-89264804D01*
X111125495Y-89261204D01*
X111149999Y-89260000D01*
X111800001Y-89260000D01*
X111824505Y-89261204D01*
X111824505Y-89261204D01*
G37*
D18*
X111475000Y-89960000D03*
D20*
X99270000Y-79540000D03*
X99340000Y-95040000D03*
D22*
X103911400Y-79959200D03*
X109702600Y-79908400D03*
X106857800Y-79908400D03*
X103911400Y-83693000D03*
X106857800Y-82600800D03*
X109702600Y-82626200D03*
X123063000Y-84963000D03*
X123063000Y-88087200D03*
X117170200Y-84963000D03*
X117195600Y-87782400D03*
X111887000Y-80289400D03*
X111887000Y-82600800D03*
X117271800Y-80289400D03*
X114554000Y-80314800D03*
X117271800Y-82600800D03*
X114554000Y-82575400D03*
X123063000Y-83007200D03*
X123063000Y-80416400D03*
D23*
X109615000Y-84425000D02*
X109620000Y-84430000D01*
X105940000Y-84425000D02*
X109615000Y-84425000D01*
X105940000Y-80616200D02*
X105940000Y-84425000D01*
X104597200Y-79273400D02*
X105940000Y-80616200D01*
X99270000Y-79540000D02*
X99536600Y-79273400D01*
X99536600Y-79273400D02*
X104597200Y-79273400D01*
X104476600Y-84855000D02*
X104906600Y-84425000D01*
X104906600Y-84425000D02*
X105940000Y-84425000D01*
X101145000Y-84855000D02*
X102838200Y-84855000D01*
D24*
X102838200Y-84855000D02*
X104476600Y-84855000D01*
D23*
X106857800Y-79908400D02*
X106857800Y-82600800D01*
D25*
X125323600Y-80111600D02*
X125323600Y-90923000D01*
X124155200Y-78943200D02*
X125323600Y-80111600D01*
X109702600Y-79908400D02*
X110667800Y-78943200D01*
X110667800Y-78943200D02*
X124155200Y-78943200D01*
D23*
X101260000Y-89060000D02*
X101265000Y-89055000D01*
X113525000Y-92740000D02*
X113545000Y-92760000D01*
X113525000Y-89960000D02*
X113525000Y-92440000D01*
X113545000Y-95300000D02*
X113525000Y-95320000D01*
X113545000Y-92460000D02*
X113545000Y-95000000D01*
X105940000Y-86475000D02*
X106045000Y-86580000D01*
X113732500Y-94812500D02*
X113525000Y-95020000D01*
X110710000Y-85380000D02*
X111820000Y-85380000D01*
X98265000Y-84925000D02*
X97995000Y-85195000D01*
X101145000Y-83205000D02*
X101245000Y-83305000D01*
X101265000Y-88575000D02*
X101265000Y-89055000D01*
X107035000Y-85380000D02*
X110710000Y-85380000D01*
X101145000Y-87455000D02*
X103019600Y-87455000D01*
D26*
X104960000Y-87455000D02*
X105940000Y-86475000D01*
X103019600Y-87455000D02*
X104960000Y-87455000D01*
D23*
X113525000Y-92440000D02*
X113545000Y-92460000D01*
X110710000Y-87145000D02*
X113525000Y-89960000D01*
X110710000Y-85380000D02*
X110710000Y-87145000D01*
X107035000Y-85380000D02*
X111820000Y-85380000D01*
X105940000Y-86475000D02*
X107035000Y-85380000D01*
X119290000Y-85820000D02*
X119740000Y-85370000D01*
X114225000Y-85380000D02*
X115320000Y-86475000D01*
X111820000Y-85380000D02*
X114225000Y-85380000D01*
X117500400Y-91087100D02*
X117319900Y-90906600D01*
X117500400Y-91087100D02*
X116532500Y-91087100D01*
X115159600Y-92460000D02*
X113545000Y-92460000D01*
X116532500Y-91087100D02*
X115159600Y-92460000D01*
X98442500Y-87480000D02*
X98142500Y-87180000D01*
X100842500Y-87480000D02*
X98442500Y-87480000D01*
X98142500Y-87180000D02*
X98142500Y-89080000D01*
X99340000Y-95000000D02*
X99340000Y-95040000D01*
X100800000Y-93540000D02*
X99340000Y-95000000D01*
X100800000Y-89520000D02*
X100800000Y-93540000D01*
X100842500Y-89477500D02*
X100842500Y-87480000D01*
X100800000Y-89520000D02*
X100842500Y-89477500D01*
X98142500Y-85180000D02*
X98142500Y-87180000D01*
X98142500Y-85180000D02*
X98142500Y-83280000D01*
X100442500Y-83280000D02*
X100842500Y-83680000D01*
X98142500Y-83280000D02*
X100442500Y-83280000D01*
X115315000Y-84430000D02*
X115320000Y-84425000D01*
X111820000Y-84430000D02*
X115315000Y-84430000D01*
D27*
X122771900Y-90923000D02*
X122885200Y-91036300D01*
X119786400Y-90923000D02*
X122771900Y-90923000D01*
X118042800Y-89179400D02*
X119786400Y-90923000D01*
X114960400Y-89179400D02*
X118042800Y-89179400D01*
X111820000Y-86330000D02*
X112111000Y-86330000D01*
X112111000Y-86330000D02*
X114960400Y-89179400D01*
D23*
X125311900Y-92961300D02*
X125323600Y-92973000D01*
X122885200Y-92961300D02*
X125311900Y-92961300D01*
X117539500Y-92973000D02*
X117500400Y-93012100D01*
X119786400Y-92973000D02*
X117539500Y-92973000D01*
X111465000Y-95330000D02*
X111475000Y-95320000D01*
X108620000Y-95030000D02*
X111465000Y-95030000D01*
X108605600Y-95030000D02*
X108620000Y-95030000D01*
X108588800Y-95046800D02*
X108605600Y-95030000D01*
X107238800Y-95046800D02*
X108588800Y-95046800D01*
X108980000Y-86330000D02*
X109620000Y-86330000D01*
X108590000Y-86330000D02*
X109620000Y-86330000D01*
X105909999Y-89010001D02*
X108590000Y-86330000D01*
X105909999Y-89100001D02*
X105909999Y-89010001D01*
X105060000Y-89950000D02*
X105909999Y-89100001D01*
X105060000Y-89950000D02*
X105060000Y-92490000D01*
X105060000Y-92490000D02*
X105060000Y-95030000D01*
X111315000Y-92790000D02*
X111495000Y-92970000D01*
X108620000Y-92490000D02*
X111315000Y-92490000D01*
X108603200Y-92506800D02*
X107238800Y-92506800D01*
X108620000Y-92490000D02*
X108603200Y-92506800D01*
X111465000Y-90250000D02*
X111475000Y-90260000D01*
X108620000Y-89950000D02*
X111465000Y-89950000D01*
X108603200Y-89966800D02*
X107238800Y-89966800D01*
X108620000Y-89950000D02*
X108603200Y-89966800D01*
D28*
G36*
X124563600Y-80426402D02*
G01*
X124563600Y-83642200D01*
X120545510Y-83642200D01*
X120727276Y-83545044D01*
X120865233Y-83244838D01*
X119660000Y-82039605D01*
X118454767Y-83244838D01*
X118592724Y-83545044D01*
X118785692Y-83642200D01*
X116620538Y-83642200D01*
X116609502Y-83605820D01*
X116550537Y-83495506D01*
X116471185Y-83398815D01*
X116374494Y-83319463D01*
X116264180Y-83260498D01*
X116144482Y-83224188D01*
X116020000Y-83211928D01*
X115605750Y-83215000D01*
X115447000Y-83373750D01*
X115447000Y-84298000D01*
X115467000Y-84298000D01*
X115467000Y-84552000D01*
X115447000Y-84552000D01*
X115447000Y-84572000D01*
X115193000Y-84572000D01*
X115193000Y-84552000D01*
X114544179Y-84552000D01*
X114398490Y-84507805D01*
X114268477Y-84495000D01*
X114268469Y-84495000D01*
X114225000Y-84490719D01*
X114181531Y-84495000D01*
X112649373Y-84495000D01*
X112594180Y-84465498D01*
X112474482Y-84429188D01*
X112350000Y-84416928D01*
X111673000Y-84416928D01*
X111673000Y-84303000D01*
X111693000Y-84303000D01*
X111693000Y-83628750D01*
X111947000Y-83628750D01*
X111947000Y-84303000D01*
X112826250Y-84303000D01*
X112985000Y-84144250D01*
X112988072Y-84105000D01*
X112975812Y-83980518D01*
X112939502Y-83860820D01*
X112933719Y-83850000D01*
X113981928Y-83850000D01*
X113985000Y-84139250D01*
X114143750Y-84298000D01*
X115193000Y-84298000D01*
X115193000Y-83373750D01*
X115034250Y-83215000D01*
X114620000Y-83211928D01*
X114495518Y-83224188D01*
X114375820Y-83260498D01*
X114265506Y-83319463D01*
X114168815Y-83398815D01*
X114089463Y-83495506D01*
X114030498Y-83605820D01*
X113994188Y-83725518D01*
X113981928Y-83850000D01*
X112933719Y-83850000D01*
X112880537Y-83750506D01*
X112801185Y-83653815D01*
X112704494Y-83574463D01*
X112594180Y-83515498D01*
X112474482Y-83479188D01*
X112350000Y-83466928D01*
X112105750Y-83470000D01*
X111947000Y-83628750D01*
X111693000Y-83628750D01*
X111534250Y-83470000D01*
X111290000Y-83466928D01*
X111165518Y-83479188D01*
X111125000Y-83491479D01*
X111125000Y-81908753D01*
X117665991Y-81908753D01*
X117713816Y-82296828D01*
X117836432Y-82668116D01*
X117974956Y-82927276D01*
X118275162Y-83065233D01*
X119480395Y-81860000D01*
X119839605Y-81860000D01*
X121044838Y-83065233D01*
X121345044Y-82927276D01*
X121520882Y-82578033D01*
X121625207Y-82201196D01*
X121654009Y-81811247D01*
X121606184Y-81423172D01*
X121483568Y-81051884D01*
X121345044Y-80792724D01*
X121044838Y-80654767D01*
X119839605Y-81860000D01*
X119480395Y-81860000D01*
X118275162Y-80654767D01*
X117974956Y-80792724D01*
X117799118Y-81141967D01*
X117694793Y-81518804D01*
X117665991Y-81908753D01*
X111125000Y-81908753D01*
X111125000Y-80475162D01*
X118454767Y-80475162D01*
X119660000Y-81680395D01*
X120865233Y-80475162D01*
X120727276Y-80174956D01*
X120378033Y-79999118D01*
X120001196Y-79894793D01*
X119611247Y-79865991D01*
X119223172Y-79913816D01*
X118851884Y-80036432D01*
X118592724Y-80174956D01*
X118454767Y-80475162D01*
X111125000Y-80475162D01*
X111125000Y-79703200D01*
X123840399Y-79703200D01*
X124563600Y-80426402D01*
X124563600Y-80426402D01*
G37*
X124563600Y-80426402D02*
X124563600Y-83642200D01*
X120545510Y-83642200D01*
X120727276Y-83545044D01*
X120865233Y-83244838D01*
X119660000Y-82039605D01*
X118454767Y-83244838D01*
X118592724Y-83545044D01*
X118785692Y-83642200D01*
X116620538Y-83642200D01*
X116609502Y-83605820D01*
X116550537Y-83495506D01*
X116471185Y-83398815D01*
X116374494Y-83319463D01*
X116264180Y-83260498D01*
X116144482Y-83224188D01*
X116020000Y-83211928D01*
X115605750Y-83215000D01*
X115447000Y-83373750D01*
X115447000Y-84298000D01*
X115467000Y-84298000D01*
X115467000Y-84552000D01*
X115447000Y-84552000D01*
X115447000Y-84572000D01*
X115193000Y-84572000D01*
X115193000Y-84552000D01*
X114544179Y-84552000D01*
X114398490Y-84507805D01*
X114268477Y-84495000D01*
X114268469Y-84495000D01*
X114225000Y-84490719D01*
X114181531Y-84495000D01*
X112649373Y-84495000D01*
X112594180Y-84465498D01*
X112474482Y-84429188D01*
X112350000Y-84416928D01*
X111673000Y-84416928D01*
X111673000Y-84303000D01*
X111693000Y-84303000D01*
X111693000Y-83628750D01*
X111947000Y-83628750D01*
X111947000Y-84303000D01*
X112826250Y-84303000D01*
X112985000Y-84144250D01*
X112988072Y-84105000D01*
X112975812Y-83980518D01*
X112939502Y-83860820D01*
X112933719Y-83850000D01*
X113981928Y-83850000D01*
X113985000Y-84139250D01*
X114143750Y-84298000D01*
X115193000Y-84298000D01*
X115193000Y-83373750D01*
X115034250Y-83215000D01*
X114620000Y-83211928D01*
X114495518Y-83224188D01*
X114375820Y-83260498D01*
X114265506Y-83319463D01*
X114168815Y-83398815D01*
X114089463Y-83495506D01*
X114030498Y-83605820D01*
X113994188Y-83725518D01*
X113981928Y-83850000D01*
X112933719Y-83850000D01*
X112880537Y-83750506D01*
X112801185Y-83653815D01*
X112704494Y-83574463D01*
X112594180Y-83515498D01*
X112474482Y-83479188D01*
X112350000Y-83466928D01*
X112105750Y-83470000D01*
X111947000Y-83628750D01*
X111693000Y-83628750D01*
X111534250Y-83470000D01*
X111290000Y-83466928D01*
X111165518Y-83479188D01*
X111125000Y-83491479D01*
X111125000Y-81908753D01*
X117665991Y-81908753D01*
X117713816Y-82296828D01*
X117836432Y-82668116D01*
X117974956Y-82927276D01*
X118275162Y-83065233D01*
X119480395Y-81860000D01*
X119839605Y-81860000D01*
X121044838Y-83065233D01*
X121345044Y-82927276D01*
X121520882Y-82578033D01*
X121625207Y-82201196D01*
X121654009Y-81811247D01*
X121606184Y-81423172D01*
X121483568Y-81051884D01*
X121345044Y-80792724D01*
X121044838Y-80654767D01*
X119839605Y-81860000D01*
X119480395Y-81860000D01*
X118275162Y-80654767D01*
X117974956Y-80792724D01*
X117799118Y-81141967D01*
X117694793Y-81518804D01*
X117665991Y-81908753D01*
X111125000Y-81908753D01*
X111125000Y-80475162D01*
X118454767Y-80475162D01*
X119660000Y-81680395D01*
X120865233Y-80475162D01*
X120727276Y-80174956D01*
X120378033Y-79999118D01*
X120001196Y-79894793D01*
X119611247Y-79865991D01*
X119223172Y-79913816D01*
X118851884Y-80036432D01*
X118592724Y-80174956D01*
X118454767Y-80475162D01*
X111125000Y-80475162D01*
X111125000Y-79703200D01*
X123840399Y-79703200D01*
X124563600Y-80426402D01*
G36*
X110413800Y-83525985D02*
G01*
X110394180Y-83515498D01*
X110274482Y-83479188D01*
X110150000Y-83466928D01*
X109905750Y-83470000D01*
X109747000Y-83628750D01*
X109747000Y-84303000D01*
X109767000Y-84303000D01*
X109767000Y-84495000D01*
X107078469Y-84495000D01*
X107035000Y-84490719D01*
X106991531Y-84495000D01*
X106991523Y-84495000D01*
X106861510Y-84507805D01*
X106715821Y-84552000D01*
X106067000Y-84552000D01*
X106067000Y-84572000D01*
X105813000Y-84572000D01*
X105813000Y-84552000D01*
X104763750Y-84552000D01*
X104605000Y-84710750D01*
X104601928Y-85000000D01*
X104608290Y-85064600D01*
X103240146Y-85064600D01*
X103240905Y-83850000D01*
X104601928Y-83850000D01*
X104605000Y-84139250D01*
X104763750Y-84298000D01*
X105813000Y-84298000D01*
X105813000Y-83373750D01*
X106067000Y-83373750D01*
X106067000Y-84298000D01*
X107116250Y-84298000D01*
X107275000Y-84139250D01*
X107275363Y-84105000D01*
X108451928Y-84105000D01*
X108455000Y-84144250D01*
X108613750Y-84303000D01*
X109493000Y-84303000D01*
X109493000Y-83628750D01*
X109334250Y-83470000D01*
X109090000Y-83466928D01*
X108965518Y-83479188D01*
X108845820Y-83515498D01*
X108735506Y-83574463D01*
X108638815Y-83653815D01*
X108559463Y-83750506D01*
X108500498Y-83860820D01*
X108464188Y-83980518D01*
X108451928Y-84105000D01*
X107275363Y-84105000D01*
X107278072Y-83850000D01*
X107265812Y-83725518D01*
X107229502Y-83605820D01*
X107170537Y-83495506D01*
X107091185Y-83398815D01*
X106994494Y-83319463D01*
X106884180Y-83260498D01*
X106764482Y-83224188D01*
X106640000Y-83211928D01*
X106225750Y-83215000D01*
X106067000Y-83373750D01*
X105813000Y-83373750D01*
X105654250Y-83215000D01*
X105240000Y-83211928D01*
X105115518Y-83224188D01*
X104995820Y-83260498D01*
X104885506Y-83319463D01*
X104788815Y-83398815D01*
X104709463Y-83495506D01*
X104650498Y-83605820D01*
X104614188Y-83725518D01*
X104601928Y-83850000D01*
X103240905Y-83850000D01*
X103243856Y-79133266D01*
X110413800Y-79108735D01*
X110413800Y-83525985D01*
X110413800Y-83525985D01*
G37*
X110413800Y-83525985D02*
X110394180Y-83515498D01*
X110274482Y-83479188D01*
X110150000Y-83466928D01*
X109905750Y-83470000D01*
X109747000Y-83628750D01*
X109747000Y-84303000D01*
X109767000Y-84303000D01*
X109767000Y-84495000D01*
X107078469Y-84495000D01*
X107035000Y-84490719D01*
X106991531Y-84495000D01*
X106991523Y-84495000D01*
X106861510Y-84507805D01*
X106715821Y-84552000D01*
X106067000Y-84552000D01*
X106067000Y-84572000D01*
X105813000Y-84572000D01*
X105813000Y-84552000D01*
X104763750Y-84552000D01*
X104605000Y-84710750D01*
X104601928Y-85000000D01*
X104608290Y-85064600D01*
X103240146Y-85064600D01*
X103240905Y-83850000D01*
X104601928Y-83850000D01*
X104605000Y-84139250D01*
X104763750Y-84298000D01*
X105813000Y-84298000D01*
X105813000Y-83373750D01*
X106067000Y-83373750D01*
X106067000Y-84298000D01*
X107116250Y-84298000D01*
X107275000Y-84139250D01*
X107275363Y-84105000D01*
X108451928Y-84105000D01*
X108455000Y-84144250D01*
X108613750Y-84303000D01*
X109493000Y-84303000D01*
X109493000Y-83628750D01*
X109334250Y-83470000D01*
X109090000Y-83466928D01*
X108965518Y-83479188D01*
X108845820Y-83515498D01*
X108735506Y-83574463D01*
X108638815Y-83653815D01*
X108559463Y-83750506D01*
X108500498Y-83860820D01*
X108464188Y-83980518D01*
X108451928Y-84105000D01*
X107275363Y-84105000D01*
X107278072Y-83850000D01*
X107265812Y-83725518D01*
X107229502Y-83605820D01*
X107170537Y-83495506D01*
X107091185Y-83398815D01*
X106994494Y-83319463D01*
X106884180Y-83260498D01*
X106764482Y-83224188D01*
X106640000Y-83211928D01*
X106225750Y-83215000D01*
X106067000Y-83373750D01*
X105813000Y-83373750D01*
X105654250Y-83215000D01*
X105240000Y-83211928D01*
X105115518Y-83224188D01*
X104995820Y-83260498D01*
X104885506Y-83319463D01*
X104788815Y-83398815D01*
X104709463Y-83495506D01*
X104650498Y-83605820D01*
X104614188Y-83725518D01*
X104601928Y-83850000D01*
X103240905Y-83850000D01*
X103243856Y-79133266D01*
X110413800Y-79108735D01*
X110413800Y-83525985D01*
G36*
X117683069Y-84356879D02*
G01*
X117671928Y-84470000D01*
X117675000Y-85534250D01*
X117833750Y-85693000D01*
X119533000Y-85693000D01*
X119533000Y-85673000D01*
X119787000Y-85673000D01*
X119787000Y-85693000D01*
X121486250Y-85693000D01*
X121645000Y-85534250D01*
X121648072Y-84470000D01*
X121638111Y-84368863D01*
X124563600Y-84377728D01*
X124563601Y-88777969D01*
X118832249Y-88858692D01*
X118625147Y-88651590D01*
X118600564Y-88621636D01*
X118481033Y-88523538D01*
X118344660Y-88450646D01*
X118196687Y-88405759D01*
X118081361Y-88394400D01*
X118081353Y-88394400D01*
X118042800Y-88390603D01*
X118004247Y-88394400D01*
X115285558Y-88394400D01*
X114574776Y-87683618D01*
X114620000Y-87688072D01*
X115034250Y-87685000D01*
X115193000Y-87526250D01*
X115193000Y-86602000D01*
X115447000Y-86602000D01*
X115447000Y-87526250D01*
X115605750Y-87685000D01*
X116020000Y-87688072D01*
X116144482Y-87675812D01*
X116264180Y-87639502D01*
X116374494Y-87580537D01*
X116471185Y-87501185D01*
X116550537Y-87404494D01*
X116609502Y-87294180D01*
X116645812Y-87174482D01*
X116646253Y-87170000D01*
X117671928Y-87170000D01*
X117684188Y-87294482D01*
X117720498Y-87414180D01*
X117779463Y-87524494D01*
X117858815Y-87621185D01*
X117955506Y-87700537D01*
X118065820Y-87759502D01*
X118185518Y-87795812D01*
X118310000Y-87808072D01*
X119374250Y-87805000D01*
X119533000Y-87646250D01*
X119533000Y-85947000D01*
X119787000Y-85947000D01*
X119787000Y-87646250D01*
X119945750Y-87805000D01*
X121010000Y-87808072D01*
X121134482Y-87795812D01*
X121254180Y-87759502D01*
X121364494Y-87700537D01*
X121461185Y-87621185D01*
X121540537Y-87524494D01*
X121599502Y-87414180D01*
X121635812Y-87294482D01*
X121648072Y-87170000D01*
X121645000Y-86105750D01*
X121486250Y-85947000D01*
X119787000Y-85947000D01*
X119533000Y-85947000D01*
X117833750Y-85947000D01*
X117675000Y-86105750D01*
X117671928Y-87170000D01*
X116646253Y-87170000D01*
X116658072Y-87050000D01*
X116655000Y-86760750D01*
X116496250Y-86602000D01*
X115447000Y-86602000D01*
X115193000Y-86602000D01*
X114143750Y-86602000D01*
X113985000Y-86760750D01*
X113981928Y-87050000D01*
X113986382Y-87095225D01*
X112988072Y-86096915D01*
X112988072Y-86005000D01*
X112975812Y-85880518D01*
X112968071Y-85855000D01*
X112975812Y-85829482D01*
X112988072Y-85705000D01*
X112985000Y-85665750D01*
X112826250Y-85507000D01*
X112744141Y-85507000D01*
X112704494Y-85474463D01*
X112594180Y-85415498D01*
X112477159Y-85380000D01*
X112594180Y-85344502D01*
X112649373Y-85315000D01*
X114190366Y-85315000D01*
X114242038Y-85377962D01*
X114248594Y-85383342D01*
X114168815Y-85448815D01*
X114089463Y-85545506D01*
X114030498Y-85655820D01*
X113994188Y-85775518D01*
X113981928Y-85900000D01*
X113985000Y-86189250D01*
X114143750Y-86348000D01*
X115193000Y-86348000D01*
X115193000Y-86328000D01*
X115447000Y-86328000D01*
X115447000Y-86348000D01*
X116496250Y-86348000D01*
X116655000Y-86189250D01*
X116658072Y-85900000D01*
X116645812Y-85775518D01*
X116609502Y-85655820D01*
X116550860Y-85546109D01*
X116552158Y-85546063D01*
X116576387Y-85540336D01*
X116599033Y-85529992D01*
X116619226Y-85515429D01*
X116636190Y-85497207D01*
X116649273Y-85476025D01*
X116657972Y-85452698D01*
X116662200Y-85420200D01*
X116662200Y-84353785D01*
X117683069Y-84356879D01*
X117683069Y-84356879D01*
G37*
X117683069Y-84356879D02*
X117671928Y-84470000D01*
X117675000Y-85534250D01*
X117833750Y-85693000D01*
X119533000Y-85693000D01*
X119533000Y-85673000D01*
X119787000Y-85673000D01*
X119787000Y-85693000D01*
X121486250Y-85693000D01*
X121645000Y-85534250D01*
X121648072Y-84470000D01*
X121638111Y-84368863D01*
X124563600Y-84377728D01*
X124563601Y-88777969D01*
X118832249Y-88858692D01*
X118625147Y-88651590D01*
X118600564Y-88621636D01*
X118481033Y-88523538D01*
X118344660Y-88450646D01*
X118196687Y-88405759D01*
X118081361Y-88394400D01*
X118081353Y-88394400D01*
X118042800Y-88390603D01*
X118004247Y-88394400D01*
X115285558Y-88394400D01*
X114574776Y-87683618D01*
X114620000Y-87688072D01*
X115034250Y-87685000D01*
X115193000Y-87526250D01*
X115193000Y-86602000D01*
X115447000Y-86602000D01*
X115447000Y-87526250D01*
X115605750Y-87685000D01*
X116020000Y-87688072D01*
X116144482Y-87675812D01*
X116264180Y-87639502D01*
X116374494Y-87580537D01*
X116471185Y-87501185D01*
X116550537Y-87404494D01*
X116609502Y-87294180D01*
X116645812Y-87174482D01*
X116646253Y-87170000D01*
X117671928Y-87170000D01*
X117684188Y-87294482D01*
X117720498Y-87414180D01*
X117779463Y-87524494D01*
X117858815Y-87621185D01*
X117955506Y-87700537D01*
X118065820Y-87759502D01*
X118185518Y-87795812D01*
X118310000Y-87808072D01*
X119374250Y-87805000D01*
X119533000Y-87646250D01*
X119533000Y-85947000D01*
X119787000Y-85947000D01*
X119787000Y-87646250D01*
X119945750Y-87805000D01*
X121010000Y-87808072D01*
X121134482Y-87795812D01*
X121254180Y-87759502D01*
X121364494Y-87700537D01*
X121461185Y-87621185D01*
X121540537Y-87524494D01*
X121599502Y-87414180D01*
X121635812Y-87294482D01*
X121648072Y-87170000D01*
X121645000Y-86105750D01*
X121486250Y-85947000D01*
X119787000Y-85947000D01*
X119533000Y-85947000D01*
X117833750Y-85947000D01*
X117675000Y-86105750D01*
X117671928Y-87170000D01*
X116646253Y-87170000D01*
X116658072Y-87050000D01*
X116655000Y-86760750D01*
X116496250Y-86602000D01*
X115447000Y-86602000D01*
X115193000Y-86602000D01*
X114143750Y-86602000D01*
X113985000Y-86760750D01*
X113981928Y-87050000D01*
X113986382Y-87095225D01*
X112988072Y-86096915D01*
X112988072Y-86005000D01*
X112975812Y-85880518D01*
X112968071Y-85855000D01*
X112975812Y-85829482D01*
X112988072Y-85705000D01*
X112985000Y-85665750D01*
X112826250Y-85507000D01*
X112744141Y-85507000D01*
X112704494Y-85474463D01*
X112594180Y-85415498D01*
X112477159Y-85380000D01*
X112594180Y-85344502D01*
X112649373Y-85315000D01*
X114190366Y-85315000D01*
X114242038Y-85377962D01*
X114248594Y-85383342D01*
X114168815Y-85448815D01*
X114089463Y-85545506D01*
X114030498Y-85655820D01*
X113994188Y-85775518D01*
X113981928Y-85900000D01*
X113985000Y-86189250D01*
X114143750Y-86348000D01*
X115193000Y-86348000D01*
X115193000Y-86328000D01*
X115447000Y-86328000D01*
X115447000Y-86348000D01*
X116496250Y-86348000D01*
X116655000Y-86189250D01*
X116658072Y-85900000D01*
X116645812Y-85775518D01*
X116609502Y-85655820D01*
X116550860Y-85546109D01*
X116552158Y-85546063D01*
X116576387Y-85540336D01*
X116599033Y-85529992D01*
X116619226Y-85515429D01*
X116636190Y-85497207D01*
X116649273Y-85476025D01*
X116657972Y-85452698D01*
X116662200Y-85420200D01*
X116662200Y-84353785D01*
X117683069Y-84356879D01*
G36*
X108845820Y-85344502D02*
G01*
X108962841Y-85380000D01*
X108845820Y-85415498D01*
X108790627Y-85445000D01*
X108633469Y-85445000D01*
X108590000Y-85440719D01*
X108546531Y-85445000D01*
X108546523Y-85445000D01*
X108416510Y-85457805D01*
X108289281Y-85496400D01*
X107162600Y-85496400D01*
X107162600Y-85310000D01*
X108781272Y-85310000D01*
X108845820Y-85344502D01*
X108845820Y-85344502D01*
G37*
X108845820Y-85344502D02*
X108962841Y-85380000D01*
X108845820Y-85415498D01*
X108790627Y-85445000D01*
X108633469Y-85445000D01*
X108590000Y-85440719D01*
X108546531Y-85445000D01*
X108546523Y-85445000D01*
X108416510Y-85457805D01*
X108289281Y-85496400D01*
X107162600Y-85496400D01*
X107162600Y-85310000D01*
X108781272Y-85310000D01*
X108845820Y-85344502D01*
G36*
X110935506Y-85285537D02*
G01*
X111045820Y-85344502D01*
X111162841Y-85380000D01*
X111045820Y-85415498D01*
X110935506Y-85474463D01*
X110908775Y-85496400D01*
X110531224Y-85496400D01*
X110504494Y-85474463D01*
X110394180Y-85415498D01*
X110277159Y-85380000D01*
X110394180Y-85344502D01*
X110504494Y-85285537D01*
X110526107Y-85267800D01*
X110913893Y-85267800D01*
X110935506Y-85285537D01*
X110935506Y-85285537D01*
G37*
X110935506Y-85285537D02*
X111045820Y-85344502D01*
X111162841Y-85380000D01*
X111045820Y-85415498D01*
X110935506Y-85474463D01*
X110908775Y-85496400D01*
X110531224Y-85496400D01*
X110504494Y-85474463D01*
X110394180Y-85415498D01*
X110277159Y-85380000D01*
X110394180Y-85344502D01*
X110504494Y-85285537D01*
X110526107Y-85267800D01*
X110913893Y-85267800D01*
X110935506Y-85285537D01*
M02*
