G04 #@! TF.GenerationSoftware,KiCad,Pcbnew,(5.1.4)-1*
G04 #@! TF.CreationDate,2019-09-20T01:57:43+03:00*
G04 #@! TF.ProjectId,Simple_BMS,53696d70-6c65-45f4-924d-532e6b696361,rev?*
G04 #@! TF.SameCoordinates,Original*
G04 #@! TF.FileFunction,Legend,Top*
G04 #@! TF.FilePolarity,Positive*
%FSLAX46Y46*%
G04 Gerber Fmt 4.6, Leading zero omitted, Abs format (unit mm)*
G04 Created by KiCad (PCBNEW (5.1.4)-1) date 2019-09-20 01:57:43*
%MOMM*%
%LPD*%
G04 APERTURE LIST*
%ADD10C,0.120000*%
%ADD11C,0.150000*%
%ADD12C,0.010000*%
G04 APERTURE END LIST*
D10*
X102641400Y-95072200D02*
X101041200Y-95072200D01*
X102641400Y-89992200D02*
X102920800Y-90017600D01*
X102641400Y-95072200D02*
X102895400Y-95072200D01*
X102641400Y-89992200D02*
X102641400Y-95072200D01*
D11*
X121097895Y-95473780D02*
X121097895Y-94473780D01*
X121335990Y-94473780D01*
X121478847Y-94521400D01*
X121574085Y-94616638D01*
X121621704Y-94711876D01*
X121669323Y-94902352D01*
X121669323Y-95045209D01*
X121621704Y-95235685D01*
X121574085Y-95330923D01*
X121478847Y-95426161D01*
X121335990Y-95473780D01*
X121097895Y-95473780D01*
X122288371Y-94473780D02*
X122478847Y-94473780D01*
X122574085Y-94521400D01*
X122669323Y-94616638D01*
X122716942Y-94807114D01*
X122716942Y-95140447D01*
X122669323Y-95330923D01*
X122574085Y-95426161D01*
X122478847Y-95473780D01*
X122288371Y-95473780D01*
X122193133Y-95426161D01*
X122097895Y-95330923D01*
X122050276Y-95140447D01*
X122050276Y-94807114D01*
X122097895Y-94616638D01*
X122193133Y-94521400D01*
X122288371Y-94473780D01*
X123145514Y-95473780D02*
X123145514Y-94473780D01*
X123716942Y-95473780D01*
X123716942Y-94473780D01*
X124193133Y-94949971D02*
X124526466Y-94949971D01*
X124669323Y-95473780D02*
X124193133Y-95473780D01*
X124193133Y-94473780D01*
X124669323Y-94473780D01*
X116733723Y-95378542D02*
X116686104Y-95426161D01*
X116543247Y-95473780D01*
X116448009Y-95473780D01*
X116305152Y-95426161D01*
X116209914Y-95330923D01*
X116162295Y-95235685D01*
X116114676Y-95045209D01*
X116114676Y-94902352D01*
X116162295Y-94711876D01*
X116209914Y-94616638D01*
X116305152Y-94521400D01*
X116448009Y-94473780D01*
X116543247Y-94473780D01*
X116686104Y-94521400D01*
X116733723Y-94569019D01*
X117733723Y-95473780D02*
X117400390Y-94997590D01*
X117162295Y-95473780D02*
X117162295Y-94473780D01*
X117543247Y-94473780D01*
X117638485Y-94521400D01*
X117686104Y-94569019D01*
X117733723Y-94664257D01*
X117733723Y-94807114D01*
X117686104Y-94902352D01*
X117638485Y-94949971D01*
X117543247Y-94997590D01*
X117162295Y-94997590D01*
X118686104Y-94521400D02*
X118590866Y-94473780D01*
X118448009Y-94473780D01*
X118305152Y-94521400D01*
X118209914Y-94616638D01*
X118162295Y-94711876D01*
X118114676Y-94902352D01*
X118114676Y-95045209D01*
X118162295Y-95235685D01*
X118209914Y-95330923D01*
X118305152Y-95426161D01*
X118448009Y-95473780D01*
X118543247Y-95473780D01*
X118686104Y-95426161D01*
X118733723Y-95378542D01*
X118733723Y-95045209D01*
X118543247Y-95045209D01*
X124764847Y-78532028D02*
X125526752Y-78532028D01*
X125145800Y-78912980D02*
X125145800Y-78151076D01*
X101155666Y-80005180D02*
X101155666Y-79005180D01*
X101536619Y-79005180D01*
X101631857Y-79052800D01*
X101679476Y-79100419D01*
X101727095Y-79195657D01*
X101727095Y-79338514D01*
X101679476Y-79433752D01*
X101631857Y-79481371D01*
X101536619Y-79528990D01*
X101155666Y-79528990D01*
X102060428Y-79005180D02*
X102298523Y-80005180D01*
X102489000Y-79290895D01*
X102679476Y-80005180D01*
X102917571Y-79005180D01*
X103869952Y-80005180D02*
X103536619Y-79528990D01*
X103298523Y-80005180D02*
X103298523Y-79005180D01*
X103679476Y-79005180D01*
X103774714Y-79052800D01*
X103822333Y-79100419D01*
X103869952Y-79195657D01*
X103869952Y-79338514D01*
X103822333Y-79433752D01*
X103774714Y-79481371D01*
X103679476Y-79528990D01*
X103298523Y-79528990D01*
X100076095Y-92057600D02*
X99980857Y-92009980D01*
X99838000Y-92009980D01*
X99695142Y-92057600D01*
X99599904Y-92152838D01*
X99552285Y-92248076D01*
X99504666Y-92438552D01*
X99504666Y-92581409D01*
X99552285Y-92771885D01*
X99599904Y-92867123D01*
X99695142Y-92962361D01*
X99838000Y-93009980D01*
X99933238Y-93009980D01*
X100076095Y-92962361D01*
X100123714Y-92914742D01*
X100123714Y-92581409D01*
X99933238Y-92581409D01*
X100552285Y-93009980D02*
X100552285Y-92009980D01*
X101123714Y-93009980D01*
X101123714Y-92009980D01*
X101599904Y-93009980D02*
X101599904Y-92009980D01*
X101838000Y-92009980D01*
X101980857Y-92057600D01*
X102076095Y-92152838D01*
X102123714Y-92248076D01*
X102171333Y-92438552D01*
X102171333Y-92581409D01*
X102123714Y-92771885D01*
X102076095Y-92867123D01*
X101980857Y-92962361D01*
X101838000Y-93009980D01*
X101599904Y-93009980D01*
X108772438Y-95353142D02*
X108820057Y-95400761D01*
X108772438Y-95448380D01*
X108724819Y-95400761D01*
X108772438Y-95353142D01*
X108772438Y-95448380D01*
X109201009Y-94543619D02*
X109248628Y-94496000D01*
X109343866Y-94448380D01*
X109581961Y-94448380D01*
X109677200Y-94496000D01*
X109724819Y-94543619D01*
X109772438Y-94638857D01*
X109772438Y-94734095D01*
X109724819Y-94876952D01*
X109153390Y-95448380D01*
X109772438Y-95448380D01*
X110153390Y-95162666D02*
X110629580Y-95162666D01*
X110058152Y-95448380D02*
X110391485Y-94448380D01*
X110724819Y-95448380D01*
X108797838Y-92813142D02*
X108845457Y-92860761D01*
X108797838Y-92908380D01*
X108750219Y-92860761D01*
X108797838Y-92813142D01*
X108797838Y-92908380D01*
X109750219Y-91908380D02*
X109274028Y-91908380D01*
X109226409Y-92384571D01*
X109274028Y-92336952D01*
X109369266Y-92289333D01*
X109607361Y-92289333D01*
X109702600Y-92336952D01*
X109750219Y-92384571D01*
X109797838Y-92479809D01*
X109797838Y-92717904D01*
X109750219Y-92813142D01*
X109702600Y-92860761D01*
X109607361Y-92908380D01*
X109369266Y-92908380D01*
X109274028Y-92860761D01*
X109226409Y-92813142D01*
X110178790Y-92622666D02*
X110654980Y-92622666D01*
X110083552Y-92908380D02*
X110416885Y-91908380D01*
X110750219Y-92908380D01*
X109483542Y-90368380D02*
X108912114Y-90368380D01*
X109197828Y-90368380D02*
X109197828Y-89368380D01*
X109102590Y-89511238D01*
X109007352Y-89606476D01*
X108912114Y-89654095D01*
X109864495Y-90082666D02*
X110340685Y-90082666D01*
X109769257Y-90368380D02*
X110102590Y-89368380D01*
X110435923Y-90368380D01*
D12*
G36*
X107114015Y-79594907D02*
G01*
X107136236Y-79599930D01*
X107176390Y-79612886D01*
X107210454Y-79630373D01*
X107241924Y-79654358D01*
X107255378Y-79667011D01*
X107287030Y-79704744D01*
X107310386Y-79746298D01*
X107325550Y-79790482D01*
X107332627Y-79836108D01*
X107331722Y-79881985D01*
X107322938Y-79926923D01*
X107306382Y-79969731D01*
X107282157Y-80009220D01*
X107250368Y-80044199D01*
X107220147Y-80067747D01*
X107175557Y-80091993D01*
X107128434Y-80107623D01*
X107080264Y-80114339D01*
X107032535Y-80111841D01*
X107016360Y-80108769D01*
X106968490Y-80092957D01*
X106925098Y-80068769D01*
X106887135Y-80037104D01*
X106855549Y-79998859D01*
X106831292Y-79954932D01*
X106819633Y-79922839D01*
X106815470Y-79902766D01*
X106812662Y-79877372D01*
X106811719Y-79853047D01*
X106816243Y-79801744D01*
X106829852Y-79754425D01*
X106852594Y-79710965D01*
X106884522Y-79671241D01*
X106888679Y-79667012D01*
X106919644Y-79639927D01*
X106952093Y-79619953D01*
X106989346Y-79605225D01*
X107008100Y-79599930D01*
X107045451Y-79592446D01*
X107079256Y-79590771D01*
X107114015Y-79594907D01*
X107114015Y-79594907D01*
G37*
X107114015Y-79594907D02*
X107136236Y-79599930D01*
X107176390Y-79612886D01*
X107210454Y-79630373D01*
X107241924Y-79654358D01*
X107255378Y-79667011D01*
X107287030Y-79704744D01*
X107310386Y-79746298D01*
X107325550Y-79790482D01*
X107332627Y-79836108D01*
X107331722Y-79881985D01*
X107322938Y-79926923D01*
X107306382Y-79969731D01*
X107282157Y-80009220D01*
X107250368Y-80044199D01*
X107220147Y-80067747D01*
X107175557Y-80091993D01*
X107128434Y-80107623D01*
X107080264Y-80114339D01*
X107032535Y-80111841D01*
X107016360Y-80108769D01*
X106968490Y-80092957D01*
X106925098Y-80068769D01*
X106887135Y-80037104D01*
X106855549Y-79998859D01*
X106831292Y-79954932D01*
X106819633Y-79922839D01*
X106815470Y-79902766D01*
X106812662Y-79877372D01*
X106811719Y-79853047D01*
X106816243Y-79801744D01*
X106829852Y-79754425D01*
X106852594Y-79710965D01*
X106884522Y-79671241D01*
X106888679Y-79667012D01*
X106919644Y-79639927D01*
X106952093Y-79619953D01*
X106989346Y-79605225D01*
X107008100Y-79599930D01*
X107045451Y-79592446D01*
X107079256Y-79590771D01*
X107114015Y-79594907D01*
G36*
X111987317Y-81012666D02*
G01*
X111987565Y-81130759D01*
X111987786Y-81239352D01*
X111987992Y-81338865D01*
X111988198Y-81429720D01*
X111988417Y-81512338D01*
X111988664Y-81587140D01*
X111988953Y-81654547D01*
X111989296Y-81714981D01*
X111989708Y-81768863D01*
X111990203Y-81816613D01*
X111990795Y-81858653D01*
X111991496Y-81895405D01*
X111992323Y-81927289D01*
X111993287Y-81954726D01*
X111994403Y-81978138D01*
X111995685Y-81997946D01*
X111997146Y-82014571D01*
X111998801Y-82028435D01*
X112000663Y-82039958D01*
X112002746Y-82049561D01*
X112005063Y-82057667D01*
X112007630Y-82064695D01*
X112010459Y-82071067D01*
X112013564Y-82077205D01*
X112016960Y-82083529D01*
X112020659Y-82090461D01*
X112022847Y-82094722D01*
X112040672Y-82130117D01*
X111549414Y-82130117D01*
X111549414Y-82078854D01*
X111549143Y-82057258D01*
X111548412Y-82039542D01*
X111547343Y-82027934D01*
X111546444Y-82024621D01*
X111541434Y-82026067D01*
X111530106Y-82032255D01*
X111514216Y-82042156D01*
X111498075Y-82052970D01*
X111449432Y-82084269D01*
X111403843Y-82108363D01*
X111358685Y-82126183D01*
X111311334Y-82138662D01*
X111259168Y-82146731D01*
X111225693Y-82149757D01*
X111200273Y-82151527D01*
X111178556Y-82152943D01*
X111162375Y-82153890D01*
X111153566Y-82154258D01*
X111152539Y-82154224D01*
X111146779Y-82153422D01*
X111133683Y-82151827D01*
X111115774Y-82149742D01*
X111110371Y-82149127D01*
X111043118Y-82136582D01*
X110978644Y-82114653D01*
X110917517Y-82083626D01*
X110860308Y-82043789D01*
X110808917Y-81996817D01*
X110762081Y-81942552D01*
X110722640Y-81884198D01*
X110689676Y-81820198D01*
X110662268Y-81748998D01*
X110661934Y-81747987D01*
X110650081Y-81709856D01*
X110640908Y-81674646D01*
X110634050Y-81639970D01*
X110629141Y-81603445D01*
X110625814Y-81562686D01*
X110623704Y-81515308D01*
X110623152Y-81495387D01*
X110623224Y-81454479D01*
X111098600Y-81454479D01*
X111098703Y-81496164D01*
X111099787Y-81531013D01*
X111101985Y-81560556D01*
X111105432Y-81586325D01*
X111110265Y-81609848D01*
X111116616Y-81632657D01*
X111120494Y-81644536D01*
X111140616Y-81692290D01*
X111165512Y-81731373D01*
X111195112Y-81761743D01*
X111229348Y-81783362D01*
X111268151Y-81796190D01*
X111311453Y-81800187D01*
X111359185Y-81795314D01*
X111375781Y-81791780D01*
X111399095Y-81784467D01*
X111427295Y-81772958D01*
X111457134Y-81758740D01*
X111485366Y-81743299D01*
X111496365Y-81736550D01*
X111524609Y-81718482D01*
X111524609Y-81055363D01*
X111487531Y-81034148D01*
X111437690Y-81009719D01*
X111389002Y-80993937D01*
X111342256Y-80986976D01*
X111298242Y-80989006D01*
X111288493Y-80990783D01*
X111250268Y-81002545D01*
X111217164Y-81021024D01*
X111188676Y-81046791D01*
X111164301Y-81080413D01*
X111143532Y-81122461D01*
X111125867Y-81173505D01*
X111125470Y-81174870D01*
X111118586Y-81199608D01*
X111113134Y-81222087D01*
X111108912Y-81244064D01*
X111105722Y-81267297D01*
X111103363Y-81293544D01*
X111101635Y-81324562D01*
X111100338Y-81362110D01*
X111099343Y-81404428D01*
X111098600Y-81454479D01*
X110623224Y-81454479D01*
X110623343Y-81387144D01*
X110629403Y-81286591D01*
X110641409Y-81193364D01*
X110659443Y-81107093D01*
X110683584Y-81027414D01*
X110713912Y-80953958D01*
X110750506Y-80886359D01*
X110758038Y-80874358D01*
X110777935Y-80847073D01*
X110803551Y-80817441D01*
X110832699Y-80787572D01*
X110863197Y-80759578D01*
X110892858Y-80735571D01*
X110919498Y-80717662D01*
X110921144Y-80716720D01*
X110965091Y-80695144D01*
X111013998Y-80676659D01*
X111063502Y-80662761D01*
X111096768Y-80656477D01*
X111124472Y-80654064D01*
X111159264Y-80653393D01*
X111198494Y-80654309D01*
X111239512Y-80656654D01*
X111279666Y-80660272D01*
X111316307Y-80665008D01*
X111346783Y-80670704D01*
X111349688Y-80671393D01*
X111398188Y-80687202D01*
X111446336Y-80710313D01*
X111482426Y-80733188D01*
X111496444Y-80742612D01*
X111507732Y-80749061D01*
X111513008Y-80750976D01*
X111516089Y-80748482D01*
X111518647Y-80740644D01*
X111520699Y-80726931D01*
X111522263Y-80706811D01*
X111523356Y-80679753D01*
X111523996Y-80645226D01*
X111524199Y-80602698D01*
X111523984Y-80551637D01*
X111523368Y-80491511D01*
X111522812Y-80450839D01*
X111521746Y-80383742D01*
X111520603Y-80325737D01*
X111519293Y-80275995D01*
X111517726Y-80233686D01*
X111515811Y-80197980D01*
X111513460Y-80168048D01*
X111510583Y-80143061D01*
X111507088Y-80122188D01*
X111502888Y-80104601D01*
X111497891Y-80089469D01*
X111492009Y-80075962D01*
X111485151Y-80063253D01*
X111479910Y-80054684D01*
X111465297Y-80031640D01*
X111985190Y-80031640D01*
X111987317Y-81012666D01*
X111987317Y-81012666D01*
G37*
X111987317Y-81012666D02*
X111987565Y-81130759D01*
X111987786Y-81239352D01*
X111987992Y-81338865D01*
X111988198Y-81429720D01*
X111988417Y-81512338D01*
X111988664Y-81587140D01*
X111988953Y-81654547D01*
X111989296Y-81714981D01*
X111989708Y-81768863D01*
X111990203Y-81816613D01*
X111990795Y-81858653D01*
X111991496Y-81895405D01*
X111992323Y-81927289D01*
X111993287Y-81954726D01*
X111994403Y-81978138D01*
X111995685Y-81997946D01*
X111997146Y-82014571D01*
X111998801Y-82028435D01*
X112000663Y-82039958D01*
X112002746Y-82049561D01*
X112005063Y-82057667D01*
X112007630Y-82064695D01*
X112010459Y-82071067D01*
X112013564Y-82077205D01*
X112016960Y-82083529D01*
X112020659Y-82090461D01*
X112022847Y-82094722D01*
X112040672Y-82130117D01*
X111549414Y-82130117D01*
X111549414Y-82078854D01*
X111549143Y-82057258D01*
X111548412Y-82039542D01*
X111547343Y-82027934D01*
X111546444Y-82024621D01*
X111541434Y-82026067D01*
X111530106Y-82032255D01*
X111514216Y-82042156D01*
X111498075Y-82052970D01*
X111449432Y-82084269D01*
X111403843Y-82108363D01*
X111358685Y-82126183D01*
X111311334Y-82138662D01*
X111259168Y-82146731D01*
X111225693Y-82149757D01*
X111200273Y-82151527D01*
X111178556Y-82152943D01*
X111162375Y-82153890D01*
X111153566Y-82154258D01*
X111152539Y-82154224D01*
X111146779Y-82153422D01*
X111133683Y-82151827D01*
X111115774Y-82149742D01*
X111110371Y-82149127D01*
X111043118Y-82136582D01*
X110978644Y-82114653D01*
X110917517Y-82083626D01*
X110860308Y-82043789D01*
X110808917Y-81996817D01*
X110762081Y-81942552D01*
X110722640Y-81884198D01*
X110689676Y-81820198D01*
X110662268Y-81748998D01*
X110661934Y-81747987D01*
X110650081Y-81709856D01*
X110640908Y-81674646D01*
X110634050Y-81639970D01*
X110629141Y-81603445D01*
X110625814Y-81562686D01*
X110623704Y-81515308D01*
X110623152Y-81495387D01*
X110623224Y-81454479D01*
X111098600Y-81454479D01*
X111098703Y-81496164D01*
X111099787Y-81531013D01*
X111101985Y-81560556D01*
X111105432Y-81586325D01*
X111110265Y-81609848D01*
X111116616Y-81632657D01*
X111120494Y-81644536D01*
X111140616Y-81692290D01*
X111165512Y-81731373D01*
X111195112Y-81761743D01*
X111229348Y-81783362D01*
X111268151Y-81796190D01*
X111311453Y-81800187D01*
X111359185Y-81795314D01*
X111375781Y-81791780D01*
X111399095Y-81784467D01*
X111427295Y-81772958D01*
X111457134Y-81758740D01*
X111485366Y-81743299D01*
X111496365Y-81736550D01*
X111524609Y-81718482D01*
X111524609Y-81055363D01*
X111487531Y-81034148D01*
X111437690Y-81009719D01*
X111389002Y-80993937D01*
X111342256Y-80986976D01*
X111298242Y-80989006D01*
X111288493Y-80990783D01*
X111250268Y-81002545D01*
X111217164Y-81021024D01*
X111188676Y-81046791D01*
X111164301Y-81080413D01*
X111143532Y-81122461D01*
X111125867Y-81173505D01*
X111125470Y-81174870D01*
X111118586Y-81199608D01*
X111113134Y-81222087D01*
X111108912Y-81244064D01*
X111105722Y-81267297D01*
X111103363Y-81293544D01*
X111101635Y-81324562D01*
X111100338Y-81362110D01*
X111099343Y-81404428D01*
X111098600Y-81454479D01*
X110623224Y-81454479D01*
X110623343Y-81387144D01*
X110629403Y-81286591D01*
X110641409Y-81193364D01*
X110659443Y-81107093D01*
X110683584Y-81027414D01*
X110713912Y-80953958D01*
X110750506Y-80886359D01*
X110758038Y-80874358D01*
X110777935Y-80847073D01*
X110803551Y-80817441D01*
X110832699Y-80787572D01*
X110863197Y-80759578D01*
X110892858Y-80735571D01*
X110919498Y-80717662D01*
X110921144Y-80716720D01*
X110965091Y-80695144D01*
X111013998Y-80676659D01*
X111063502Y-80662761D01*
X111096768Y-80656477D01*
X111124472Y-80654064D01*
X111159264Y-80653393D01*
X111198494Y-80654309D01*
X111239512Y-80656654D01*
X111279666Y-80660272D01*
X111316307Y-80665008D01*
X111346783Y-80670704D01*
X111349688Y-80671393D01*
X111398188Y-80687202D01*
X111446336Y-80710313D01*
X111482426Y-80733188D01*
X111496444Y-80742612D01*
X111507732Y-80749061D01*
X111513008Y-80750976D01*
X111516089Y-80748482D01*
X111518647Y-80740644D01*
X111520699Y-80726931D01*
X111522263Y-80706811D01*
X111523356Y-80679753D01*
X111523996Y-80645226D01*
X111524199Y-80602698D01*
X111523984Y-80551637D01*
X111523368Y-80491511D01*
X111522812Y-80450839D01*
X111521746Y-80383742D01*
X111520603Y-80325737D01*
X111519293Y-80275995D01*
X111517726Y-80233686D01*
X111515811Y-80197980D01*
X111513460Y-80168048D01*
X111510583Y-80143061D01*
X111507088Y-80122188D01*
X111502888Y-80104601D01*
X111497891Y-80089469D01*
X111492009Y-80075962D01*
X111485151Y-80063253D01*
X111479910Y-80054684D01*
X111465297Y-80031640D01*
X111985190Y-80031640D01*
X111987317Y-81012666D01*
G36*
X109880344Y-80650653D02*
G01*
X109916523Y-80652210D01*
X109996413Y-80659061D01*
X110068315Y-80671093D01*
X110132819Y-80688494D01*
X110190511Y-80711455D01*
X110241981Y-80740165D01*
X110282345Y-80770126D01*
X110324116Y-80811229D01*
X110359152Y-80858734D01*
X110387824Y-80913235D01*
X110410173Y-80974218D01*
X110415194Y-80991283D01*
X110419665Y-81007740D01*
X110423627Y-81024268D01*
X110427121Y-81041544D01*
X110430188Y-81060248D01*
X110432870Y-81081057D01*
X110435207Y-81104651D01*
X110437242Y-81131707D01*
X110439014Y-81162903D01*
X110440565Y-81198918D01*
X110441937Y-81240431D01*
X110443171Y-81288119D01*
X110444307Y-81342661D01*
X110445388Y-81404735D01*
X110446454Y-81475020D01*
X110447546Y-81554194D01*
X110448140Y-81599297D01*
X110448990Y-81660299D01*
X110449916Y-81719391D01*
X110450898Y-81775672D01*
X110451916Y-81828241D01*
X110452950Y-81876197D01*
X110453978Y-81918639D01*
X110454981Y-81954665D01*
X110455938Y-81983374D01*
X110456829Y-82003866D01*
X110457550Y-82014467D01*
X110460633Y-82039285D01*
X110464772Y-82058089D01*
X110471095Y-82074789D01*
X110479912Y-82091830D01*
X110497686Y-82123613D01*
X110426997Y-82126847D01*
X110404300Y-82127645D01*
X110373547Y-82128374D01*
X110336605Y-82129006D01*
X110295340Y-82129517D01*
X110251617Y-82129882D01*
X110207304Y-82130075D01*
X110187114Y-82130099D01*
X110017919Y-82130117D01*
X110014757Y-82096630D01*
X110013077Y-82076062D01*
X110011916Y-82056545D01*
X110011559Y-82044541D01*
X110010655Y-82032577D01*
X110008459Y-82026240D01*
X110007786Y-82025937D01*
X110002435Y-82028658D01*
X109990925Y-82036009D01*
X109975111Y-82046770D01*
X109961897Y-82056092D01*
X109902487Y-82093590D01*
X109842646Y-82121437D01*
X109782609Y-82139543D01*
X109726477Y-82147581D01*
X109691773Y-82149804D01*
X109664939Y-82151288D01*
X109643953Y-82152061D01*
X109626795Y-82152155D01*
X109611442Y-82151597D01*
X109595873Y-82150418D01*
X109587363Y-82149604D01*
X109541967Y-82142153D01*
X109493215Y-82129096D01*
X109444069Y-82111552D01*
X109397493Y-82090642D01*
X109356449Y-82067484D01*
X109339733Y-82056010D01*
X109289671Y-82013012D01*
X109246984Y-81963730D01*
X109211969Y-81908836D01*
X109184922Y-81849001D01*
X109166142Y-81784894D01*
X109155924Y-81717187D01*
X109154865Y-81662049D01*
X109595193Y-81662049D01*
X109595241Y-81688023D01*
X109597218Y-81711105D01*
X109599558Y-81722597D01*
X109610778Y-81746667D01*
X109629515Y-81770623D01*
X109653559Y-81792412D01*
X109680696Y-81809980D01*
X109704532Y-81820057D01*
X109720337Y-81823231D01*
X109743644Y-81825597D01*
X109772054Y-81826945D01*
X109786467Y-81827168D01*
X109846664Y-81827500D01*
X109887460Y-81807080D01*
X109923515Y-81785793D01*
X109954045Y-81760156D01*
X109957735Y-81756441D01*
X109987214Y-81726221D01*
X109985726Y-81610481D01*
X109985148Y-81572663D01*
X109984451Y-81543616D01*
X109983550Y-81522192D01*
X109982359Y-81507240D01*
X109980794Y-81497611D01*
X109978770Y-81492155D01*
X109976797Y-81490044D01*
X109967667Y-81487655D01*
X109950408Y-81486141D01*
X109926776Y-81485497D01*
X109898523Y-81485717D01*
X109867406Y-81486797D01*
X109835178Y-81488731D01*
X109813473Y-81490537D01*
X109764258Y-81497508D01*
X109722560Y-81508904D01*
X109686669Y-81525494D01*
X109654880Y-81548047D01*
X109628631Y-81573782D01*
X109615937Y-81589946D01*
X109605561Y-81606790D01*
X109600702Y-81617970D01*
X109597028Y-81637319D01*
X109595193Y-81662049D01*
X109154865Y-81662049D01*
X109154567Y-81646551D01*
X109154951Y-81638984D01*
X109162981Y-81573805D01*
X109179219Y-81513314D01*
X109203475Y-81458076D01*
X109230200Y-81415752D01*
X109244966Y-81397849D01*
X109264961Y-81376519D01*
X109287687Y-81354167D01*
X109310642Y-81333198D01*
X109331328Y-81316017D01*
X109341797Y-81308402D01*
X109392231Y-81277761D01*
X109445007Y-81251971D01*
X109501128Y-81230800D01*
X109561597Y-81214015D01*
X109627417Y-81201385D01*
X109699590Y-81192675D01*
X109779118Y-81187655D01*
X109867006Y-81186090D01*
X109869230Y-81186093D01*
X109997307Y-81186320D01*
X109994150Y-81165845D01*
X109983322Y-81113176D01*
X109968293Y-81069163D01*
X109948807Y-81033358D01*
X109924606Y-81005315D01*
X109895436Y-80984586D01*
X109888301Y-80980950D01*
X109873869Y-80974702D01*
X109859853Y-80970501D01*
X109843386Y-80967809D01*
X109821603Y-80966091D01*
X109804580Y-80965297D01*
X109767848Y-80964966D01*
X109731890Y-80967228D01*
X109695085Y-80972428D01*
X109655813Y-80980910D01*
X109612451Y-80993018D01*
X109563379Y-81009096D01*
X109513372Y-81027104D01*
X109490429Y-81035236D01*
X109470491Y-81041571D01*
X109455568Y-81045521D01*
X109447669Y-81046499D01*
X109447338Y-81046409D01*
X109442366Y-81040980D01*
X109434713Y-81028586D01*
X109425632Y-81011369D01*
X109420408Y-81000454D01*
X109410621Y-80978783D01*
X109399152Y-80952597D01*
X109386588Y-80923325D01*
X109373520Y-80892395D01*
X109360538Y-80861239D01*
X109348229Y-80831285D01*
X109337185Y-80803963D01*
X109327994Y-80780703D01*
X109321246Y-80762935D01*
X109317531Y-80752087D01*
X109316992Y-80749632D01*
X109320831Y-80744888D01*
X109332919Y-80740582D01*
X109352959Y-80736594D01*
X109367800Y-80733827D01*
X109390510Y-80729174D01*
X109419301Y-80723022D01*
X109452381Y-80715759D01*
X109487964Y-80707769D01*
X109515430Y-80701484D01*
X109575230Y-80687890D01*
X109626878Y-80676692D01*
X109671805Y-80667715D01*
X109711442Y-80660783D01*
X109747219Y-80655721D01*
X109780567Y-80652353D01*
X109812916Y-80650503D01*
X109845699Y-80649994D01*
X109880344Y-80650653D01*
X109880344Y-80650653D01*
G37*
X109880344Y-80650653D02*
X109916523Y-80652210D01*
X109996413Y-80659061D01*
X110068315Y-80671093D01*
X110132819Y-80688494D01*
X110190511Y-80711455D01*
X110241981Y-80740165D01*
X110282345Y-80770126D01*
X110324116Y-80811229D01*
X110359152Y-80858734D01*
X110387824Y-80913235D01*
X110410173Y-80974218D01*
X110415194Y-80991283D01*
X110419665Y-81007740D01*
X110423627Y-81024268D01*
X110427121Y-81041544D01*
X110430188Y-81060248D01*
X110432870Y-81081057D01*
X110435207Y-81104651D01*
X110437242Y-81131707D01*
X110439014Y-81162903D01*
X110440565Y-81198918D01*
X110441937Y-81240431D01*
X110443171Y-81288119D01*
X110444307Y-81342661D01*
X110445388Y-81404735D01*
X110446454Y-81475020D01*
X110447546Y-81554194D01*
X110448140Y-81599297D01*
X110448990Y-81660299D01*
X110449916Y-81719391D01*
X110450898Y-81775672D01*
X110451916Y-81828241D01*
X110452950Y-81876197D01*
X110453978Y-81918639D01*
X110454981Y-81954665D01*
X110455938Y-81983374D01*
X110456829Y-82003866D01*
X110457550Y-82014467D01*
X110460633Y-82039285D01*
X110464772Y-82058089D01*
X110471095Y-82074789D01*
X110479912Y-82091830D01*
X110497686Y-82123613D01*
X110426997Y-82126847D01*
X110404300Y-82127645D01*
X110373547Y-82128374D01*
X110336605Y-82129006D01*
X110295340Y-82129517D01*
X110251617Y-82129882D01*
X110207304Y-82130075D01*
X110187114Y-82130099D01*
X110017919Y-82130117D01*
X110014757Y-82096630D01*
X110013077Y-82076062D01*
X110011916Y-82056545D01*
X110011559Y-82044541D01*
X110010655Y-82032577D01*
X110008459Y-82026240D01*
X110007786Y-82025937D01*
X110002435Y-82028658D01*
X109990925Y-82036009D01*
X109975111Y-82046770D01*
X109961897Y-82056092D01*
X109902487Y-82093590D01*
X109842646Y-82121437D01*
X109782609Y-82139543D01*
X109726477Y-82147581D01*
X109691773Y-82149804D01*
X109664939Y-82151288D01*
X109643953Y-82152061D01*
X109626795Y-82152155D01*
X109611442Y-82151597D01*
X109595873Y-82150418D01*
X109587363Y-82149604D01*
X109541967Y-82142153D01*
X109493215Y-82129096D01*
X109444069Y-82111552D01*
X109397493Y-82090642D01*
X109356449Y-82067484D01*
X109339733Y-82056010D01*
X109289671Y-82013012D01*
X109246984Y-81963730D01*
X109211969Y-81908836D01*
X109184922Y-81849001D01*
X109166142Y-81784894D01*
X109155924Y-81717187D01*
X109154865Y-81662049D01*
X109595193Y-81662049D01*
X109595241Y-81688023D01*
X109597218Y-81711105D01*
X109599558Y-81722597D01*
X109610778Y-81746667D01*
X109629515Y-81770623D01*
X109653559Y-81792412D01*
X109680696Y-81809980D01*
X109704532Y-81820057D01*
X109720337Y-81823231D01*
X109743644Y-81825597D01*
X109772054Y-81826945D01*
X109786467Y-81827168D01*
X109846664Y-81827500D01*
X109887460Y-81807080D01*
X109923515Y-81785793D01*
X109954045Y-81760156D01*
X109957735Y-81756441D01*
X109987214Y-81726221D01*
X109985726Y-81610481D01*
X109985148Y-81572663D01*
X109984451Y-81543616D01*
X109983550Y-81522192D01*
X109982359Y-81507240D01*
X109980794Y-81497611D01*
X109978770Y-81492155D01*
X109976797Y-81490044D01*
X109967667Y-81487655D01*
X109950408Y-81486141D01*
X109926776Y-81485497D01*
X109898523Y-81485717D01*
X109867406Y-81486797D01*
X109835178Y-81488731D01*
X109813473Y-81490537D01*
X109764258Y-81497508D01*
X109722560Y-81508904D01*
X109686669Y-81525494D01*
X109654880Y-81548047D01*
X109628631Y-81573782D01*
X109615937Y-81589946D01*
X109605561Y-81606790D01*
X109600702Y-81617970D01*
X109597028Y-81637319D01*
X109595193Y-81662049D01*
X109154865Y-81662049D01*
X109154567Y-81646551D01*
X109154951Y-81638984D01*
X109162981Y-81573805D01*
X109179219Y-81513314D01*
X109203475Y-81458076D01*
X109230200Y-81415752D01*
X109244966Y-81397849D01*
X109264961Y-81376519D01*
X109287687Y-81354167D01*
X109310642Y-81333198D01*
X109331328Y-81316017D01*
X109341797Y-81308402D01*
X109392231Y-81277761D01*
X109445007Y-81251971D01*
X109501128Y-81230800D01*
X109561597Y-81214015D01*
X109627417Y-81201385D01*
X109699590Y-81192675D01*
X109779118Y-81187655D01*
X109867006Y-81186090D01*
X109869230Y-81186093D01*
X109997307Y-81186320D01*
X109994150Y-81165845D01*
X109983322Y-81113176D01*
X109968293Y-81069163D01*
X109948807Y-81033358D01*
X109924606Y-81005315D01*
X109895436Y-80984586D01*
X109888301Y-80980950D01*
X109873869Y-80974702D01*
X109859853Y-80970501D01*
X109843386Y-80967809D01*
X109821603Y-80966091D01*
X109804580Y-80965297D01*
X109767848Y-80964966D01*
X109731890Y-80967228D01*
X109695085Y-80972428D01*
X109655813Y-80980910D01*
X109612451Y-80993018D01*
X109563379Y-81009096D01*
X109513372Y-81027104D01*
X109490429Y-81035236D01*
X109470491Y-81041571D01*
X109455568Y-81045521D01*
X109447669Y-81046499D01*
X109447338Y-81046409D01*
X109442366Y-81040980D01*
X109434713Y-81028586D01*
X109425632Y-81011369D01*
X109420408Y-81000454D01*
X109410621Y-80978783D01*
X109399152Y-80952597D01*
X109386588Y-80923325D01*
X109373520Y-80892395D01*
X109360538Y-80861239D01*
X109348229Y-80831285D01*
X109337185Y-80803963D01*
X109327994Y-80780703D01*
X109321246Y-80762935D01*
X109317531Y-80752087D01*
X109316992Y-80749632D01*
X109320831Y-80744888D01*
X109332919Y-80740582D01*
X109352959Y-80736594D01*
X109367800Y-80733827D01*
X109390510Y-80729174D01*
X109419301Y-80723022D01*
X109452381Y-80715759D01*
X109487964Y-80707769D01*
X109515430Y-80701484D01*
X109575230Y-80687890D01*
X109626878Y-80676692D01*
X109671805Y-80667715D01*
X109711442Y-80660783D01*
X109747219Y-80655721D01*
X109780567Y-80652353D01*
X109812916Y-80650503D01*
X109845699Y-80649994D01*
X109880344Y-80650653D01*
G36*
X108605711Y-80124961D02*
G01*
X108615020Y-80125827D01*
X108661975Y-80131493D01*
X108706955Y-80138982D01*
X108751358Y-80148734D01*
X108796584Y-80161192D01*
X108844031Y-80176796D01*
X108895100Y-80195989D01*
X108951189Y-80219212D01*
X109013697Y-80246906D01*
X109046615Y-80262020D01*
X109069229Y-80272293D01*
X109088877Y-80280831D01*
X109103677Y-80286842D01*
X109111744Y-80289537D01*
X109112347Y-80289609D01*
X109118073Y-80293512D01*
X109118555Y-80295957D01*
X109115923Y-80301606D01*
X109108513Y-80314385D01*
X109097047Y-80333169D01*
X109082252Y-80356833D01*
X109064852Y-80384252D01*
X109045571Y-80414301D01*
X109025135Y-80445855D01*
X109004269Y-80477788D01*
X108983696Y-80508976D01*
X108964143Y-80538293D01*
X108946333Y-80564615D01*
X108933250Y-80583589D01*
X108917729Y-80604900D01*
X108905418Y-80619878D01*
X108897021Y-80627719D01*
X108893856Y-80628533D01*
X108887911Y-80624246D01*
X108875929Y-80615174D01*
X108859677Y-80602666D01*
X108841708Y-80588688D01*
X108810478Y-80566319D01*
X108776235Y-80545252D01*
X108741547Y-80526849D01*
X108708983Y-80512472D01*
X108681110Y-80503483D01*
X108681036Y-80503465D01*
X108662533Y-80500673D01*
X108636782Y-80498893D01*
X108606404Y-80498096D01*
X108574019Y-80498255D01*
X108542245Y-80499342D01*
X108513704Y-80501330D01*
X108491016Y-80504190D01*
X108484258Y-80505551D01*
X108432677Y-80522730D01*
X108384607Y-80548917D01*
X108340319Y-80583740D01*
X108300087Y-80626828D01*
X108264181Y-80677811D01*
X108232874Y-80736317D01*
X108206438Y-80801976D01*
X108185146Y-80874415D01*
X108173334Y-80929570D01*
X108170283Y-80951807D01*
X108167621Y-80982101D01*
X108165387Y-81018596D01*
X108163621Y-81059432D01*
X108162362Y-81102751D01*
X108161650Y-81146697D01*
X108161524Y-81189410D01*
X108162024Y-81229032D01*
X108163189Y-81263706D01*
X108165059Y-81291574D01*
X108165544Y-81296379D01*
X108178245Y-81379626D01*
X108197477Y-81455493D01*
X108223316Y-81524141D01*
X108255844Y-81585731D01*
X108295138Y-81640422D01*
X108341278Y-81688374D01*
X108371934Y-81713714D01*
X108420698Y-81744671D01*
X108473230Y-81766797D01*
X108528650Y-81780025D01*
X108586077Y-81784289D01*
X108644631Y-81779523D01*
X108703432Y-81765661D01*
X108760951Y-81742947D01*
X108827065Y-81706277D01*
X108889663Y-81661481D01*
X108906169Y-81647744D01*
X108939350Y-81619201D01*
X108978417Y-81682423D01*
X109005873Y-81727072D01*
X109032165Y-81770247D01*
X109056808Y-81811120D01*
X109079318Y-81848868D01*
X109099211Y-81882663D01*
X109116001Y-81911681D01*
X109129204Y-81935094D01*
X109138336Y-81952079D01*
X109142912Y-81961808D01*
X109143359Y-81963521D01*
X109142572Y-81967361D01*
X109139611Y-81971578D01*
X109133583Y-81976698D01*
X109123592Y-81983245D01*
X109108742Y-81991745D01*
X109088137Y-82002722D01*
X109060884Y-82016701D01*
X109026085Y-82034207D01*
X109003817Y-82045324D01*
X108953299Y-82069905D01*
X108909117Y-82089880D01*
X108869196Y-82105901D01*
X108831460Y-82118619D01*
X108793832Y-82128686D01*
X108754235Y-82136756D01*
X108710593Y-82143479D01*
X108678423Y-82147512D01*
X108633679Y-82151397D01*
X108582953Y-82153561D01*
X108530042Y-82153970D01*
X108478741Y-82152596D01*
X108433989Y-82149516D01*
X108355215Y-82137372D01*
X108276911Y-82116026D01*
X108198140Y-82085211D01*
X108181302Y-82077441D01*
X108103015Y-82034934D01*
X108030173Y-81984135D01*
X107962778Y-81925045D01*
X107900834Y-81857668D01*
X107844344Y-81782007D01*
X107793312Y-81698066D01*
X107776464Y-81666189D01*
X107741063Y-81586781D01*
X107712156Y-81501058D01*
X107689823Y-81410279D01*
X107674146Y-81315699D01*
X107665205Y-81218575D01*
X107663082Y-81120165D01*
X107667856Y-81021724D01*
X107679609Y-80924511D01*
X107698423Y-80829781D01*
X107718052Y-80758418D01*
X107749990Y-80672376D01*
X107790992Y-80589494D01*
X107840503Y-80510511D01*
X107897965Y-80436168D01*
X107962820Y-80367205D01*
X108034512Y-80304360D01*
X108091650Y-80262222D01*
X108155876Y-80223484D01*
X108226225Y-80190326D01*
X108300866Y-80163227D01*
X108377966Y-80142664D01*
X108455694Y-80129113D01*
X108532220Y-80123053D01*
X108605711Y-80124961D01*
X108605711Y-80124961D01*
G37*
X108605711Y-80124961D02*
X108615020Y-80125827D01*
X108661975Y-80131493D01*
X108706955Y-80138982D01*
X108751358Y-80148734D01*
X108796584Y-80161192D01*
X108844031Y-80176796D01*
X108895100Y-80195989D01*
X108951189Y-80219212D01*
X109013697Y-80246906D01*
X109046615Y-80262020D01*
X109069229Y-80272293D01*
X109088877Y-80280831D01*
X109103677Y-80286842D01*
X109111744Y-80289537D01*
X109112347Y-80289609D01*
X109118073Y-80293512D01*
X109118555Y-80295957D01*
X109115923Y-80301606D01*
X109108513Y-80314385D01*
X109097047Y-80333169D01*
X109082252Y-80356833D01*
X109064852Y-80384252D01*
X109045571Y-80414301D01*
X109025135Y-80445855D01*
X109004269Y-80477788D01*
X108983696Y-80508976D01*
X108964143Y-80538293D01*
X108946333Y-80564615D01*
X108933250Y-80583589D01*
X108917729Y-80604900D01*
X108905418Y-80619878D01*
X108897021Y-80627719D01*
X108893856Y-80628533D01*
X108887911Y-80624246D01*
X108875929Y-80615174D01*
X108859677Y-80602666D01*
X108841708Y-80588688D01*
X108810478Y-80566319D01*
X108776235Y-80545252D01*
X108741547Y-80526849D01*
X108708983Y-80512472D01*
X108681110Y-80503483D01*
X108681036Y-80503465D01*
X108662533Y-80500673D01*
X108636782Y-80498893D01*
X108606404Y-80498096D01*
X108574019Y-80498255D01*
X108542245Y-80499342D01*
X108513704Y-80501330D01*
X108491016Y-80504190D01*
X108484258Y-80505551D01*
X108432677Y-80522730D01*
X108384607Y-80548917D01*
X108340319Y-80583740D01*
X108300087Y-80626828D01*
X108264181Y-80677811D01*
X108232874Y-80736317D01*
X108206438Y-80801976D01*
X108185146Y-80874415D01*
X108173334Y-80929570D01*
X108170283Y-80951807D01*
X108167621Y-80982101D01*
X108165387Y-81018596D01*
X108163621Y-81059432D01*
X108162362Y-81102751D01*
X108161650Y-81146697D01*
X108161524Y-81189410D01*
X108162024Y-81229032D01*
X108163189Y-81263706D01*
X108165059Y-81291574D01*
X108165544Y-81296379D01*
X108178245Y-81379626D01*
X108197477Y-81455493D01*
X108223316Y-81524141D01*
X108255844Y-81585731D01*
X108295138Y-81640422D01*
X108341278Y-81688374D01*
X108371934Y-81713714D01*
X108420698Y-81744671D01*
X108473230Y-81766797D01*
X108528650Y-81780025D01*
X108586077Y-81784289D01*
X108644631Y-81779523D01*
X108703432Y-81765661D01*
X108760951Y-81742947D01*
X108827065Y-81706277D01*
X108889663Y-81661481D01*
X108906169Y-81647744D01*
X108939350Y-81619201D01*
X108978417Y-81682423D01*
X109005873Y-81727072D01*
X109032165Y-81770247D01*
X109056808Y-81811120D01*
X109079318Y-81848868D01*
X109099211Y-81882663D01*
X109116001Y-81911681D01*
X109129204Y-81935094D01*
X109138336Y-81952079D01*
X109142912Y-81961808D01*
X109143359Y-81963521D01*
X109142572Y-81967361D01*
X109139611Y-81971578D01*
X109133583Y-81976698D01*
X109123592Y-81983245D01*
X109108742Y-81991745D01*
X109088137Y-82002722D01*
X109060884Y-82016701D01*
X109026085Y-82034207D01*
X109003817Y-82045324D01*
X108953299Y-82069905D01*
X108909117Y-82089880D01*
X108869196Y-82105901D01*
X108831460Y-82118619D01*
X108793832Y-82128686D01*
X108754235Y-82136756D01*
X108710593Y-82143479D01*
X108678423Y-82147512D01*
X108633679Y-82151397D01*
X108582953Y-82153561D01*
X108530042Y-82153970D01*
X108478741Y-82152596D01*
X108433989Y-82149516D01*
X108355215Y-82137372D01*
X108276911Y-82116026D01*
X108198140Y-82085211D01*
X108181302Y-82077441D01*
X108103015Y-82034934D01*
X108030173Y-81984135D01*
X107962778Y-81925045D01*
X107900834Y-81857668D01*
X107844344Y-81782007D01*
X107793312Y-81698066D01*
X107776464Y-81666189D01*
X107741063Y-81586781D01*
X107712156Y-81501058D01*
X107689823Y-81410279D01*
X107674146Y-81315699D01*
X107665205Y-81218575D01*
X107663082Y-81120165D01*
X107667856Y-81021724D01*
X107679609Y-80924511D01*
X107698423Y-80829781D01*
X107718052Y-80758418D01*
X107749990Y-80672376D01*
X107790992Y-80589494D01*
X107840503Y-80510511D01*
X107897965Y-80436168D01*
X107962820Y-80367205D01*
X108034512Y-80304360D01*
X108091650Y-80262222D01*
X108155876Y-80223484D01*
X108226225Y-80190326D01*
X108300866Y-80163227D01*
X108377966Y-80142664D01*
X108455694Y-80129113D01*
X108532220Y-80123053D01*
X108605711Y-80124961D01*
G36*
X106724065Y-79858687D02*
G01*
X106727652Y-79900957D01*
X106733567Y-79936466D01*
X106742535Y-79968242D01*
X106755282Y-79999315D01*
X106760133Y-80009316D01*
X106790302Y-80058788D01*
X106827885Y-80102043D01*
X106872151Y-80138535D01*
X106922371Y-80167717D01*
X106977816Y-80189043D01*
X107011187Y-80197414D01*
X107033216Y-80201320D01*
X107054859Y-80204133D01*
X107071587Y-80205271D01*
X107072168Y-80205273D01*
X107116817Y-80200995D01*
X107163701Y-80188884D01*
X107210705Y-80170020D01*
X107255711Y-80145487D01*
X107296603Y-80116366D01*
X107331263Y-80083740D01*
X107346743Y-80064912D01*
X107372589Y-80025692D01*
X107391621Y-79986342D01*
X107404670Y-79944396D01*
X107412570Y-79897388D01*
X107415402Y-79861728D01*
X107418413Y-79803437D01*
X107443864Y-79803437D01*
X107462516Y-79804887D01*
X107478247Y-79810236D01*
X107494351Y-79820983D01*
X107507490Y-79832411D01*
X107521133Y-79844981D01*
X107520552Y-80904453D01*
X107520480Y-81009522D01*
X107520380Y-81113755D01*
X107520254Y-81216570D01*
X107520104Y-81317383D01*
X107519931Y-81415612D01*
X107519737Y-81510676D01*
X107519524Y-81601992D01*
X107519293Y-81688978D01*
X107519046Y-81771051D01*
X107518785Y-81847630D01*
X107518512Y-81918131D01*
X107518228Y-81981972D01*
X107517935Y-82038572D01*
X107517635Y-82087348D01*
X107517329Y-82127717D01*
X107517020Y-82159097D01*
X107516832Y-82173419D01*
X107513691Y-82382913D01*
X107500175Y-82396422D01*
X107492580Y-82403011D01*
X107483962Y-82407428D01*
X107471803Y-82410414D01*
X107453583Y-82412708D01*
X107440644Y-82413893D01*
X107430599Y-82414334D01*
X107411174Y-82414766D01*
X107382911Y-82415188D01*
X107346351Y-82415600D01*
X107302037Y-82415999D01*
X107250509Y-82416385D01*
X107192311Y-82416758D01*
X107127984Y-82417116D01*
X107058069Y-82417459D01*
X106983109Y-82417785D01*
X106903645Y-82418094D01*
X106820219Y-82418384D01*
X106733373Y-82418655D01*
X106643648Y-82418906D01*
X106551588Y-82419136D01*
X106457732Y-82419343D01*
X106362624Y-82419528D01*
X106266804Y-82419688D01*
X106170816Y-82419824D01*
X106075200Y-82419934D01*
X105980498Y-82420017D01*
X105887252Y-82420073D01*
X105796005Y-82420100D01*
X105707297Y-82420097D01*
X105621671Y-82420064D01*
X105539669Y-82420000D01*
X105461831Y-82419903D01*
X105388701Y-82419773D01*
X105320820Y-82419609D01*
X105258729Y-82419410D01*
X105202971Y-82419175D01*
X105154087Y-82418903D01*
X105112620Y-82418593D01*
X105079110Y-82418244D01*
X105060508Y-82417974D01*
X105006059Y-82416982D01*
X104960678Y-82415979D01*
X104923509Y-82414878D01*
X104893698Y-82413594D01*
X104870391Y-82412042D01*
X104852733Y-82410136D01*
X104839869Y-82407791D01*
X104830946Y-82404922D01*
X104825108Y-82401443D01*
X104821501Y-82397270D01*
X104819867Y-82393940D01*
X104818261Y-82385963D01*
X104816304Y-82370306D01*
X104814236Y-82349193D01*
X104812301Y-82324849D01*
X104812212Y-82323593D01*
X104811746Y-82311947D01*
X104811305Y-82291057D01*
X104810890Y-82261459D01*
X104810501Y-82223685D01*
X104810137Y-82178270D01*
X104809800Y-82125747D01*
X104809797Y-82125156D01*
X104980153Y-82125156D01*
X105220008Y-82125136D01*
X105270482Y-82125063D01*
X105320062Y-82124864D01*
X105367428Y-82124552D01*
X105411260Y-82124142D01*
X105450238Y-82123646D01*
X105483042Y-82123081D01*
X105508353Y-82122459D01*
X105522854Y-82121903D01*
X105585845Y-82118690D01*
X105566363Y-82080995D01*
X105555182Y-82057906D01*
X105546488Y-82035941D01*
X105539870Y-82013143D01*
X105534919Y-81987554D01*
X105531226Y-81957215D01*
X105528380Y-81920169D01*
X105526812Y-81891992D01*
X105525835Y-81867632D01*
X105524986Y-81836747D01*
X105524265Y-81800492D01*
X105523674Y-81760023D01*
X105523214Y-81716497D01*
X105522887Y-81671068D01*
X105522692Y-81624892D01*
X105522633Y-81579126D01*
X105522708Y-81534924D01*
X105522921Y-81493442D01*
X105523271Y-81455836D01*
X105523760Y-81423262D01*
X105524389Y-81396876D01*
X105525159Y-81377832D01*
X105526071Y-81367287D01*
X105526302Y-81366183D01*
X105527990Y-81362337D01*
X105530775Y-81361603D01*
X105535508Y-81364853D01*
X105543040Y-81372958D01*
X105554223Y-81386790D01*
X105569906Y-81407220D01*
X105582000Y-81423234D01*
X105605313Y-81454360D01*
X105631811Y-81490026D01*
X105660736Y-81529187D01*
X105691330Y-81570802D01*
X105722834Y-81613826D01*
X105754489Y-81657217D01*
X105785537Y-81699930D01*
X105815221Y-81740922D01*
X105842780Y-81779150D01*
X105867457Y-81813571D01*
X105888493Y-81843141D01*
X105905130Y-81866816D01*
X105916523Y-81883425D01*
X105945233Y-81928166D01*
X105967464Y-81967357D01*
X105983790Y-82002424D01*
X105994786Y-82034795D01*
X106001025Y-82065895D01*
X106003082Y-82097153D01*
X106003086Y-82098548D01*
X106003086Y-82125156D01*
X106670066Y-82125156D01*
X106658675Y-82113453D01*
X106791550Y-82113453D01*
X106791748Y-82117834D01*
X106795918Y-82120163D01*
X106798424Y-82120941D01*
X106806017Y-82121739D01*
X106822338Y-82122445D01*
X106846193Y-82123055D01*
X106876389Y-82123567D01*
X106911732Y-82123979D01*
X106951029Y-82124288D01*
X106993086Y-82124492D01*
X107036709Y-82124588D01*
X107080705Y-82124575D01*
X107123881Y-82124450D01*
X107165042Y-82124210D01*
X107202995Y-82123854D01*
X107236548Y-82123378D01*
X107264505Y-82122781D01*
X107285673Y-82122060D01*
X107288831Y-82121909D01*
X107351705Y-82118702D01*
X107328518Y-82076040D01*
X107305332Y-82033379D01*
X107303622Y-81351923D01*
X107301912Y-80670466D01*
X107049709Y-80672353D01*
X107000594Y-80672787D01*
X106954499Y-80673325D01*
X106912374Y-80673946D01*
X106875168Y-80674629D01*
X106843831Y-80675356D01*
X106819310Y-80676105D01*
X106802555Y-80676856D01*
X106794516Y-80677590D01*
X106793961Y-80677783D01*
X106794453Y-80683500D01*
X106798809Y-80695716D01*
X106806183Y-80712200D01*
X106809749Y-80719413D01*
X106829082Y-80757498D01*
X106830494Y-81378075D01*
X106830679Y-81477765D01*
X106830766Y-81570033D01*
X106830756Y-81654641D01*
X106830650Y-81731350D01*
X106830450Y-81799919D01*
X106830156Y-81860112D01*
X106829770Y-81911688D01*
X106829294Y-81954408D01*
X106828728Y-81988034D01*
X106828075Y-82012327D01*
X106827334Y-82027047D01*
X106826964Y-82030541D01*
X106816616Y-82067416D01*
X106804817Y-82090072D01*
X106795760Y-82104904D01*
X106791550Y-82113453D01*
X106658675Y-82113453D01*
X106637470Y-82091670D01*
X106619190Y-82072694D01*
X106601804Y-82054156D01*
X106584778Y-82035372D01*
X106567578Y-82015660D01*
X106549670Y-81994335D01*
X106530519Y-81970716D01*
X106509592Y-81944118D01*
X106486355Y-81913860D01*
X106460272Y-81879257D01*
X106430811Y-81839627D01*
X106397436Y-81794287D01*
X106359614Y-81742554D01*
X106316811Y-81683744D01*
X106295113Y-81653867D01*
X106231650Y-81566320D01*
X106174018Y-81486569D01*
X106122109Y-81414461D01*
X106075818Y-81349843D01*
X106035036Y-81292562D01*
X105999656Y-81242465D01*
X105969572Y-81199399D01*
X105944676Y-81163211D01*
X105924862Y-81133748D01*
X105910021Y-81110858D01*
X105900048Y-81094387D01*
X105894834Y-81084182D01*
X105893945Y-81080931D01*
X105894154Y-81078328D01*
X105895058Y-81075171D01*
X105897073Y-81070918D01*
X105900617Y-81065025D01*
X105906107Y-81056950D01*
X105913958Y-81046150D01*
X105924587Y-81032081D01*
X105938412Y-81014201D01*
X105955848Y-80991966D01*
X105977313Y-80964834D01*
X106003223Y-80932262D01*
X106033994Y-80893707D01*
X106070045Y-80848625D01*
X106111790Y-80796475D01*
X106122402Y-80783222D01*
X106183855Y-80706542D01*
X106239536Y-80637214D01*
X106289816Y-80574800D01*
X106335067Y-80518863D01*
X106375661Y-80468964D01*
X106411970Y-80424664D01*
X106444365Y-80385527D01*
X106473217Y-80351112D01*
X106498899Y-80320984D01*
X106521783Y-80294702D01*
X106542238Y-80271829D01*
X106560639Y-80251927D01*
X106577355Y-80234558D01*
X106592760Y-80219283D01*
X106607223Y-80205664D01*
X106621118Y-80193264D01*
X106627348Y-80187910D01*
X106662374Y-80158144D01*
X106639068Y-80154858D01*
X106629981Y-80154261D01*
X106611914Y-80153684D01*
X106585809Y-80153139D01*
X106552610Y-80152637D01*
X106513257Y-80152187D01*
X106468694Y-80151801D01*
X106419862Y-80151490D01*
X106367704Y-80151265D01*
X106314385Y-80151137D01*
X106013008Y-80150703D01*
X106013026Y-80189150D01*
X106012745Y-80206736D01*
X106011346Y-80220642D01*
X106008020Y-80233749D01*
X106001960Y-80248941D01*
X105992356Y-80269097D01*
X105988332Y-80277207D01*
X105973106Y-80304772D01*
X105952452Y-80337639D01*
X105927670Y-80373817D01*
X105905816Y-80403711D01*
X105889700Y-80424977D01*
X105869242Y-80451699D01*
X105845194Y-80482918D01*
X105818303Y-80517675D01*
X105789321Y-80555012D01*
X105758996Y-80593970D01*
X105728077Y-80633592D01*
X105697316Y-80672919D01*
X105667460Y-80710992D01*
X105639260Y-80746853D01*
X105613466Y-80779544D01*
X105590826Y-80808106D01*
X105572090Y-80831580D01*
X105558009Y-80849009D01*
X105550035Y-80858616D01*
X105527972Y-80884401D01*
X105524924Y-80869158D01*
X105523994Y-80859275D01*
X105523254Y-80840701D01*
X105522699Y-80814665D01*
X105522323Y-80782396D01*
X105522121Y-80745124D01*
X105522090Y-80704077D01*
X105522223Y-80660483D01*
X105522515Y-80615574D01*
X105522963Y-80570576D01*
X105523560Y-80526720D01*
X105524302Y-80485235D01*
X105525185Y-80447349D01*
X105526202Y-80414291D01*
X105526812Y-80398750D01*
X105528895Y-80356045D01*
X105531289Y-80321483D01*
X105534340Y-80293287D01*
X105538392Y-80269677D01*
X105543791Y-80248876D01*
X105550883Y-80229105D01*
X105560013Y-80208586D01*
X105566176Y-80196041D01*
X105585816Y-80156980D01*
X105560047Y-80153885D01*
X105549932Y-80153253D01*
X105531426Y-80152693D01*
X105505624Y-80152204D01*
X105473624Y-80151788D01*
X105436522Y-80151444D01*
X105395417Y-80151174D01*
X105351404Y-80150978D01*
X105305582Y-80150855D01*
X105259047Y-80150808D01*
X105212895Y-80150836D01*
X105168225Y-80150939D01*
X105126133Y-80151119D01*
X105087717Y-80151376D01*
X105054073Y-80151710D01*
X105026298Y-80152121D01*
X105005490Y-80152612D01*
X104992745Y-80153181D01*
X104989220Y-80153622D01*
X104985940Y-80156670D01*
X104987173Y-80162953D01*
X104993537Y-80174315D01*
X104998911Y-80182592D01*
X105009091Y-80198399D01*
X105017273Y-80212792D01*
X105023724Y-80227145D01*
X105028711Y-80242835D01*
X105032504Y-80261236D01*
X105035370Y-80283724D01*
X105037576Y-80311674D01*
X105039391Y-80346462D01*
X105041083Y-80389462D01*
X105041503Y-80401222D01*
X105042164Y-80425434D01*
X105042742Y-80457825D01*
X105043242Y-80497735D01*
X105043664Y-80544503D01*
X105044011Y-80597465D01*
X105044285Y-80655960D01*
X105044488Y-80719328D01*
X105044623Y-80786904D01*
X105044692Y-80858029D01*
X105044696Y-80932040D01*
X105044639Y-81008276D01*
X105044523Y-81086074D01*
X105044349Y-81164773D01*
X105044120Y-81243711D01*
X105043838Y-81322227D01*
X105043505Y-81399658D01*
X105043124Y-81475343D01*
X105042697Y-81548620D01*
X105042226Y-81618827D01*
X105041713Y-81685303D01*
X105041161Y-81747385D01*
X105040572Y-81804412D01*
X105039947Y-81855722D01*
X105039290Y-81900654D01*
X105038602Y-81938545D01*
X105037886Y-81968734D01*
X105037144Y-81990559D01*
X105036378Y-82003359D01*
X105036101Y-82005603D01*
X105031733Y-82024935D01*
X105024779Y-82044560D01*
X105014247Y-82066717D01*
X104999147Y-82093647D01*
X104991427Y-82106552D01*
X104980153Y-82125156D01*
X104809797Y-82125156D01*
X104809488Y-82066650D01*
X104809203Y-82001514D01*
X104808943Y-81930871D01*
X104808709Y-81855256D01*
X104808501Y-81775202D01*
X104808319Y-81691244D01*
X104808163Y-81603914D01*
X104808033Y-81513748D01*
X104807929Y-81421278D01*
X104807851Y-81327039D01*
X104807799Y-81231564D01*
X104807772Y-81135387D01*
X104807772Y-81039042D01*
X104807798Y-80943063D01*
X104807850Y-80847983D01*
X104807927Y-80754337D01*
X104808031Y-80662658D01*
X104808161Y-80573479D01*
X104808317Y-80487336D01*
X104808499Y-80404761D01*
X104808706Y-80326289D01*
X104808940Y-80252453D01*
X104809201Y-80183787D01*
X104809487Y-80120825D01*
X104809799Y-80064100D01*
X104810137Y-80014147D01*
X104810502Y-79971500D01*
X104810892Y-79936691D01*
X104811309Y-79910255D01*
X104811752Y-79892726D01*
X104812173Y-79885000D01*
X104816050Y-79857475D01*
X104820821Y-79838152D01*
X104827311Y-79825312D01*
X104836342Y-79817236D01*
X104846737Y-79812800D01*
X104852467Y-79812050D01*
X104864859Y-79811341D01*
X104884139Y-79810670D01*
X104910533Y-79810035D01*
X104944265Y-79809436D01*
X104985562Y-79808869D01*
X105034648Y-79808333D01*
X105091749Y-79807826D01*
X105157091Y-79807346D01*
X105230899Y-79806892D01*
X105313398Y-79806460D01*
X105404814Y-79806050D01*
X105505373Y-79805659D01*
X105615300Y-79805286D01*
X105734820Y-79804928D01*
X105792697Y-79804770D01*
X106720844Y-79802289D01*
X106724065Y-79858687D01*
X106724065Y-79858687D01*
G37*
X106724065Y-79858687D02*
X106727652Y-79900957D01*
X106733567Y-79936466D01*
X106742535Y-79968242D01*
X106755282Y-79999315D01*
X106760133Y-80009316D01*
X106790302Y-80058788D01*
X106827885Y-80102043D01*
X106872151Y-80138535D01*
X106922371Y-80167717D01*
X106977816Y-80189043D01*
X107011187Y-80197414D01*
X107033216Y-80201320D01*
X107054859Y-80204133D01*
X107071587Y-80205271D01*
X107072168Y-80205273D01*
X107116817Y-80200995D01*
X107163701Y-80188884D01*
X107210705Y-80170020D01*
X107255711Y-80145487D01*
X107296603Y-80116366D01*
X107331263Y-80083740D01*
X107346743Y-80064912D01*
X107372589Y-80025692D01*
X107391621Y-79986342D01*
X107404670Y-79944396D01*
X107412570Y-79897388D01*
X107415402Y-79861728D01*
X107418413Y-79803437D01*
X107443864Y-79803437D01*
X107462516Y-79804887D01*
X107478247Y-79810236D01*
X107494351Y-79820983D01*
X107507490Y-79832411D01*
X107521133Y-79844981D01*
X107520552Y-80904453D01*
X107520480Y-81009522D01*
X107520380Y-81113755D01*
X107520254Y-81216570D01*
X107520104Y-81317383D01*
X107519931Y-81415612D01*
X107519737Y-81510676D01*
X107519524Y-81601992D01*
X107519293Y-81688978D01*
X107519046Y-81771051D01*
X107518785Y-81847630D01*
X107518512Y-81918131D01*
X107518228Y-81981972D01*
X107517935Y-82038572D01*
X107517635Y-82087348D01*
X107517329Y-82127717D01*
X107517020Y-82159097D01*
X107516832Y-82173419D01*
X107513691Y-82382913D01*
X107500175Y-82396422D01*
X107492580Y-82403011D01*
X107483962Y-82407428D01*
X107471803Y-82410414D01*
X107453583Y-82412708D01*
X107440644Y-82413893D01*
X107430599Y-82414334D01*
X107411174Y-82414766D01*
X107382911Y-82415188D01*
X107346351Y-82415600D01*
X107302037Y-82415999D01*
X107250509Y-82416385D01*
X107192311Y-82416758D01*
X107127984Y-82417116D01*
X107058069Y-82417459D01*
X106983109Y-82417785D01*
X106903645Y-82418094D01*
X106820219Y-82418384D01*
X106733373Y-82418655D01*
X106643648Y-82418906D01*
X106551588Y-82419136D01*
X106457732Y-82419343D01*
X106362624Y-82419528D01*
X106266804Y-82419688D01*
X106170816Y-82419824D01*
X106075200Y-82419934D01*
X105980498Y-82420017D01*
X105887252Y-82420073D01*
X105796005Y-82420100D01*
X105707297Y-82420097D01*
X105621671Y-82420064D01*
X105539669Y-82420000D01*
X105461831Y-82419903D01*
X105388701Y-82419773D01*
X105320820Y-82419609D01*
X105258729Y-82419410D01*
X105202971Y-82419175D01*
X105154087Y-82418903D01*
X105112620Y-82418593D01*
X105079110Y-82418244D01*
X105060508Y-82417974D01*
X105006059Y-82416982D01*
X104960678Y-82415979D01*
X104923509Y-82414878D01*
X104893698Y-82413594D01*
X104870391Y-82412042D01*
X104852733Y-82410136D01*
X104839869Y-82407791D01*
X104830946Y-82404922D01*
X104825108Y-82401443D01*
X104821501Y-82397270D01*
X104819867Y-82393940D01*
X104818261Y-82385963D01*
X104816304Y-82370306D01*
X104814236Y-82349193D01*
X104812301Y-82324849D01*
X104812212Y-82323593D01*
X104811746Y-82311947D01*
X104811305Y-82291057D01*
X104810890Y-82261459D01*
X104810501Y-82223685D01*
X104810137Y-82178270D01*
X104809800Y-82125747D01*
X104809797Y-82125156D01*
X104980153Y-82125156D01*
X105220008Y-82125136D01*
X105270482Y-82125063D01*
X105320062Y-82124864D01*
X105367428Y-82124552D01*
X105411260Y-82124142D01*
X105450238Y-82123646D01*
X105483042Y-82123081D01*
X105508353Y-82122459D01*
X105522854Y-82121903D01*
X105585845Y-82118690D01*
X105566363Y-82080995D01*
X105555182Y-82057906D01*
X105546488Y-82035941D01*
X105539870Y-82013143D01*
X105534919Y-81987554D01*
X105531226Y-81957215D01*
X105528380Y-81920169D01*
X105526812Y-81891992D01*
X105525835Y-81867632D01*
X105524986Y-81836747D01*
X105524265Y-81800492D01*
X105523674Y-81760023D01*
X105523214Y-81716497D01*
X105522887Y-81671068D01*
X105522692Y-81624892D01*
X105522633Y-81579126D01*
X105522708Y-81534924D01*
X105522921Y-81493442D01*
X105523271Y-81455836D01*
X105523760Y-81423262D01*
X105524389Y-81396876D01*
X105525159Y-81377832D01*
X105526071Y-81367287D01*
X105526302Y-81366183D01*
X105527990Y-81362337D01*
X105530775Y-81361603D01*
X105535508Y-81364853D01*
X105543040Y-81372958D01*
X105554223Y-81386790D01*
X105569906Y-81407220D01*
X105582000Y-81423234D01*
X105605313Y-81454360D01*
X105631811Y-81490026D01*
X105660736Y-81529187D01*
X105691330Y-81570802D01*
X105722834Y-81613826D01*
X105754489Y-81657217D01*
X105785537Y-81699930D01*
X105815221Y-81740922D01*
X105842780Y-81779150D01*
X105867457Y-81813571D01*
X105888493Y-81843141D01*
X105905130Y-81866816D01*
X105916523Y-81883425D01*
X105945233Y-81928166D01*
X105967464Y-81967357D01*
X105983790Y-82002424D01*
X105994786Y-82034795D01*
X106001025Y-82065895D01*
X106003082Y-82097153D01*
X106003086Y-82098548D01*
X106003086Y-82125156D01*
X106670066Y-82125156D01*
X106658675Y-82113453D01*
X106791550Y-82113453D01*
X106791748Y-82117834D01*
X106795918Y-82120163D01*
X106798424Y-82120941D01*
X106806017Y-82121739D01*
X106822338Y-82122445D01*
X106846193Y-82123055D01*
X106876389Y-82123567D01*
X106911732Y-82123979D01*
X106951029Y-82124288D01*
X106993086Y-82124492D01*
X107036709Y-82124588D01*
X107080705Y-82124575D01*
X107123881Y-82124450D01*
X107165042Y-82124210D01*
X107202995Y-82123854D01*
X107236548Y-82123378D01*
X107264505Y-82122781D01*
X107285673Y-82122060D01*
X107288831Y-82121909D01*
X107351705Y-82118702D01*
X107328518Y-82076040D01*
X107305332Y-82033379D01*
X107303622Y-81351923D01*
X107301912Y-80670466D01*
X107049709Y-80672353D01*
X107000594Y-80672787D01*
X106954499Y-80673325D01*
X106912374Y-80673946D01*
X106875168Y-80674629D01*
X106843831Y-80675356D01*
X106819310Y-80676105D01*
X106802555Y-80676856D01*
X106794516Y-80677590D01*
X106793961Y-80677783D01*
X106794453Y-80683500D01*
X106798809Y-80695716D01*
X106806183Y-80712200D01*
X106809749Y-80719413D01*
X106829082Y-80757498D01*
X106830494Y-81378075D01*
X106830679Y-81477765D01*
X106830766Y-81570033D01*
X106830756Y-81654641D01*
X106830650Y-81731350D01*
X106830450Y-81799919D01*
X106830156Y-81860112D01*
X106829770Y-81911688D01*
X106829294Y-81954408D01*
X106828728Y-81988034D01*
X106828075Y-82012327D01*
X106827334Y-82027047D01*
X106826964Y-82030541D01*
X106816616Y-82067416D01*
X106804817Y-82090072D01*
X106795760Y-82104904D01*
X106791550Y-82113453D01*
X106658675Y-82113453D01*
X106637470Y-82091670D01*
X106619190Y-82072694D01*
X106601804Y-82054156D01*
X106584778Y-82035372D01*
X106567578Y-82015660D01*
X106549670Y-81994335D01*
X106530519Y-81970716D01*
X106509592Y-81944118D01*
X106486355Y-81913860D01*
X106460272Y-81879257D01*
X106430811Y-81839627D01*
X106397436Y-81794287D01*
X106359614Y-81742554D01*
X106316811Y-81683744D01*
X106295113Y-81653867D01*
X106231650Y-81566320D01*
X106174018Y-81486569D01*
X106122109Y-81414461D01*
X106075818Y-81349843D01*
X106035036Y-81292562D01*
X105999656Y-81242465D01*
X105969572Y-81199399D01*
X105944676Y-81163211D01*
X105924862Y-81133748D01*
X105910021Y-81110858D01*
X105900048Y-81094387D01*
X105894834Y-81084182D01*
X105893945Y-81080931D01*
X105894154Y-81078328D01*
X105895058Y-81075171D01*
X105897073Y-81070918D01*
X105900617Y-81065025D01*
X105906107Y-81056950D01*
X105913958Y-81046150D01*
X105924587Y-81032081D01*
X105938412Y-81014201D01*
X105955848Y-80991966D01*
X105977313Y-80964834D01*
X106003223Y-80932262D01*
X106033994Y-80893707D01*
X106070045Y-80848625D01*
X106111790Y-80796475D01*
X106122402Y-80783222D01*
X106183855Y-80706542D01*
X106239536Y-80637214D01*
X106289816Y-80574800D01*
X106335067Y-80518863D01*
X106375661Y-80468964D01*
X106411970Y-80424664D01*
X106444365Y-80385527D01*
X106473217Y-80351112D01*
X106498899Y-80320984D01*
X106521783Y-80294702D01*
X106542238Y-80271829D01*
X106560639Y-80251927D01*
X106577355Y-80234558D01*
X106592760Y-80219283D01*
X106607223Y-80205664D01*
X106621118Y-80193264D01*
X106627348Y-80187910D01*
X106662374Y-80158144D01*
X106639068Y-80154858D01*
X106629981Y-80154261D01*
X106611914Y-80153684D01*
X106585809Y-80153139D01*
X106552610Y-80152637D01*
X106513257Y-80152187D01*
X106468694Y-80151801D01*
X106419862Y-80151490D01*
X106367704Y-80151265D01*
X106314385Y-80151137D01*
X106013008Y-80150703D01*
X106013026Y-80189150D01*
X106012745Y-80206736D01*
X106011346Y-80220642D01*
X106008020Y-80233749D01*
X106001960Y-80248941D01*
X105992356Y-80269097D01*
X105988332Y-80277207D01*
X105973106Y-80304772D01*
X105952452Y-80337639D01*
X105927670Y-80373817D01*
X105905816Y-80403711D01*
X105889700Y-80424977D01*
X105869242Y-80451699D01*
X105845194Y-80482918D01*
X105818303Y-80517675D01*
X105789321Y-80555012D01*
X105758996Y-80593970D01*
X105728077Y-80633592D01*
X105697316Y-80672919D01*
X105667460Y-80710992D01*
X105639260Y-80746853D01*
X105613466Y-80779544D01*
X105590826Y-80808106D01*
X105572090Y-80831580D01*
X105558009Y-80849009D01*
X105550035Y-80858616D01*
X105527972Y-80884401D01*
X105524924Y-80869158D01*
X105523994Y-80859275D01*
X105523254Y-80840701D01*
X105522699Y-80814665D01*
X105522323Y-80782396D01*
X105522121Y-80745124D01*
X105522090Y-80704077D01*
X105522223Y-80660483D01*
X105522515Y-80615574D01*
X105522963Y-80570576D01*
X105523560Y-80526720D01*
X105524302Y-80485235D01*
X105525185Y-80447349D01*
X105526202Y-80414291D01*
X105526812Y-80398750D01*
X105528895Y-80356045D01*
X105531289Y-80321483D01*
X105534340Y-80293287D01*
X105538392Y-80269677D01*
X105543791Y-80248876D01*
X105550883Y-80229105D01*
X105560013Y-80208586D01*
X105566176Y-80196041D01*
X105585816Y-80156980D01*
X105560047Y-80153885D01*
X105549932Y-80153253D01*
X105531426Y-80152693D01*
X105505624Y-80152204D01*
X105473624Y-80151788D01*
X105436522Y-80151444D01*
X105395417Y-80151174D01*
X105351404Y-80150978D01*
X105305582Y-80150855D01*
X105259047Y-80150808D01*
X105212895Y-80150836D01*
X105168225Y-80150939D01*
X105126133Y-80151119D01*
X105087717Y-80151376D01*
X105054073Y-80151710D01*
X105026298Y-80152121D01*
X105005490Y-80152612D01*
X104992745Y-80153181D01*
X104989220Y-80153622D01*
X104985940Y-80156670D01*
X104987173Y-80162953D01*
X104993537Y-80174315D01*
X104998911Y-80182592D01*
X105009091Y-80198399D01*
X105017273Y-80212792D01*
X105023724Y-80227145D01*
X105028711Y-80242835D01*
X105032504Y-80261236D01*
X105035370Y-80283724D01*
X105037576Y-80311674D01*
X105039391Y-80346462D01*
X105041083Y-80389462D01*
X105041503Y-80401222D01*
X105042164Y-80425434D01*
X105042742Y-80457825D01*
X105043242Y-80497735D01*
X105043664Y-80544503D01*
X105044011Y-80597465D01*
X105044285Y-80655960D01*
X105044488Y-80719328D01*
X105044623Y-80786904D01*
X105044692Y-80858029D01*
X105044696Y-80932040D01*
X105044639Y-81008276D01*
X105044523Y-81086074D01*
X105044349Y-81164773D01*
X105044120Y-81243711D01*
X105043838Y-81322227D01*
X105043505Y-81399658D01*
X105043124Y-81475343D01*
X105042697Y-81548620D01*
X105042226Y-81618827D01*
X105041713Y-81685303D01*
X105041161Y-81747385D01*
X105040572Y-81804412D01*
X105039947Y-81855722D01*
X105039290Y-81900654D01*
X105038602Y-81938545D01*
X105037886Y-81968734D01*
X105037144Y-81990559D01*
X105036378Y-82003359D01*
X105036101Y-82005603D01*
X105031733Y-82024935D01*
X105024779Y-82044560D01*
X105014247Y-82066717D01*
X104999147Y-82093647D01*
X104991427Y-82106552D01*
X104980153Y-82125156D01*
X104809797Y-82125156D01*
X104809488Y-82066650D01*
X104809203Y-82001514D01*
X104808943Y-81930871D01*
X104808709Y-81855256D01*
X104808501Y-81775202D01*
X104808319Y-81691244D01*
X104808163Y-81603914D01*
X104808033Y-81513748D01*
X104807929Y-81421278D01*
X104807851Y-81327039D01*
X104807799Y-81231564D01*
X104807772Y-81135387D01*
X104807772Y-81039042D01*
X104807798Y-80943063D01*
X104807850Y-80847983D01*
X104807927Y-80754337D01*
X104808031Y-80662658D01*
X104808161Y-80573479D01*
X104808317Y-80487336D01*
X104808499Y-80404761D01*
X104808706Y-80326289D01*
X104808940Y-80252453D01*
X104809201Y-80183787D01*
X104809487Y-80120825D01*
X104809799Y-80064100D01*
X104810137Y-80014147D01*
X104810502Y-79971500D01*
X104810892Y-79936691D01*
X104811309Y-79910255D01*
X104811752Y-79892726D01*
X104812173Y-79885000D01*
X104816050Y-79857475D01*
X104820821Y-79838152D01*
X104827311Y-79825312D01*
X104836342Y-79817236D01*
X104846737Y-79812800D01*
X104852467Y-79812050D01*
X104864859Y-79811341D01*
X104884139Y-79810670D01*
X104910533Y-79810035D01*
X104944265Y-79809436D01*
X104985562Y-79808869D01*
X105034648Y-79808333D01*
X105091749Y-79807826D01*
X105157091Y-79807346D01*
X105230899Y-79806892D01*
X105313398Y-79806460D01*
X105404814Y-79806050D01*
X105505373Y-79805659D01*
X105615300Y-79805286D01*
X105734820Y-79804928D01*
X105792697Y-79804770D01*
X106720844Y-79802289D01*
X106724065Y-79858687D01*
G36*
X111633618Y-82618616D02*
G01*
X111641709Y-82621939D01*
X111652492Y-82629034D01*
X111660409Y-82639465D01*
X111665953Y-82654760D01*
X111669620Y-82676446D01*
X111671906Y-82706048D01*
X111672389Y-82716509D01*
X111674799Y-82775039D01*
X111961172Y-82775039D01*
X111961172Y-82716248D01*
X111961715Y-82683686D01*
X111963592Y-82659578D01*
X111967170Y-82642502D01*
X111972818Y-82631036D01*
X111980905Y-82623761D01*
X111985789Y-82621327D01*
X111998473Y-82618105D01*
X112010572Y-82621163D01*
X112014354Y-82623012D01*
X112021301Y-82626619D01*
X112026939Y-82630199D01*
X112031392Y-82634753D01*
X112034785Y-82641284D01*
X112037246Y-82650790D01*
X112038899Y-82664275D01*
X112039870Y-82682737D01*
X112040285Y-82707179D01*
X112040269Y-82738602D01*
X112039949Y-82778005D01*
X112039483Y-82823141D01*
X112038946Y-82864469D01*
X112038238Y-82902884D01*
X112037397Y-82937199D01*
X112036459Y-82966231D01*
X112035464Y-82988793D01*
X112034448Y-83003702D01*
X112033535Y-83009626D01*
X112023328Y-83021192D01*
X112007713Y-83028336D01*
X111990833Y-83029325D01*
X111987926Y-83028702D01*
X111978373Y-83024924D01*
X111971364Y-83018507D01*
X111966525Y-83008062D01*
X111963480Y-82992203D01*
X111961854Y-82969541D01*
X111961271Y-82938689D01*
X111961245Y-82930068D01*
X111961172Y-82859375D01*
X111674732Y-82859375D01*
X111672445Y-82925107D01*
X111670578Y-82959756D01*
X111667448Y-82985820D01*
X111662655Y-83004600D01*
X111655798Y-83017394D01*
X111646476Y-83025504D01*
X111640631Y-83028260D01*
X111628426Y-83032152D01*
X111619829Y-83031408D01*
X111610309Y-83025096D01*
X111605501Y-83021039D01*
X111591582Y-83009070D01*
X111589871Y-82861048D01*
X111589545Y-82821307D01*
X111589475Y-82782681D01*
X111589646Y-82746880D01*
X111590042Y-82715615D01*
X111590648Y-82690596D01*
X111591448Y-82673535D01*
X111591582Y-82671795D01*
X111593426Y-82651557D01*
X111595474Y-82638851D01*
X111598674Y-82631316D01*
X111603972Y-82626588D01*
X111611219Y-82622830D01*
X111623727Y-82618061D01*
X111633618Y-82618616D01*
X111633618Y-82618616D01*
G37*
X111633618Y-82618616D02*
X111641709Y-82621939D01*
X111652492Y-82629034D01*
X111660409Y-82639465D01*
X111665953Y-82654760D01*
X111669620Y-82676446D01*
X111671906Y-82706048D01*
X111672389Y-82716509D01*
X111674799Y-82775039D01*
X111961172Y-82775039D01*
X111961172Y-82716248D01*
X111961715Y-82683686D01*
X111963592Y-82659578D01*
X111967170Y-82642502D01*
X111972818Y-82631036D01*
X111980905Y-82623761D01*
X111985789Y-82621327D01*
X111998473Y-82618105D01*
X112010572Y-82621163D01*
X112014354Y-82623012D01*
X112021301Y-82626619D01*
X112026939Y-82630199D01*
X112031392Y-82634753D01*
X112034785Y-82641284D01*
X112037246Y-82650790D01*
X112038899Y-82664275D01*
X112039870Y-82682737D01*
X112040285Y-82707179D01*
X112040269Y-82738602D01*
X112039949Y-82778005D01*
X112039483Y-82823141D01*
X112038946Y-82864469D01*
X112038238Y-82902884D01*
X112037397Y-82937199D01*
X112036459Y-82966231D01*
X112035464Y-82988793D01*
X112034448Y-83003702D01*
X112033535Y-83009626D01*
X112023328Y-83021192D01*
X112007713Y-83028336D01*
X111990833Y-83029325D01*
X111987926Y-83028702D01*
X111978373Y-83024924D01*
X111971364Y-83018507D01*
X111966525Y-83008062D01*
X111963480Y-82992203D01*
X111961854Y-82969541D01*
X111961271Y-82938689D01*
X111961245Y-82930068D01*
X111961172Y-82859375D01*
X111674732Y-82859375D01*
X111672445Y-82925107D01*
X111670578Y-82959756D01*
X111667448Y-82985820D01*
X111662655Y-83004600D01*
X111655798Y-83017394D01*
X111646476Y-83025504D01*
X111640631Y-83028260D01*
X111628426Y-83032152D01*
X111619829Y-83031408D01*
X111610309Y-83025096D01*
X111605501Y-83021039D01*
X111591582Y-83009070D01*
X111589871Y-82861048D01*
X111589545Y-82821307D01*
X111589475Y-82782681D01*
X111589646Y-82746880D01*
X111590042Y-82715615D01*
X111590648Y-82690596D01*
X111591448Y-82673535D01*
X111591582Y-82671795D01*
X111593426Y-82651557D01*
X111595474Y-82638851D01*
X111598674Y-82631316D01*
X111603972Y-82626588D01*
X111611219Y-82622830D01*
X111623727Y-82618061D01*
X111633618Y-82618616D01*
G36*
X111442593Y-82637016D02*
G01*
X111448530Y-82649346D01*
X111449610Y-82658149D01*
X111446069Y-82668414D01*
X111444265Y-82672266D01*
X111439750Y-82680111D01*
X111433793Y-82685980D01*
X111425003Y-82690156D01*
X111411992Y-82692922D01*
X111393368Y-82694564D01*
X111367741Y-82695363D01*
X111333722Y-82695605D01*
X111329893Y-82695609D01*
X111261680Y-82695664D01*
X111261680Y-83007698D01*
X111245088Y-83020353D01*
X111230474Y-83029871D01*
X111219218Y-83032173D01*
X111208196Y-83027550D01*
X111203643Y-83024215D01*
X111197474Y-83018701D01*
X111192501Y-83012142D01*
X111188575Y-83003439D01*
X111185543Y-82991493D01*
X111183257Y-82975205D01*
X111181564Y-82953476D01*
X111180314Y-82925209D01*
X111179356Y-82889303D01*
X111178540Y-82844659D01*
X111178478Y-82840771D01*
X111176173Y-82695664D01*
X111113507Y-82695609D01*
X111079507Y-82695369D01*
X111054001Y-82694518D01*
X111035564Y-82692762D01*
X111022771Y-82689806D01*
X111014198Y-82685356D01*
X111008423Y-82679115D01*
X111005105Y-82673156D01*
X111000629Y-82662022D01*
X111000545Y-82653054D01*
X111005083Y-82641401D01*
X111006768Y-82637907D01*
X111016113Y-82618769D01*
X111432813Y-82618769D01*
X111442593Y-82637016D01*
X111442593Y-82637016D01*
G37*
X111442593Y-82637016D02*
X111448530Y-82649346D01*
X111449610Y-82658149D01*
X111446069Y-82668414D01*
X111444265Y-82672266D01*
X111439750Y-82680111D01*
X111433793Y-82685980D01*
X111425003Y-82690156D01*
X111411992Y-82692922D01*
X111393368Y-82694564D01*
X111367741Y-82695363D01*
X111333722Y-82695605D01*
X111329893Y-82695609D01*
X111261680Y-82695664D01*
X111261680Y-83007698D01*
X111245088Y-83020353D01*
X111230474Y-83029871D01*
X111219218Y-83032173D01*
X111208196Y-83027550D01*
X111203643Y-83024215D01*
X111197474Y-83018701D01*
X111192501Y-83012142D01*
X111188575Y-83003439D01*
X111185543Y-82991493D01*
X111183257Y-82975205D01*
X111181564Y-82953476D01*
X111180314Y-82925209D01*
X111179356Y-82889303D01*
X111178540Y-82844659D01*
X111178478Y-82840771D01*
X111176173Y-82695664D01*
X111113507Y-82695609D01*
X111079507Y-82695369D01*
X111054001Y-82694518D01*
X111035564Y-82692762D01*
X111022771Y-82689806D01*
X111014198Y-82685356D01*
X111008423Y-82679115D01*
X111005105Y-82673156D01*
X111000629Y-82662022D01*
X111000545Y-82653054D01*
X111005083Y-82641401D01*
X111006768Y-82637907D01*
X111016113Y-82618769D01*
X111432813Y-82618769D01*
X111442593Y-82637016D01*
G36*
X110830444Y-82616497D02*
G01*
X110837137Y-82619586D01*
X110854883Y-82628048D01*
X110854883Y-83016984D01*
X110842655Y-83024995D01*
X110827853Y-83031856D01*
X110813488Y-83031208D01*
X110796592Y-83023140D01*
X110780469Y-83013310D01*
X110780469Y-82632999D01*
X110799930Y-82622061D01*
X110812475Y-82615536D01*
X110821109Y-82613783D01*
X110830444Y-82616497D01*
X110830444Y-82616497D01*
G37*
X110830444Y-82616497D02*
X110837137Y-82619586D01*
X110854883Y-82628048D01*
X110854883Y-83016984D01*
X110842655Y-83024995D01*
X110827853Y-83031856D01*
X110813488Y-83031208D01*
X110796592Y-83023140D01*
X110780469Y-83013310D01*
X110780469Y-82632999D01*
X110799930Y-82622061D01*
X110812475Y-82615536D01*
X110821109Y-82613783D01*
X110830444Y-82616497D01*
G36*
X110588949Y-82620546D02*
G01*
X110601694Y-82631096D01*
X110610159Y-82644607D01*
X110611797Y-82652808D01*
X110609656Y-82663018D01*
X110603624Y-82680809D01*
X110594289Y-82704909D01*
X110582235Y-82734044D01*
X110568050Y-82766942D01*
X110552321Y-82802331D01*
X110535633Y-82838937D01*
X110518574Y-82875487D01*
X110501730Y-82910710D01*
X110485687Y-82943331D01*
X110471032Y-82972078D01*
X110458352Y-82995679D01*
X110448232Y-83012860D01*
X110441742Y-83021845D01*
X110430779Y-83030909D01*
X110419672Y-83033717D01*
X110407901Y-83029785D01*
X110394943Y-83018627D01*
X110380278Y-82999758D01*
X110363383Y-82972692D01*
X110343736Y-82936943D01*
X110337334Y-82924658D01*
X110324359Y-82899962D01*
X110312740Y-82878674D01*
X110303298Y-82862234D01*
X110296854Y-82852082D01*
X110294428Y-82849453D01*
X110290622Y-82853598D01*
X110283564Y-82864795D01*
X110274367Y-82881185D01*
X110266952Y-82895341D01*
X110245912Y-82936043D01*
X110228510Y-82968365D01*
X110214337Y-82992983D01*
X110202981Y-83010576D01*
X110194032Y-83021821D01*
X110187078Y-83027394D01*
X110186811Y-83027520D01*
X110171298Y-83032476D01*
X110159419Y-83030167D01*
X110150266Y-83022922D01*
X110144177Y-83014325D01*
X110134800Y-82997891D01*
X110122733Y-82974912D01*
X110108571Y-82946679D01*
X110092912Y-82914486D01*
X110076352Y-82879624D01*
X110059487Y-82843386D01*
X110042915Y-82807064D01*
X110027231Y-82771951D01*
X110013032Y-82739339D01*
X110000916Y-82710520D01*
X109991478Y-82686786D01*
X109985315Y-82669431D01*
X109983124Y-82660860D01*
X109984924Y-82641902D01*
X109994923Y-82627169D01*
X110011736Y-82618701D01*
X110011738Y-82618700D01*
X110020068Y-82617771D01*
X110028001Y-82619647D01*
X110036132Y-82625163D01*
X110045052Y-82635150D01*
X110055356Y-82650441D01*
X110067636Y-82671867D01*
X110082485Y-82700262D01*
X110100496Y-82736457D01*
X110111025Y-82758053D01*
X110126626Y-82789951D01*
X110141002Y-82818875D01*
X110153541Y-82843632D01*
X110163630Y-82863025D01*
X110170656Y-82875860D01*
X110174008Y-82880941D01*
X110177893Y-82877871D01*
X110185356Y-82867434D01*
X110195458Y-82851100D01*
X110207261Y-82830337D01*
X110212429Y-82820783D01*
X110231405Y-82785799D01*
X110246836Y-82758866D01*
X110259370Y-82739041D01*
X110269656Y-82725384D01*
X110278344Y-82716953D01*
X110286082Y-82712808D01*
X110287101Y-82712522D01*
X110295452Y-82711306D01*
X110303332Y-82712640D01*
X110311407Y-82717363D01*
X110320341Y-82726317D01*
X110330801Y-82740342D01*
X110343452Y-82760278D01*
X110358958Y-82786966D01*
X110377987Y-82821246D01*
X110388635Y-82840771D01*
X110402743Y-82865744D01*
X110413082Y-82881752D01*
X110419779Y-82888955D01*
X110422961Y-82887514D01*
X110423281Y-82884211D01*
X110425469Y-82877434D01*
X110431554Y-82863306D01*
X110440818Y-82843260D01*
X110452544Y-82818730D01*
X110466015Y-82791147D01*
X110480514Y-82761945D01*
X110495322Y-82732557D01*
X110509723Y-82704415D01*
X110522999Y-82678953D01*
X110534433Y-82657604D01*
X110543307Y-82641799D01*
X110548903Y-82632972D01*
X110549353Y-82632412D01*
X110562914Y-82620411D01*
X110575256Y-82616289D01*
X110588949Y-82620546D01*
X110588949Y-82620546D01*
G37*
X110588949Y-82620546D02*
X110601694Y-82631096D01*
X110610159Y-82644607D01*
X110611797Y-82652808D01*
X110609656Y-82663018D01*
X110603624Y-82680809D01*
X110594289Y-82704909D01*
X110582235Y-82734044D01*
X110568050Y-82766942D01*
X110552321Y-82802331D01*
X110535633Y-82838937D01*
X110518574Y-82875487D01*
X110501730Y-82910710D01*
X110485687Y-82943331D01*
X110471032Y-82972078D01*
X110458352Y-82995679D01*
X110448232Y-83012860D01*
X110441742Y-83021845D01*
X110430779Y-83030909D01*
X110419672Y-83033717D01*
X110407901Y-83029785D01*
X110394943Y-83018627D01*
X110380278Y-82999758D01*
X110363383Y-82972692D01*
X110343736Y-82936943D01*
X110337334Y-82924658D01*
X110324359Y-82899962D01*
X110312740Y-82878674D01*
X110303298Y-82862234D01*
X110296854Y-82852082D01*
X110294428Y-82849453D01*
X110290622Y-82853598D01*
X110283564Y-82864795D01*
X110274367Y-82881185D01*
X110266952Y-82895341D01*
X110245912Y-82936043D01*
X110228510Y-82968365D01*
X110214337Y-82992983D01*
X110202981Y-83010576D01*
X110194032Y-83021821D01*
X110187078Y-83027394D01*
X110186811Y-83027520D01*
X110171298Y-83032476D01*
X110159419Y-83030167D01*
X110150266Y-83022922D01*
X110144177Y-83014325D01*
X110134800Y-82997891D01*
X110122733Y-82974912D01*
X110108571Y-82946679D01*
X110092912Y-82914486D01*
X110076352Y-82879624D01*
X110059487Y-82843386D01*
X110042915Y-82807064D01*
X110027231Y-82771951D01*
X110013032Y-82739339D01*
X110000916Y-82710520D01*
X109991478Y-82686786D01*
X109985315Y-82669431D01*
X109983124Y-82660860D01*
X109984924Y-82641902D01*
X109994923Y-82627169D01*
X110011736Y-82618701D01*
X110011738Y-82618700D01*
X110020068Y-82617771D01*
X110028001Y-82619647D01*
X110036132Y-82625163D01*
X110045052Y-82635150D01*
X110055356Y-82650441D01*
X110067636Y-82671867D01*
X110082485Y-82700262D01*
X110100496Y-82736457D01*
X110111025Y-82758053D01*
X110126626Y-82789951D01*
X110141002Y-82818875D01*
X110153541Y-82843632D01*
X110163630Y-82863025D01*
X110170656Y-82875860D01*
X110174008Y-82880941D01*
X110177893Y-82877871D01*
X110185356Y-82867434D01*
X110195458Y-82851100D01*
X110207261Y-82830337D01*
X110212429Y-82820783D01*
X110231405Y-82785799D01*
X110246836Y-82758866D01*
X110259370Y-82739041D01*
X110269656Y-82725384D01*
X110278344Y-82716953D01*
X110286082Y-82712808D01*
X110287101Y-82712522D01*
X110295452Y-82711306D01*
X110303332Y-82712640D01*
X110311407Y-82717363D01*
X110320341Y-82726317D01*
X110330801Y-82740342D01*
X110343452Y-82760278D01*
X110358958Y-82786966D01*
X110377987Y-82821246D01*
X110388635Y-82840771D01*
X110402743Y-82865744D01*
X110413082Y-82881752D01*
X110419779Y-82888955D01*
X110422961Y-82887514D01*
X110423281Y-82884211D01*
X110425469Y-82877434D01*
X110431554Y-82863306D01*
X110440818Y-82843260D01*
X110452544Y-82818730D01*
X110466015Y-82791147D01*
X110480514Y-82761945D01*
X110495322Y-82732557D01*
X110509723Y-82704415D01*
X110522999Y-82678953D01*
X110534433Y-82657604D01*
X110543307Y-82641799D01*
X110548903Y-82632972D01*
X110549353Y-82632412D01*
X110562914Y-82620411D01*
X110575256Y-82616289D01*
X110588949Y-82620546D01*
G36*
X109006282Y-82613459D02*
G01*
X109039307Y-82614980D01*
X109073908Y-82617424D01*
X109107341Y-82620613D01*
X109136860Y-82624370D01*
X109149260Y-82626399D01*
X109198133Y-82638651D01*
X109239434Y-82656704D01*
X109274074Y-82681212D01*
X109302965Y-82712830D01*
X109327018Y-82752211D01*
X109328453Y-82755091D01*
X109337565Y-82775522D01*
X109342390Y-82792891D01*
X109344154Y-82812387D01*
X109344277Y-82822063D01*
X109343581Y-82841997D01*
X109340800Y-82858426D01*
X109334896Y-82875555D01*
X109326494Y-82894130D01*
X109302399Y-82934479D01*
X109271955Y-82967492D01*
X109234627Y-82993635D01*
X109190115Y-83013292D01*
X109166426Y-83019397D01*
X109134362Y-83024543D01*
X109095437Y-83028587D01*
X109051165Y-83031384D01*
X109003060Y-83032789D01*
X108983919Y-83032929D01*
X108956755Y-83032751D01*
X108937655Y-83031994D01*
X108924768Y-83030440D01*
X108916240Y-83027871D01*
X108910529Y-83024326D01*
X108905510Y-83018666D01*
X108901367Y-83010013D01*
X108898024Y-82997495D01*
X108895404Y-82980236D01*
X108893429Y-82957364D01*
X108893078Y-82950020D01*
X108979648Y-82950020D01*
X109052822Y-82947392D01*
X109087876Y-82945702D01*
X109115248Y-82943296D01*
X109137166Y-82939900D01*
X109155860Y-82935239D01*
X109158665Y-82934369D01*
X109195204Y-82918649D01*
X109224686Y-82897293D01*
X109246389Y-82870984D01*
X109259595Y-82840404D01*
X109260190Y-82838089D01*
X109261055Y-82814909D01*
X109253545Y-82790741D01*
X109238871Y-82767157D01*
X109218243Y-82745731D01*
X109192872Y-82728035D01*
X109166592Y-82716471D01*
X109138250Y-82709117D01*
X109103291Y-82702972D01*
X109064990Y-82698470D01*
X109026624Y-82696046D01*
X109010654Y-82695750D01*
X108979648Y-82695664D01*
X108979648Y-82950020D01*
X108893078Y-82950020D01*
X108892024Y-82928004D01*
X108891110Y-82891283D01*
X108890611Y-82846327D01*
X108890451Y-82796564D01*
X108890352Y-82641975D01*
X108905097Y-82629568D01*
X108916198Y-82622199D01*
X108930164Y-82617486D01*
X108950153Y-82614457D01*
X108955946Y-82613894D01*
X108977580Y-82613038D01*
X109006282Y-82613459D01*
X109006282Y-82613459D01*
G37*
X109006282Y-82613459D02*
X109039307Y-82614980D01*
X109073908Y-82617424D01*
X109107341Y-82620613D01*
X109136860Y-82624370D01*
X109149260Y-82626399D01*
X109198133Y-82638651D01*
X109239434Y-82656704D01*
X109274074Y-82681212D01*
X109302965Y-82712830D01*
X109327018Y-82752211D01*
X109328453Y-82755091D01*
X109337565Y-82775522D01*
X109342390Y-82792891D01*
X109344154Y-82812387D01*
X109344277Y-82822063D01*
X109343581Y-82841997D01*
X109340800Y-82858426D01*
X109334896Y-82875555D01*
X109326494Y-82894130D01*
X109302399Y-82934479D01*
X109271955Y-82967492D01*
X109234627Y-82993635D01*
X109190115Y-83013292D01*
X109166426Y-83019397D01*
X109134362Y-83024543D01*
X109095437Y-83028587D01*
X109051165Y-83031384D01*
X109003060Y-83032789D01*
X108983919Y-83032929D01*
X108956755Y-83032751D01*
X108937655Y-83031994D01*
X108924768Y-83030440D01*
X108916240Y-83027871D01*
X108910529Y-83024326D01*
X108905510Y-83018666D01*
X108901367Y-83010013D01*
X108898024Y-82997495D01*
X108895404Y-82980236D01*
X108893429Y-82957364D01*
X108893078Y-82950020D01*
X108979648Y-82950020D01*
X109052822Y-82947392D01*
X109087876Y-82945702D01*
X109115248Y-82943296D01*
X109137166Y-82939900D01*
X109155860Y-82935239D01*
X109158665Y-82934369D01*
X109195204Y-82918649D01*
X109224686Y-82897293D01*
X109246389Y-82870984D01*
X109259595Y-82840404D01*
X109260190Y-82838089D01*
X109261055Y-82814909D01*
X109253545Y-82790741D01*
X109238871Y-82767157D01*
X109218243Y-82745731D01*
X109192872Y-82728035D01*
X109166592Y-82716471D01*
X109138250Y-82709117D01*
X109103291Y-82702972D01*
X109064990Y-82698470D01*
X109026624Y-82696046D01*
X109010654Y-82695750D01*
X108979648Y-82695664D01*
X108979648Y-82950020D01*
X108893078Y-82950020D01*
X108892024Y-82928004D01*
X108891110Y-82891283D01*
X108890611Y-82846327D01*
X108890451Y-82796564D01*
X108890352Y-82641975D01*
X108905097Y-82629568D01*
X108916198Y-82622199D01*
X108930164Y-82617486D01*
X108950153Y-82614457D01*
X108955946Y-82613894D01*
X108977580Y-82613038D01*
X109006282Y-82613459D01*
G36*
X108438004Y-82611561D02*
G01*
X108474894Y-82611838D01*
X108513246Y-82612471D01*
X108550241Y-82613388D01*
X108583060Y-82614519D01*
X108608886Y-82615795D01*
X108609714Y-82615846D01*
X108636395Y-82617677D01*
X108654988Y-82619461D01*
X108667316Y-82621578D01*
X108675203Y-82624406D01*
X108680474Y-82628325D01*
X108682888Y-82631046D01*
X108690431Y-82646524D01*
X108691112Y-82663290D01*
X108685460Y-82678151D01*
X108674001Y-82687914D01*
X108673448Y-82688146D01*
X108666288Y-82689244D01*
X108650605Y-82690517D01*
X108627795Y-82691889D01*
X108599254Y-82693285D01*
X108566377Y-82694629D01*
X108531278Y-82695825D01*
X108495838Y-82697058D01*
X108463668Y-82698448D01*
X108436097Y-82699916D01*
X108414453Y-82701382D01*
X108400063Y-82702767D01*
X108394255Y-82703992D01*
X108394249Y-82703999D01*
X108391961Y-82710723D01*
X108389575Y-82724328D01*
X108387707Y-82740835D01*
X108384843Y-82773603D01*
X108481543Y-82776227D01*
X108517635Y-82777344D01*
X108545094Y-82778709D01*
X108565207Y-82780664D01*
X108579263Y-82783552D01*
X108588549Y-82787715D01*
X108594353Y-82793496D01*
X108597963Y-82801238D01*
X108599796Y-82807693D01*
X108599456Y-82822031D01*
X108593547Y-82837215D01*
X108584113Y-82848861D01*
X108579236Y-82851790D01*
X108571627Y-82853053D01*
X108555833Y-82854423D01*
X108533587Y-82855793D01*
X108506625Y-82857055D01*
X108477354Y-82858084D01*
X108384336Y-82860838D01*
X108384336Y-82947154D01*
X108526963Y-82950650D01*
X108571079Y-82951765D01*
X108606288Y-82952888D01*
X108633603Y-82954283D01*
X108654035Y-82956214D01*
X108668596Y-82958943D01*
X108678298Y-82962734D01*
X108684154Y-82967850D01*
X108687174Y-82974555D01*
X108688371Y-82983112D01*
X108688730Y-82992750D01*
X108688929Y-83002398D01*
X108688339Y-83010208D01*
X108686012Y-83016383D01*
X108681005Y-83021126D01*
X108672372Y-83024638D01*
X108659167Y-83027122D01*
X108640445Y-83028781D01*
X108615260Y-83029817D01*
X108582667Y-83030433D01*
X108541721Y-83030830D01*
X108509763Y-83031071D01*
X108470103Y-83031294D01*
X108433262Y-83031356D01*
X108400506Y-83031267D01*
X108373105Y-83031036D01*
X108352325Y-83030671D01*
X108339435Y-83030182D01*
X108336010Y-83029832D01*
X108329533Y-83028147D01*
X108324227Y-83025624D01*
X108319976Y-83021337D01*
X108316663Y-83014359D01*
X108314171Y-83003764D01*
X108312383Y-82988626D01*
X108311184Y-82968020D01*
X108310454Y-82941018D01*
X108310079Y-82906694D01*
X108309941Y-82864124D01*
X108309922Y-82823070D01*
X108309940Y-82775583D01*
X108310031Y-82736997D01*
X108310248Y-82706294D01*
X108310643Y-82682452D01*
X108311269Y-82664452D01*
X108312180Y-82651273D01*
X108313429Y-82641896D01*
X108315068Y-82635301D01*
X108317151Y-82630467D01*
X108319731Y-82626374D01*
X108320182Y-82625736D01*
X108330441Y-82611328D01*
X108438004Y-82611561D01*
X108438004Y-82611561D01*
G37*
X108438004Y-82611561D02*
X108474894Y-82611838D01*
X108513246Y-82612471D01*
X108550241Y-82613388D01*
X108583060Y-82614519D01*
X108608886Y-82615795D01*
X108609714Y-82615846D01*
X108636395Y-82617677D01*
X108654988Y-82619461D01*
X108667316Y-82621578D01*
X108675203Y-82624406D01*
X108680474Y-82628325D01*
X108682888Y-82631046D01*
X108690431Y-82646524D01*
X108691112Y-82663290D01*
X108685460Y-82678151D01*
X108674001Y-82687914D01*
X108673448Y-82688146D01*
X108666288Y-82689244D01*
X108650605Y-82690517D01*
X108627795Y-82691889D01*
X108599254Y-82693285D01*
X108566377Y-82694629D01*
X108531278Y-82695825D01*
X108495838Y-82697058D01*
X108463668Y-82698448D01*
X108436097Y-82699916D01*
X108414453Y-82701382D01*
X108400063Y-82702767D01*
X108394255Y-82703992D01*
X108394249Y-82703999D01*
X108391961Y-82710723D01*
X108389575Y-82724328D01*
X108387707Y-82740835D01*
X108384843Y-82773603D01*
X108481543Y-82776227D01*
X108517635Y-82777344D01*
X108545094Y-82778709D01*
X108565207Y-82780664D01*
X108579263Y-82783552D01*
X108588549Y-82787715D01*
X108594353Y-82793496D01*
X108597963Y-82801238D01*
X108599796Y-82807693D01*
X108599456Y-82822031D01*
X108593547Y-82837215D01*
X108584113Y-82848861D01*
X108579236Y-82851790D01*
X108571627Y-82853053D01*
X108555833Y-82854423D01*
X108533587Y-82855793D01*
X108506625Y-82857055D01*
X108477354Y-82858084D01*
X108384336Y-82860838D01*
X108384336Y-82947154D01*
X108526963Y-82950650D01*
X108571079Y-82951765D01*
X108606288Y-82952888D01*
X108633603Y-82954283D01*
X108654035Y-82956214D01*
X108668596Y-82958943D01*
X108678298Y-82962734D01*
X108684154Y-82967850D01*
X108687174Y-82974555D01*
X108688371Y-82983112D01*
X108688730Y-82992750D01*
X108688929Y-83002398D01*
X108688339Y-83010208D01*
X108686012Y-83016383D01*
X108681005Y-83021126D01*
X108672372Y-83024638D01*
X108659167Y-83027122D01*
X108640445Y-83028781D01*
X108615260Y-83029817D01*
X108582667Y-83030433D01*
X108541721Y-83030830D01*
X108509763Y-83031071D01*
X108470103Y-83031294D01*
X108433262Y-83031356D01*
X108400506Y-83031267D01*
X108373105Y-83031036D01*
X108352325Y-83030671D01*
X108339435Y-83030182D01*
X108336010Y-83029832D01*
X108329533Y-83028147D01*
X108324227Y-83025624D01*
X108319976Y-83021337D01*
X108316663Y-83014359D01*
X108314171Y-83003764D01*
X108312383Y-82988626D01*
X108311184Y-82968020D01*
X108310454Y-82941018D01*
X108310079Y-82906694D01*
X108309941Y-82864124D01*
X108309922Y-82823070D01*
X108309940Y-82775583D01*
X108310031Y-82736997D01*
X108310248Y-82706294D01*
X108310643Y-82682452D01*
X108311269Y-82664452D01*
X108312180Y-82651273D01*
X108313429Y-82641896D01*
X108315068Y-82635301D01*
X108317151Y-82630467D01*
X108319731Y-82626374D01*
X108320182Y-82625736D01*
X108330441Y-82611328D01*
X108438004Y-82611561D01*
G36*
X107672798Y-82617917D02*
G01*
X107674922Y-82618946D01*
X107686750Y-82626615D01*
X107705334Y-82640886D01*
X107730744Y-82661818D01*
X107763051Y-82689472D01*
X107802326Y-82723906D01*
X107848641Y-82765181D01*
X107855957Y-82771748D01*
X107882091Y-82795223D01*
X107906826Y-82817439D01*
X107928856Y-82837222D01*
X107946876Y-82853399D01*
X107959577Y-82864797D01*
X107963989Y-82868752D01*
X107975035Y-82877889D01*
X107982863Y-82882960D01*
X107985016Y-82883317D01*
X107985836Y-82877939D01*
X107986942Y-82864025D01*
X107988252Y-82842956D01*
X107989686Y-82816110D01*
X107991163Y-82784868D01*
X107992206Y-82760492D01*
X107994023Y-82721343D01*
X107995998Y-82688233D01*
X107998055Y-82662073D01*
X108000121Y-82643773D01*
X108002121Y-82634246D01*
X108002620Y-82633319D01*
X108010889Y-82627322D01*
X108023654Y-82621597D01*
X108024876Y-82621181D01*
X108039198Y-82618239D01*
X108052349Y-82620955D01*
X108058619Y-82623695D01*
X108075585Y-82631746D01*
X108078992Y-82793929D01*
X108079950Y-82845658D01*
X108080396Y-82888450D01*
X108080247Y-82923284D01*
X108079422Y-82951134D01*
X108077837Y-82972978D01*
X108075411Y-82989793D01*
X108072062Y-83002554D01*
X108067708Y-83012239D01*
X108062265Y-83019824D01*
X108059761Y-83022494D01*
X108053918Y-83027622D01*
X108047822Y-83030798D01*
X108040778Y-83031555D01*
X108032092Y-83029427D01*
X108021068Y-83023947D01*
X108007012Y-83014646D01*
X107989229Y-83001059D01*
X107967024Y-82982719D01*
X107939703Y-82959157D01*
X107906570Y-82929908D01*
X107866932Y-82894503D01*
X107859575Y-82887909D01*
X107823635Y-82855708D01*
X107794367Y-82829553D01*
X107771073Y-82808849D01*
X107753056Y-82792998D01*
X107739617Y-82781406D01*
X107730061Y-82773475D01*
X107723687Y-82768609D01*
X107719800Y-82766212D01*
X107717701Y-82765688D01*
X107716988Y-82766045D01*
X107716165Y-82771403D01*
X107715023Y-82785271D01*
X107713651Y-82806243D01*
X107712136Y-82832916D01*
X107710566Y-82863885D01*
X107709609Y-82884485D01*
X107708016Y-82917873D01*
X107706387Y-82948267D01*
X107704816Y-82974157D01*
X107703400Y-82994031D01*
X107702233Y-83006379D01*
X107701708Y-83009497D01*
X107695313Y-83017851D01*
X107683550Y-83026163D01*
X107670633Y-83031822D01*
X107664006Y-83032857D01*
X107654486Y-83030361D01*
X107648877Y-83027649D01*
X107640650Y-83019957D01*
X107632224Y-83007982D01*
X107631514Y-83006716D01*
X107629135Y-83001544D01*
X107627230Y-82994934D01*
X107625748Y-82985810D01*
X107624635Y-82973091D01*
X107623842Y-82955700D01*
X107623317Y-82932558D01*
X107623008Y-82902586D01*
X107622863Y-82864705D01*
X107622832Y-82824648D01*
X107622867Y-82779261D01*
X107623010Y-82742689D01*
X107623318Y-82713823D01*
X107623846Y-82691557D01*
X107624652Y-82674781D01*
X107625793Y-82662390D01*
X107627324Y-82653275D01*
X107629302Y-82646328D01*
X107631784Y-82640443D01*
X107632291Y-82639406D01*
X107643961Y-82622530D01*
X107657430Y-82615383D01*
X107672798Y-82617917D01*
X107672798Y-82617917D01*
G37*
X107672798Y-82617917D02*
X107674922Y-82618946D01*
X107686750Y-82626615D01*
X107705334Y-82640886D01*
X107730744Y-82661818D01*
X107763051Y-82689472D01*
X107802326Y-82723906D01*
X107848641Y-82765181D01*
X107855957Y-82771748D01*
X107882091Y-82795223D01*
X107906826Y-82817439D01*
X107928856Y-82837222D01*
X107946876Y-82853399D01*
X107959577Y-82864797D01*
X107963989Y-82868752D01*
X107975035Y-82877889D01*
X107982863Y-82882960D01*
X107985016Y-82883317D01*
X107985836Y-82877939D01*
X107986942Y-82864025D01*
X107988252Y-82842956D01*
X107989686Y-82816110D01*
X107991163Y-82784868D01*
X107992206Y-82760492D01*
X107994023Y-82721343D01*
X107995998Y-82688233D01*
X107998055Y-82662073D01*
X108000121Y-82643773D01*
X108002121Y-82634246D01*
X108002620Y-82633319D01*
X108010889Y-82627322D01*
X108023654Y-82621597D01*
X108024876Y-82621181D01*
X108039198Y-82618239D01*
X108052349Y-82620955D01*
X108058619Y-82623695D01*
X108075585Y-82631746D01*
X108078992Y-82793929D01*
X108079950Y-82845658D01*
X108080396Y-82888450D01*
X108080247Y-82923284D01*
X108079422Y-82951134D01*
X108077837Y-82972978D01*
X108075411Y-82989793D01*
X108072062Y-83002554D01*
X108067708Y-83012239D01*
X108062265Y-83019824D01*
X108059761Y-83022494D01*
X108053918Y-83027622D01*
X108047822Y-83030798D01*
X108040778Y-83031555D01*
X108032092Y-83029427D01*
X108021068Y-83023947D01*
X108007012Y-83014646D01*
X107989229Y-83001059D01*
X107967024Y-82982719D01*
X107939703Y-82959157D01*
X107906570Y-82929908D01*
X107866932Y-82894503D01*
X107859575Y-82887909D01*
X107823635Y-82855708D01*
X107794367Y-82829553D01*
X107771073Y-82808849D01*
X107753056Y-82792998D01*
X107739617Y-82781406D01*
X107730061Y-82773475D01*
X107723687Y-82768609D01*
X107719800Y-82766212D01*
X107717701Y-82765688D01*
X107716988Y-82766045D01*
X107716165Y-82771403D01*
X107715023Y-82785271D01*
X107713651Y-82806243D01*
X107712136Y-82832916D01*
X107710566Y-82863885D01*
X107709609Y-82884485D01*
X107708016Y-82917873D01*
X107706387Y-82948267D01*
X107704816Y-82974157D01*
X107703400Y-82994031D01*
X107702233Y-83006379D01*
X107701708Y-83009497D01*
X107695313Y-83017851D01*
X107683550Y-83026163D01*
X107670633Y-83031822D01*
X107664006Y-83032857D01*
X107654486Y-83030361D01*
X107648877Y-83027649D01*
X107640650Y-83019957D01*
X107632224Y-83007982D01*
X107631514Y-83006716D01*
X107629135Y-83001544D01*
X107627230Y-82994934D01*
X107625748Y-82985810D01*
X107624635Y-82973091D01*
X107623842Y-82955700D01*
X107623317Y-82932558D01*
X107623008Y-82902586D01*
X107622863Y-82864705D01*
X107622832Y-82824648D01*
X107622867Y-82779261D01*
X107623010Y-82742689D01*
X107623318Y-82713823D01*
X107623846Y-82691557D01*
X107624652Y-82674781D01*
X107625793Y-82662390D01*
X107627324Y-82653275D01*
X107629302Y-82646328D01*
X107631784Y-82640443D01*
X107632291Y-82639406D01*
X107643961Y-82622530D01*
X107657430Y-82615383D01*
X107672798Y-82617917D01*
G36*
X107276322Y-82619476D02*
G01*
X107305986Y-82620630D01*
X107328946Y-82623106D01*
X107346798Y-82627189D01*
X107361136Y-82633166D01*
X107373555Y-82641320D01*
X107377040Y-82644145D01*
X107389339Y-82659523D01*
X107391936Y-82676084D01*
X107384784Y-82692726D01*
X107379394Y-82698947D01*
X107369684Y-82707046D01*
X107359916Y-82709666D01*
X107345908Y-82708246D01*
X107289143Y-82701257D01*
X107235895Y-82699576D01*
X107186996Y-82703004D01*
X107143280Y-82711342D01*
X107105580Y-82724390D01*
X107074728Y-82741949D01*
X107051558Y-82763818D01*
X107040449Y-82781390D01*
X107031323Y-82810136D01*
X107031491Y-82838093D01*
X107040325Y-82864496D01*
X107057198Y-82888580D01*
X107081482Y-82909579D01*
X107112549Y-82926728D01*
X107149772Y-82939261D01*
X107173867Y-82944103D01*
X107198226Y-82946617D01*
X107226633Y-82947571D01*
X107256217Y-82947069D01*
X107284106Y-82945220D01*
X107307432Y-82942129D01*
X107321485Y-82938619D01*
X107335876Y-82928953D01*
X107342256Y-82913798D01*
X107341684Y-82900695D01*
X107339226Y-82895939D01*
X107332715Y-82892696D01*
X107320179Y-82890383D01*
X107300317Y-82888470D01*
X107270891Y-82885199D01*
X107250287Y-82880601D01*
X107237456Y-82874345D01*
X107231595Y-82866790D01*
X107228427Y-82846562D01*
X107234140Y-82828113D01*
X107241231Y-82819312D01*
X107246839Y-82814544D01*
X107253020Y-82811187D01*
X107261594Y-82808950D01*
X107274379Y-82807539D01*
X107293194Y-82806661D01*
X107319856Y-82806024D01*
X107324327Y-82805937D01*
X107355410Y-82805581D01*
X107378093Y-82806231D01*
X107393887Y-82808407D01*
X107404300Y-82812629D01*
X107410845Y-82819415D01*
X107415030Y-82829287D01*
X107417273Y-82837918D01*
X107419635Y-82853732D01*
X107421096Y-82875161D01*
X107421687Y-82899662D01*
X107421436Y-82924690D01*
X107420374Y-82947703D01*
X107418530Y-82966157D01*
X107415934Y-82977508D01*
X107415640Y-82978143D01*
X107405466Y-82989571D01*
X107387408Y-83001124D01*
X107363436Y-83011753D01*
X107336775Y-83020093D01*
X107314292Y-83024283D01*
X107285160Y-83027509D01*
X107252620Y-83029624D01*
X107219911Y-83030481D01*
X107190273Y-83029935D01*
X107166945Y-83027839D01*
X107166619Y-83027789D01*
X107111549Y-83015528D01*
X107064091Y-82997022D01*
X107024037Y-82972134D01*
X106991178Y-82940726D01*
X106965306Y-82902659D01*
X106959112Y-82890423D01*
X106946550Y-82856792D01*
X106942371Y-82825249D01*
X106946612Y-82793472D01*
X106959308Y-82759140D01*
X106961181Y-82755195D01*
X106981957Y-82718544D01*
X107005951Y-82689255D01*
X107034787Y-82666014D01*
X107070090Y-82647505D01*
X107112684Y-82632647D01*
X107130752Y-82627728D01*
X107147122Y-82624225D01*
X107164180Y-82621886D01*
X107184314Y-82620458D01*
X107209912Y-82619689D01*
X107238359Y-82619360D01*
X107276322Y-82619476D01*
X107276322Y-82619476D01*
G37*
X107276322Y-82619476D02*
X107305986Y-82620630D01*
X107328946Y-82623106D01*
X107346798Y-82627189D01*
X107361136Y-82633166D01*
X107373555Y-82641320D01*
X107377040Y-82644145D01*
X107389339Y-82659523D01*
X107391936Y-82676084D01*
X107384784Y-82692726D01*
X107379394Y-82698947D01*
X107369684Y-82707046D01*
X107359916Y-82709666D01*
X107345908Y-82708246D01*
X107289143Y-82701257D01*
X107235895Y-82699576D01*
X107186996Y-82703004D01*
X107143280Y-82711342D01*
X107105580Y-82724390D01*
X107074728Y-82741949D01*
X107051558Y-82763818D01*
X107040449Y-82781390D01*
X107031323Y-82810136D01*
X107031491Y-82838093D01*
X107040325Y-82864496D01*
X107057198Y-82888580D01*
X107081482Y-82909579D01*
X107112549Y-82926728D01*
X107149772Y-82939261D01*
X107173867Y-82944103D01*
X107198226Y-82946617D01*
X107226633Y-82947571D01*
X107256217Y-82947069D01*
X107284106Y-82945220D01*
X107307432Y-82942129D01*
X107321485Y-82938619D01*
X107335876Y-82928953D01*
X107342256Y-82913798D01*
X107341684Y-82900695D01*
X107339226Y-82895939D01*
X107332715Y-82892696D01*
X107320179Y-82890383D01*
X107300317Y-82888470D01*
X107270891Y-82885199D01*
X107250287Y-82880601D01*
X107237456Y-82874345D01*
X107231595Y-82866790D01*
X107228427Y-82846562D01*
X107234140Y-82828113D01*
X107241231Y-82819312D01*
X107246839Y-82814544D01*
X107253020Y-82811187D01*
X107261594Y-82808950D01*
X107274379Y-82807539D01*
X107293194Y-82806661D01*
X107319856Y-82806024D01*
X107324327Y-82805937D01*
X107355410Y-82805581D01*
X107378093Y-82806231D01*
X107393887Y-82808407D01*
X107404300Y-82812629D01*
X107410845Y-82819415D01*
X107415030Y-82829287D01*
X107417273Y-82837918D01*
X107419635Y-82853732D01*
X107421096Y-82875161D01*
X107421687Y-82899662D01*
X107421436Y-82924690D01*
X107420374Y-82947703D01*
X107418530Y-82966157D01*
X107415934Y-82977508D01*
X107415640Y-82978143D01*
X107405466Y-82989571D01*
X107387408Y-83001124D01*
X107363436Y-83011753D01*
X107336775Y-83020093D01*
X107314292Y-83024283D01*
X107285160Y-83027509D01*
X107252620Y-83029624D01*
X107219911Y-83030481D01*
X107190273Y-83029935D01*
X107166945Y-83027839D01*
X107166619Y-83027789D01*
X107111549Y-83015528D01*
X107064091Y-82997022D01*
X107024037Y-82972134D01*
X106991178Y-82940726D01*
X106965306Y-82902659D01*
X106959112Y-82890423D01*
X106946550Y-82856792D01*
X106942371Y-82825249D01*
X106946612Y-82793472D01*
X106959308Y-82759140D01*
X106961181Y-82755195D01*
X106981957Y-82718544D01*
X107005951Y-82689255D01*
X107034787Y-82666014D01*
X107070090Y-82647505D01*
X107112684Y-82632647D01*
X107130752Y-82627728D01*
X107147122Y-82624225D01*
X107164180Y-82621886D01*
X107184314Y-82620458D01*
X107209912Y-82619689D01*
X107238359Y-82619360D01*
X107276322Y-82619476D01*
G36*
X106726767Y-82621304D02*
G01*
X106733462Y-82625344D01*
X106736804Y-82632971D01*
X106740090Y-82647588D01*
X106742693Y-82666282D01*
X106743031Y-82669745D01*
X106744213Y-82688109D01*
X106745151Y-82713478D01*
X106745849Y-82744228D01*
X106746309Y-82778737D01*
X106746534Y-82815383D01*
X106746525Y-82852543D01*
X106746286Y-82888594D01*
X106745819Y-82921913D01*
X106745127Y-82950880D01*
X106744212Y-82973869D01*
X106743077Y-82989260D01*
X106742522Y-82993140D01*
X106735359Y-83013579D01*
X106723905Y-83026938D01*
X106709506Y-83032311D01*
X106693507Y-83028787D01*
X106691416Y-83027649D01*
X106683242Y-83019912D01*
X106675015Y-83007875D01*
X106674391Y-83006716D01*
X106672121Y-83001338D01*
X106670254Y-82993992D01*
X106668733Y-82983645D01*
X106667500Y-82969264D01*
X106666498Y-82949817D01*
X106665670Y-82924270D01*
X106664959Y-82891591D01*
X106664307Y-82850745D01*
X106663855Y-82816742D01*
X106661662Y-82642644D01*
X106678078Y-82630955D01*
X106694423Y-82622800D01*
X106711806Y-82619466D01*
X106726767Y-82621304D01*
X106726767Y-82621304D01*
G37*
X106726767Y-82621304D02*
X106733462Y-82625344D01*
X106736804Y-82632971D01*
X106740090Y-82647588D01*
X106742693Y-82666282D01*
X106743031Y-82669745D01*
X106744213Y-82688109D01*
X106745151Y-82713478D01*
X106745849Y-82744228D01*
X106746309Y-82778737D01*
X106746534Y-82815383D01*
X106746525Y-82852543D01*
X106746286Y-82888594D01*
X106745819Y-82921913D01*
X106745127Y-82950880D01*
X106744212Y-82973869D01*
X106743077Y-82989260D01*
X106742522Y-82993140D01*
X106735359Y-83013579D01*
X106723905Y-83026938D01*
X106709506Y-83032311D01*
X106693507Y-83028787D01*
X106691416Y-83027649D01*
X106683242Y-83019912D01*
X106675015Y-83007875D01*
X106674391Y-83006716D01*
X106672121Y-83001338D01*
X106670254Y-82993992D01*
X106668733Y-82983645D01*
X106667500Y-82969264D01*
X106666498Y-82949817D01*
X106665670Y-82924270D01*
X106664959Y-82891591D01*
X106664307Y-82850745D01*
X106663855Y-82816742D01*
X106661662Y-82642644D01*
X106678078Y-82630955D01*
X106694423Y-82622800D01*
X106711806Y-82619466D01*
X106726767Y-82621304D01*
G36*
X106303574Y-82616000D02*
G01*
X106341314Y-82618531D01*
X106375595Y-82622149D01*
X106403719Y-82626701D01*
X106412363Y-82628678D01*
X106434952Y-82636892D01*
X106452211Y-82647996D01*
X106462417Y-82660653D01*
X106464453Y-82669130D01*
X106461307Y-82680956D01*
X106453691Y-82694255D01*
X106444333Y-82704883D01*
X106438578Y-82708406D01*
X106430022Y-82709015D01*
X106414283Y-82708350D01*
X106393997Y-82706563D01*
X106381360Y-82705095D01*
X106348030Y-82701836D01*
X106310811Y-82699786D01*
X106272242Y-82698944D01*
X106234864Y-82699309D01*
X106201218Y-82700880D01*
X106173845Y-82703659D01*
X106165074Y-82705136D01*
X106142312Y-82711129D01*
X106124493Y-82718731D01*
X106117992Y-82723132D01*
X106109549Y-82731084D01*
X106108050Y-82736498D01*
X106112746Y-82743100D01*
X106113751Y-82744217D01*
X106120746Y-82749817D01*
X106131920Y-82755215D01*
X106148284Y-82760683D01*
X106170849Y-82766493D01*
X106200623Y-82772916D01*
X106238618Y-82780226D01*
X106265612Y-82785119D01*
X106295555Y-82790667D01*
X106323769Y-82796275D01*
X106348097Y-82801485D01*
X106366386Y-82805842D01*
X106374752Y-82808244D01*
X106407508Y-82823252D01*
X106433678Y-82843312D01*
X106452362Y-82867382D01*
X106462658Y-82894421D01*
X106464435Y-82911900D01*
X106461845Y-82934146D01*
X106453284Y-82953655D01*
X106437505Y-82972549D01*
X106419763Y-82987925D01*
X106400329Y-83001658D01*
X106380057Y-83012171D01*
X106357235Y-83019878D01*
X106330150Y-83025194D01*
X106297089Y-83028533D01*
X106256339Y-83030312D01*
X106243691Y-83030581D01*
X106214392Y-83030955D01*
X106187346Y-83031040D01*
X106164636Y-83030849D01*
X106148344Y-83030396D01*
X106141992Y-83029944D01*
X106100904Y-83024271D01*
X106068976Y-83018188D01*
X106045448Y-83011281D01*
X106029557Y-83003135D01*
X106020542Y-82993336D01*
X106017642Y-82981468D01*
X106020095Y-82967118D01*
X106021092Y-82964109D01*
X106024486Y-82956470D01*
X106029410Y-82950669D01*
X106037064Y-82946534D01*
X106048652Y-82943897D01*
X106065374Y-82942585D01*
X106088433Y-82942429D01*
X106119029Y-82943257D01*
X106156875Y-82944833D01*
X106206736Y-82946674D01*
X106247785Y-82947215D01*
X106281060Y-82946364D01*
X106307597Y-82944026D01*
X106328435Y-82940110D01*
X106344608Y-82934520D01*
X106357156Y-82927165D01*
X106357681Y-82926769D01*
X106367592Y-82917441D01*
X106372317Y-82909392D01*
X106372262Y-82907215D01*
X106365802Y-82899853D01*
X106351783Y-82892669D01*
X106329584Y-82885453D01*
X106298590Y-82877997D01*
X106267509Y-82871806D01*
X106219786Y-82862774D01*
X106180662Y-82854975D01*
X106148948Y-82848010D01*
X106123455Y-82841482D01*
X106102997Y-82834990D01*
X106086384Y-82828138D01*
X106072427Y-82820527D01*
X106059940Y-82811758D01*
X106047733Y-82801433D01*
X106042069Y-82796224D01*
X106029025Y-82783457D01*
X106021795Y-82773832D01*
X106018677Y-82764007D01*
X106017972Y-82750643D01*
X106017969Y-82748890D01*
X106020395Y-82718692D01*
X106028456Y-82694539D01*
X106043320Y-82673616D01*
X106053340Y-82663780D01*
X106077707Y-82646299D01*
X106107836Y-82632943D01*
X106144919Y-82623320D01*
X106190147Y-82617036D01*
X106196563Y-82616454D01*
X106228501Y-82614809D01*
X106265071Y-82614708D01*
X106303574Y-82616000D01*
X106303574Y-82616000D01*
G37*
X106303574Y-82616000D02*
X106341314Y-82618531D01*
X106375595Y-82622149D01*
X106403719Y-82626701D01*
X106412363Y-82628678D01*
X106434952Y-82636892D01*
X106452211Y-82647996D01*
X106462417Y-82660653D01*
X106464453Y-82669130D01*
X106461307Y-82680956D01*
X106453691Y-82694255D01*
X106444333Y-82704883D01*
X106438578Y-82708406D01*
X106430022Y-82709015D01*
X106414283Y-82708350D01*
X106393997Y-82706563D01*
X106381360Y-82705095D01*
X106348030Y-82701836D01*
X106310811Y-82699786D01*
X106272242Y-82698944D01*
X106234864Y-82699309D01*
X106201218Y-82700880D01*
X106173845Y-82703659D01*
X106165074Y-82705136D01*
X106142312Y-82711129D01*
X106124493Y-82718731D01*
X106117992Y-82723132D01*
X106109549Y-82731084D01*
X106108050Y-82736498D01*
X106112746Y-82743100D01*
X106113751Y-82744217D01*
X106120746Y-82749817D01*
X106131920Y-82755215D01*
X106148284Y-82760683D01*
X106170849Y-82766493D01*
X106200623Y-82772916D01*
X106238618Y-82780226D01*
X106265612Y-82785119D01*
X106295555Y-82790667D01*
X106323769Y-82796275D01*
X106348097Y-82801485D01*
X106366386Y-82805842D01*
X106374752Y-82808244D01*
X106407508Y-82823252D01*
X106433678Y-82843312D01*
X106452362Y-82867382D01*
X106462658Y-82894421D01*
X106464435Y-82911900D01*
X106461845Y-82934146D01*
X106453284Y-82953655D01*
X106437505Y-82972549D01*
X106419763Y-82987925D01*
X106400329Y-83001658D01*
X106380057Y-83012171D01*
X106357235Y-83019878D01*
X106330150Y-83025194D01*
X106297089Y-83028533D01*
X106256339Y-83030312D01*
X106243691Y-83030581D01*
X106214392Y-83030955D01*
X106187346Y-83031040D01*
X106164636Y-83030849D01*
X106148344Y-83030396D01*
X106141992Y-83029944D01*
X106100904Y-83024271D01*
X106068976Y-83018188D01*
X106045448Y-83011281D01*
X106029557Y-83003135D01*
X106020542Y-82993336D01*
X106017642Y-82981468D01*
X106020095Y-82967118D01*
X106021092Y-82964109D01*
X106024486Y-82956470D01*
X106029410Y-82950669D01*
X106037064Y-82946534D01*
X106048652Y-82943897D01*
X106065374Y-82942585D01*
X106088433Y-82942429D01*
X106119029Y-82943257D01*
X106156875Y-82944833D01*
X106206736Y-82946674D01*
X106247785Y-82947215D01*
X106281060Y-82946364D01*
X106307597Y-82944026D01*
X106328435Y-82940110D01*
X106344608Y-82934520D01*
X106357156Y-82927165D01*
X106357681Y-82926769D01*
X106367592Y-82917441D01*
X106372317Y-82909392D01*
X106372262Y-82907215D01*
X106365802Y-82899853D01*
X106351783Y-82892669D01*
X106329584Y-82885453D01*
X106298590Y-82877997D01*
X106267509Y-82871806D01*
X106219786Y-82862774D01*
X106180662Y-82854975D01*
X106148948Y-82848010D01*
X106123455Y-82841482D01*
X106102997Y-82834990D01*
X106086384Y-82828138D01*
X106072427Y-82820527D01*
X106059940Y-82811758D01*
X106047733Y-82801433D01*
X106042069Y-82796224D01*
X106029025Y-82783457D01*
X106021795Y-82773832D01*
X106018677Y-82764007D01*
X106017972Y-82750643D01*
X106017969Y-82748890D01*
X106020395Y-82718692D01*
X106028456Y-82694539D01*
X106043320Y-82673616D01*
X106053340Y-82663780D01*
X106077707Y-82646299D01*
X106107836Y-82632943D01*
X106144919Y-82623320D01*
X106190147Y-82617036D01*
X106196563Y-82616454D01*
X106228501Y-82614809D01*
X106265071Y-82614708D01*
X106303574Y-82616000D01*
G36*
X105733462Y-82614316D02*
G01*
X105761272Y-82614549D01*
X105782434Y-82615039D01*
X105798039Y-82615837D01*
X105809177Y-82616994D01*
X105816940Y-82618562D01*
X105822419Y-82620591D01*
X105825750Y-82622490D01*
X105837110Y-82632005D01*
X105844492Y-82641384D01*
X105847731Y-82655942D01*
X105844756Y-82671562D01*
X105836697Y-82683856D01*
X105832863Y-82686572D01*
X105824260Y-82688564D01*
X105806335Y-82690508D01*
X105779692Y-82692365D01*
X105744930Y-82694096D01*
X105702650Y-82695663D01*
X105683831Y-82696233D01*
X105647834Y-82697319D01*
X105615200Y-82698417D01*
X105587207Y-82699473D01*
X105565133Y-82700436D01*
X105550257Y-82701253D01*
X105543857Y-82701873D01*
X105543715Y-82701935D01*
X105542426Y-82707377D01*
X105540681Y-82720046D01*
X105538843Y-82737282D01*
X105538721Y-82738585D01*
X105535478Y-82773483D01*
X105630662Y-82776359D01*
X105668259Y-82777691D01*
X105697082Y-82779357D01*
X105718279Y-82781696D01*
X105732997Y-82785049D01*
X105742383Y-82789757D01*
X105747586Y-82796161D01*
X105749753Y-82804601D01*
X105750078Y-82811810D01*
X105748421Y-82825674D01*
X105742837Y-82836676D01*
X105732405Y-82845113D01*
X105716206Y-82851282D01*
X105693319Y-82855478D01*
X105662823Y-82857996D01*
X105623799Y-82859134D01*
X105602490Y-82859275D01*
X105536758Y-82859375D01*
X105536758Y-82947081D01*
X105671943Y-82950493D01*
X105708298Y-82951505D01*
X105741990Y-82952621D01*
X105771569Y-82953780D01*
X105795580Y-82954919D01*
X105812571Y-82955976D01*
X105821074Y-82956885D01*
X105837172Y-82964522D01*
X105845920Y-82978164D01*
X105846593Y-82996432D01*
X105845094Y-83002670D01*
X105842209Y-83010641D01*
X105838156Y-83017083D01*
X105831941Y-83022153D01*
X105822567Y-83026005D01*
X105809038Y-83028795D01*
X105790360Y-83030678D01*
X105765538Y-83031809D01*
X105733574Y-83032344D01*
X105693475Y-83032439D01*
X105655245Y-83032303D01*
X105617148Y-83032021D01*
X105581390Y-83031571D01*
X105549429Y-83030986D01*
X105522721Y-83030298D01*
X105502725Y-83029540D01*
X105490898Y-83028745D01*
X105489629Y-83028583D01*
X105481690Y-83027043D01*
X105475201Y-83024450D01*
X105470014Y-83019873D01*
X105465980Y-83012381D01*
X105462953Y-83001041D01*
X105460785Y-82984923D01*
X105459327Y-82963095D01*
X105458433Y-82934626D01*
X105457954Y-82898583D01*
X105457743Y-82854035D01*
X105457690Y-82827129D01*
X105457701Y-82777327D01*
X105457972Y-82736502D01*
X105458610Y-82703712D01*
X105459725Y-82678014D01*
X105461422Y-82658464D01*
X105463809Y-82644119D01*
X105466995Y-82634037D01*
X105471085Y-82627273D01*
X105476189Y-82622885D01*
X105481246Y-82620382D01*
X105490535Y-82618723D01*
X105509210Y-82617302D01*
X105536740Y-82616138D01*
X105572592Y-82615251D01*
X105616233Y-82614658D01*
X105653532Y-82614418D01*
X105697912Y-82614289D01*
X105733462Y-82614316D01*
X105733462Y-82614316D01*
G37*
X105733462Y-82614316D02*
X105761272Y-82614549D01*
X105782434Y-82615039D01*
X105798039Y-82615837D01*
X105809177Y-82616994D01*
X105816940Y-82618562D01*
X105822419Y-82620591D01*
X105825750Y-82622490D01*
X105837110Y-82632005D01*
X105844492Y-82641384D01*
X105847731Y-82655942D01*
X105844756Y-82671562D01*
X105836697Y-82683856D01*
X105832863Y-82686572D01*
X105824260Y-82688564D01*
X105806335Y-82690508D01*
X105779692Y-82692365D01*
X105744930Y-82694096D01*
X105702650Y-82695663D01*
X105683831Y-82696233D01*
X105647834Y-82697319D01*
X105615200Y-82698417D01*
X105587207Y-82699473D01*
X105565133Y-82700436D01*
X105550257Y-82701253D01*
X105543857Y-82701873D01*
X105543715Y-82701935D01*
X105542426Y-82707377D01*
X105540681Y-82720046D01*
X105538843Y-82737282D01*
X105538721Y-82738585D01*
X105535478Y-82773483D01*
X105630662Y-82776359D01*
X105668259Y-82777691D01*
X105697082Y-82779357D01*
X105718279Y-82781696D01*
X105732997Y-82785049D01*
X105742383Y-82789757D01*
X105747586Y-82796161D01*
X105749753Y-82804601D01*
X105750078Y-82811810D01*
X105748421Y-82825674D01*
X105742837Y-82836676D01*
X105732405Y-82845113D01*
X105716206Y-82851282D01*
X105693319Y-82855478D01*
X105662823Y-82857996D01*
X105623799Y-82859134D01*
X105602490Y-82859275D01*
X105536758Y-82859375D01*
X105536758Y-82947081D01*
X105671943Y-82950493D01*
X105708298Y-82951505D01*
X105741990Y-82952621D01*
X105771569Y-82953780D01*
X105795580Y-82954919D01*
X105812571Y-82955976D01*
X105821074Y-82956885D01*
X105837172Y-82964522D01*
X105845920Y-82978164D01*
X105846593Y-82996432D01*
X105845094Y-83002670D01*
X105842209Y-83010641D01*
X105838156Y-83017083D01*
X105831941Y-83022153D01*
X105822567Y-83026005D01*
X105809038Y-83028795D01*
X105790360Y-83030678D01*
X105765538Y-83031809D01*
X105733574Y-83032344D01*
X105693475Y-83032439D01*
X105655245Y-83032303D01*
X105617148Y-83032021D01*
X105581390Y-83031571D01*
X105549429Y-83030986D01*
X105522721Y-83030298D01*
X105502725Y-83029540D01*
X105490898Y-83028745D01*
X105489629Y-83028583D01*
X105481690Y-83027043D01*
X105475201Y-83024450D01*
X105470014Y-83019873D01*
X105465980Y-83012381D01*
X105462953Y-83001041D01*
X105460785Y-82984923D01*
X105459327Y-82963095D01*
X105458433Y-82934626D01*
X105457954Y-82898583D01*
X105457743Y-82854035D01*
X105457690Y-82827129D01*
X105457701Y-82777327D01*
X105457972Y-82736502D01*
X105458610Y-82703712D01*
X105459725Y-82678014D01*
X105461422Y-82658464D01*
X105463809Y-82644119D01*
X105466995Y-82634037D01*
X105471085Y-82627273D01*
X105476189Y-82622885D01*
X105481246Y-82620382D01*
X105490535Y-82618723D01*
X105509210Y-82617302D01*
X105536740Y-82616138D01*
X105572592Y-82615251D01*
X105616233Y-82614658D01*
X105653532Y-82614418D01*
X105697912Y-82614289D01*
X105733462Y-82614316D01*
G36*
X104916298Y-82614065D02*
G01*
X104949701Y-82615228D01*
X104984226Y-82617287D01*
X105018131Y-82620160D01*
X105049674Y-82623761D01*
X105077112Y-82628005D01*
X105098704Y-82632807D01*
X105100559Y-82633340D01*
X105144583Y-82650732D01*
X105181425Y-82674885D01*
X105211267Y-82705993D01*
X105234291Y-82744247D01*
X105250676Y-82789840D01*
X105251649Y-82793586D01*
X105255776Y-82811703D01*
X105256977Y-82825265D01*
X105255209Y-82839114D01*
X105251106Y-82855598D01*
X105234130Y-82901800D01*
X105210096Y-82941043D01*
X105179159Y-82973183D01*
X105141470Y-82998074D01*
X105097184Y-83015573D01*
X105076280Y-83020762D01*
X105061123Y-83023019D01*
X105038982Y-83025126D01*
X105011712Y-83027022D01*
X104981166Y-83028643D01*
X104949199Y-83029928D01*
X104917665Y-83030814D01*
X104888419Y-83031240D01*
X104863314Y-83031142D01*
X104844205Y-83030458D01*
X104832947Y-83029128D01*
X104832305Y-83028951D01*
X104825563Y-83026390D01*
X104820074Y-83022612D01*
X104815708Y-83016649D01*
X104812331Y-83007536D01*
X104809813Y-82994305D01*
X104808021Y-82975991D01*
X104806823Y-82951626D01*
X104806754Y-82948672D01*
X104886875Y-82948672D01*
X104945166Y-82948498D01*
X104973018Y-82947808D01*
X105001735Y-82946084D01*
X105027305Y-82943614D01*
X105040975Y-82941632D01*
X105077715Y-82932614D01*
X105107384Y-82919462D01*
X105132370Y-82901047D01*
X105137844Y-82895809D01*
X105153577Y-82876668D01*
X105165926Y-82855170D01*
X105173185Y-82834638D01*
X105174391Y-82824648D01*
X105170065Y-82803106D01*
X105158179Y-82779971D01*
X105140374Y-82757365D01*
X105118291Y-82737409D01*
X105096164Y-82723492D01*
X105075436Y-82714549D01*
X105052258Y-82707768D01*
X105024732Y-82702800D01*
X104990964Y-82699296D01*
X104952607Y-82697058D01*
X104886875Y-82694178D01*
X104886875Y-82948672D01*
X104806754Y-82948672D01*
X104806088Y-82920245D01*
X104805684Y-82880880D01*
X104805480Y-82832566D01*
X104805479Y-82832265D01*
X104805446Y-82781957D01*
X104805727Y-82740616D01*
X104806426Y-82707291D01*
X104807648Y-82681030D01*
X104809496Y-82660880D01*
X104812076Y-82645890D01*
X104815491Y-82635108D01*
X104819846Y-82627582D01*
X104825246Y-82622360D01*
X104828752Y-82620094D01*
X104840244Y-82616815D01*
X104859827Y-82614775D01*
X104885759Y-82613886D01*
X104916298Y-82614065D01*
X104916298Y-82614065D01*
G37*
X104916298Y-82614065D02*
X104949701Y-82615228D01*
X104984226Y-82617287D01*
X105018131Y-82620160D01*
X105049674Y-82623761D01*
X105077112Y-82628005D01*
X105098704Y-82632807D01*
X105100559Y-82633340D01*
X105144583Y-82650732D01*
X105181425Y-82674885D01*
X105211267Y-82705993D01*
X105234291Y-82744247D01*
X105250676Y-82789840D01*
X105251649Y-82793586D01*
X105255776Y-82811703D01*
X105256977Y-82825265D01*
X105255209Y-82839114D01*
X105251106Y-82855598D01*
X105234130Y-82901800D01*
X105210096Y-82941043D01*
X105179159Y-82973183D01*
X105141470Y-82998074D01*
X105097184Y-83015573D01*
X105076280Y-83020762D01*
X105061123Y-83023019D01*
X105038982Y-83025126D01*
X105011712Y-83027022D01*
X104981166Y-83028643D01*
X104949199Y-83029928D01*
X104917665Y-83030814D01*
X104888419Y-83031240D01*
X104863314Y-83031142D01*
X104844205Y-83030458D01*
X104832947Y-83029128D01*
X104832305Y-83028951D01*
X104825563Y-83026390D01*
X104820074Y-83022612D01*
X104815708Y-83016649D01*
X104812331Y-83007536D01*
X104809813Y-82994305D01*
X104808021Y-82975991D01*
X104806823Y-82951626D01*
X104806754Y-82948672D01*
X104886875Y-82948672D01*
X104945166Y-82948498D01*
X104973018Y-82947808D01*
X105001735Y-82946084D01*
X105027305Y-82943614D01*
X105040975Y-82941632D01*
X105077715Y-82932614D01*
X105107384Y-82919462D01*
X105132370Y-82901047D01*
X105137844Y-82895809D01*
X105153577Y-82876668D01*
X105165926Y-82855170D01*
X105173185Y-82834638D01*
X105174391Y-82824648D01*
X105170065Y-82803106D01*
X105158179Y-82779971D01*
X105140374Y-82757365D01*
X105118291Y-82737409D01*
X105096164Y-82723492D01*
X105075436Y-82714549D01*
X105052258Y-82707768D01*
X105024732Y-82702800D01*
X104990964Y-82699296D01*
X104952607Y-82697058D01*
X104886875Y-82694178D01*
X104886875Y-82948672D01*
X104806754Y-82948672D01*
X104806088Y-82920245D01*
X104805684Y-82880880D01*
X104805480Y-82832566D01*
X104805479Y-82832265D01*
X104805446Y-82781957D01*
X104805727Y-82740616D01*
X104806426Y-82707291D01*
X104807648Y-82681030D01*
X104809496Y-82660880D01*
X104812076Y-82645890D01*
X104815491Y-82635108D01*
X104819846Y-82627582D01*
X104825246Y-82622360D01*
X104828752Y-82620094D01*
X104840244Y-82616815D01*
X104859827Y-82614775D01*
X104885759Y-82613886D01*
X104916298Y-82614065D01*
G36*
X115977145Y-80239818D02*
G01*
X116015791Y-80239977D01*
X116044536Y-80240410D01*
X116064942Y-80241250D01*
X116078573Y-80242635D01*
X116086990Y-80244698D01*
X116091756Y-80247577D01*
X116094433Y-80251407D01*
X116095784Y-80254448D01*
X116098706Y-80264927D01*
X116103480Y-80286186D01*
X116109690Y-80316180D01*
X116116918Y-80352862D01*
X116124745Y-80394187D01*
X116128647Y-80415375D01*
X116136545Y-80457830D01*
X116143981Y-80496274D01*
X116150555Y-80528753D01*
X116155865Y-80553311D01*
X116159511Y-80567993D01*
X116160599Y-80571046D01*
X116167742Y-80575902D01*
X116184663Y-80584534D01*
X116209020Y-80595942D01*
X116238470Y-80609126D01*
X116270674Y-80623088D01*
X116303288Y-80636827D01*
X116333971Y-80649344D01*
X116360382Y-80659640D01*
X116380179Y-80666716D01*
X116391021Y-80669571D01*
X116391454Y-80669587D01*
X116398623Y-80666027D01*
X116414953Y-80656049D01*
X116438900Y-80640656D01*
X116468921Y-80620851D01*
X116503472Y-80597637D01*
X116531702Y-80578407D01*
X116568647Y-80553285D01*
X116602220Y-80530815D01*
X116630880Y-80511999D01*
X116653086Y-80497839D01*
X116667297Y-80489340D01*
X116671798Y-80487282D01*
X116678771Y-80491772D01*
X116693116Y-80504205D01*
X116713292Y-80523020D01*
X116737762Y-80546657D01*
X116764986Y-80573558D01*
X116793424Y-80602163D01*
X116821538Y-80630913D01*
X116847788Y-80658247D01*
X116870635Y-80682607D01*
X116888541Y-80702434D01*
X116899965Y-80716167D01*
X116903435Y-80721978D01*
X116900448Y-80730249D01*
X116891296Y-80746630D01*
X116875692Y-80771560D01*
X116853353Y-80805479D01*
X116823990Y-80848825D01*
X116787320Y-80902038D01*
X116769228Y-80928069D01*
X116752438Y-80953000D01*
X116738888Y-80974688D01*
X116730123Y-80990556D01*
X116727589Y-80997500D01*
X116730053Y-81005790D01*
X116736788Y-81023672D01*
X116746813Y-81048822D01*
X116759147Y-81078911D01*
X116772806Y-81111614D01*
X116786809Y-81144605D01*
X116800175Y-81175558D01*
X116811920Y-81202145D01*
X116821064Y-81222042D01*
X116826624Y-81232921D01*
X116827463Y-81234096D01*
X116834559Y-81236199D01*
X116852647Y-81240277D01*
X116879907Y-81245954D01*
X116914520Y-81252858D01*
X116954665Y-81260616D01*
X116981798Y-81265741D01*
X117024881Y-81273880D01*
X117063950Y-81281400D01*
X117097094Y-81287921D01*
X117122402Y-81293065D01*
X117137964Y-81296453D01*
X117141835Y-81297488D01*
X117144696Y-81300664D01*
X117146912Y-81308649D01*
X117148559Y-81322819D01*
X117149709Y-81344553D01*
X117150437Y-81375228D01*
X117150817Y-81416221D01*
X117150923Y-81466818D01*
X117150862Y-81517762D01*
X117150613Y-81557186D01*
X117150073Y-81586594D01*
X117149142Y-81607491D01*
X117147718Y-81621382D01*
X117145700Y-81629772D01*
X117142986Y-81634165D01*
X117139525Y-81636052D01*
X117128237Y-81638673D01*
X117107743Y-81642798D01*
X117081671Y-81647709D01*
X117069512Y-81649908D01*
X117006052Y-81661374D01*
X116954396Y-81671041D01*
X116913486Y-81679146D01*
X116882261Y-81685926D01*
X116859661Y-81691621D01*
X116844625Y-81696467D01*
X116836095Y-81700702D01*
X116833851Y-81702777D01*
X116829384Y-81711401D01*
X116821211Y-81729631D01*
X116810267Y-81755173D01*
X116797486Y-81785732D01*
X116783800Y-81819012D01*
X116770145Y-81852719D01*
X116757453Y-81884557D01*
X116746659Y-81912232D01*
X116738696Y-81933448D01*
X116734499Y-81945911D01*
X116734084Y-81947962D01*
X116737628Y-81954556D01*
X116747558Y-81970276D01*
X116762830Y-81993544D01*
X116782405Y-82022786D01*
X116805240Y-82056423D01*
X116818769Y-82076164D01*
X116843048Y-82111984D01*
X116864609Y-82144768D01*
X116882396Y-82172830D01*
X116895355Y-82194486D01*
X116902431Y-82208053D01*
X116903435Y-82211368D01*
X116898905Y-82219454D01*
X116886035Y-82235347D01*
X116865905Y-82257860D01*
X116839594Y-82285804D01*
X116808183Y-82317991D01*
X116790095Y-82336106D01*
X116754713Y-82371178D01*
X116727290Y-82397990D01*
X116706615Y-82417534D01*
X116691479Y-82430802D01*
X116680669Y-82438784D01*
X116672976Y-82442472D01*
X116667188Y-82442857D01*
X116662094Y-82440931D01*
X116662070Y-82440919D01*
X116652407Y-82434947D01*
X116633881Y-82422801D01*
X116608340Y-82405717D01*
X116577634Y-82384934D01*
X116543609Y-82361691D01*
X116534863Y-82355683D01*
X116500868Y-82332566D01*
X116470204Y-82312204D01*
X116444583Y-82295694D01*
X116425716Y-82284133D01*
X116415315Y-82278619D01*
X116414124Y-82278307D01*
X116405129Y-82281153D01*
X116387541Y-82288816D01*
X116364261Y-82299983D01*
X116347912Y-82308261D01*
X116321776Y-82320940D01*
X116300840Y-82329510D01*
X116287493Y-82333062D01*
X116284211Y-82332508D01*
X116280373Y-82325258D01*
X116272256Y-82307484D01*
X116260520Y-82280715D01*
X116245827Y-82246481D01*
X116228835Y-82206312D01*
X116210205Y-82161737D01*
X116203106Y-82144619D01*
X116182265Y-82094292D01*
X116161300Y-82043722D01*
X116141213Y-81995324D01*
X116123008Y-81951512D01*
X116107688Y-81914703D01*
X116096255Y-81887311D01*
X116095495Y-81885494D01*
X116083305Y-81855723D01*
X116073231Y-81829866D01*
X116066243Y-81810511D01*
X116063314Y-81800245D01*
X116063282Y-81799770D01*
X116068259Y-81792018D01*
X116081427Y-81779502D01*
X116100139Y-81764686D01*
X116103987Y-81761897D01*
X116160801Y-81714941D01*
X116205315Y-81663942D01*
X116237712Y-81608568D01*
X116258177Y-81548483D01*
X116266897Y-81483354D01*
X116267261Y-81467461D01*
X116261835Y-81402326D01*
X116244824Y-81342480D01*
X116215808Y-81286866D01*
X116174364Y-81234426D01*
X116174039Y-81234078D01*
X116125346Y-81191028D01*
X116071047Y-81158894D01*
X116012744Y-81137742D01*
X115952038Y-81127638D01*
X115890531Y-81128649D01*
X115829824Y-81140840D01*
X115771518Y-81164277D01*
X115717214Y-81199026D01*
X115698759Y-81214492D01*
X115653434Y-81263317D01*
X115619874Y-81317714D01*
X115598173Y-81377472D01*
X115588426Y-81442382D01*
X115587846Y-81463522D01*
X115592489Y-81528590D01*
X115606902Y-81586929D01*
X115631804Y-81639892D01*
X115667917Y-81688835D01*
X115715962Y-81735113D01*
X115744301Y-81757391D01*
X115764835Y-81773610D01*
X115780540Y-81787911D01*
X115788962Y-81797980D01*
X115789743Y-81800251D01*
X115787329Y-81808250D01*
X115780470Y-81826814D01*
X115769743Y-81854490D01*
X115755722Y-81889823D01*
X115738985Y-81931359D01*
X115720106Y-81977645D01*
X115704232Y-82016186D01*
X115683055Y-82067427D01*
X115662593Y-82117004D01*
X115643604Y-82163075D01*
X115626847Y-82203797D01*
X115613080Y-82237330D01*
X115603060Y-82261830D01*
X115599015Y-82271794D01*
X115586697Y-82301879D01*
X115576908Y-82321079D01*
X115566973Y-82330453D01*
X115554216Y-82331059D01*
X115535962Y-82323952D01*
X115509536Y-82310190D01*
X115506263Y-82308447D01*
X115481217Y-82295557D01*
X115459965Y-82285419D01*
X115445437Y-82279389D01*
X115441167Y-82278307D01*
X115433576Y-82281841D01*
X115416900Y-82291750D01*
X115392768Y-82306995D01*
X115362806Y-82326539D01*
X115328640Y-82349343D01*
X115308536Y-82362974D01*
X115272984Y-82387081D01*
X115241003Y-82408517D01*
X115214164Y-82426251D01*
X115194033Y-82439252D01*
X115182180Y-82446490D01*
X115179734Y-82447641D01*
X115174028Y-82443237D01*
X115160436Y-82430860D01*
X115140273Y-82411764D01*
X115114848Y-82387200D01*
X115085474Y-82358422D01*
X115062357Y-82335538D01*
X115031016Y-82303934D01*
X115003023Y-82274849D01*
X114979652Y-82249675D01*
X114962174Y-82229805D01*
X114951862Y-82216632D01*
X114949589Y-82212112D01*
X114953164Y-82203679D01*
X114963181Y-82186272D01*
X114978584Y-82161568D01*
X114998315Y-82131240D01*
X115021314Y-82096966D01*
X115034065Y-82078356D01*
X115058296Y-82042908D01*
X115079830Y-82010779D01*
X115097611Y-81983593D01*
X115110585Y-81962976D01*
X115117698Y-81950553D01*
X115118731Y-81947859D01*
X115116405Y-81938605D01*
X115109882Y-81919715D01*
X115100104Y-81893520D01*
X115088015Y-81862353D01*
X115074555Y-81828547D01*
X115060669Y-81794434D01*
X115047298Y-81762346D01*
X115035385Y-81734615D01*
X115025873Y-81713574D01*
X115019705Y-81701555D01*
X115018542Y-81699944D01*
X115009974Y-81696373D01*
X114990509Y-81691045D01*
X114962086Y-81684400D01*
X114926646Y-81676880D01*
X114886131Y-81668925D01*
X114864340Y-81664881D01*
X114822015Y-81656965D01*
X114783791Y-81649417D01*
X114751603Y-81642651D01*
X114727390Y-81637083D01*
X114713089Y-81633127D01*
X114710243Y-81631869D01*
X114707409Y-81623365D01*
X114705118Y-81604196D01*
X114703365Y-81576508D01*
X114702146Y-81542444D01*
X114701454Y-81504146D01*
X114701284Y-81463759D01*
X114701631Y-81423427D01*
X114702490Y-81385292D01*
X114703855Y-81351498D01*
X114705721Y-81324190D01*
X114708082Y-81305509D01*
X114710933Y-81297601D01*
X114711080Y-81297530D01*
X114719809Y-81295401D01*
X114739441Y-81291292D01*
X114768069Y-81285581D01*
X114803784Y-81278644D01*
X114844680Y-81270859D01*
X114871241Y-81265876D01*
X114914099Y-81257691D01*
X114952682Y-81249964D01*
X114985141Y-81243094D01*
X115009627Y-81237481D01*
X115024291Y-81233524D01*
X115027641Y-81232077D01*
X115032569Y-81223540D01*
X115041243Y-81205354D01*
X115052662Y-81179906D01*
X115065827Y-81149583D01*
X115079735Y-81116771D01*
X115093388Y-81083857D01*
X115105785Y-81053226D01*
X115115925Y-81027265D01*
X115122808Y-81008362D01*
X115125433Y-80998901D01*
X115125435Y-80998785D01*
X115121874Y-80990328D01*
X115111885Y-80972866D01*
X115096516Y-80948062D01*
X115076811Y-80917581D01*
X115053815Y-80883086D01*
X115039920Y-80862679D01*
X115015361Y-80826580D01*
X114993268Y-80793535D01*
X114974733Y-80765224D01*
X114960848Y-80743326D01*
X114952705Y-80729523D01*
X114951071Y-80725994D01*
X114952501Y-80719419D01*
X114959783Y-80708156D01*
X114973656Y-80691361D01*
X114994860Y-80668189D01*
X115024135Y-80637798D01*
X115060940Y-80600622D01*
X115092560Y-80569281D01*
X115121436Y-80541263D01*
X115146219Y-80517827D01*
X115165562Y-80500232D01*
X115178119Y-80489737D01*
X115182248Y-80487282D01*
X115189680Y-80490846D01*
X115206204Y-80500855D01*
X115230242Y-80516284D01*
X115260213Y-80536108D01*
X115294541Y-80559301D01*
X115319087Y-80576143D01*
X115355589Y-80601172D01*
X115388900Y-80623698D01*
X115417410Y-80642657D01*
X115439511Y-80656986D01*
X115453592Y-80665623D01*
X115457697Y-80667684D01*
X115466553Y-80666156D01*
X115484983Y-80660422D01*
X115510596Y-80651424D01*
X115541000Y-80640103D01*
X115573803Y-80627402D01*
X115606614Y-80614260D01*
X115637042Y-80601621D01*
X115662694Y-80590425D01*
X115681179Y-80581614D01*
X115689996Y-80576239D01*
X115693286Y-80567966D01*
X115698446Y-80548708D01*
X115705065Y-80520302D01*
X115712726Y-80484589D01*
X115721018Y-80443405D01*
X115727355Y-80410279D01*
X115735679Y-80366340D01*
X115743402Y-80326593D01*
X115750155Y-80292853D01*
X115755572Y-80266931D01*
X115759283Y-80250641D01*
X115760730Y-80245830D01*
X115768108Y-80244090D01*
X115786917Y-80242569D01*
X115815565Y-80241324D01*
X115852458Y-80240413D01*
X115896004Y-80239894D01*
X115927036Y-80239794D01*
X115977145Y-80239818D01*
X115977145Y-80239818D01*
G37*
X115977145Y-80239818D02*
X116015791Y-80239977D01*
X116044536Y-80240410D01*
X116064942Y-80241250D01*
X116078573Y-80242635D01*
X116086990Y-80244698D01*
X116091756Y-80247577D01*
X116094433Y-80251407D01*
X116095784Y-80254448D01*
X116098706Y-80264927D01*
X116103480Y-80286186D01*
X116109690Y-80316180D01*
X116116918Y-80352862D01*
X116124745Y-80394187D01*
X116128647Y-80415375D01*
X116136545Y-80457830D01*
X116143981Y-80496274D01*
X116150555Y-80528753D01*
X116155865Y-80553311D01*
X116159511Y-80567993D01*
X116160599Y-80571046D01*
X116167742Y-80575902D01*
X116184663Y-80584534D01*
X116209020Y-80595942D01*
X116238470Y-80609126D01*
X116270674Y-80623088D01*
X116303288Y-80636827D01*
X116333971Y-80649344D01*
X116360382Y-80659640D01*
X116380179Y-80666716D01*
X116391021Y-80669571D01*
X116391454Y-80669587D01*
X116398623Y-80666027D01*
X116414953Y-80656049D01*
X116438900Y-80640656D01*
X116468921Y-80620851D01*
X116503472Y-80597637D01*
X116531702Y-80578407D01*
X116568647Y-80553285D01*
X116602220Y-80530815D01*
X116630880Y-80511999D01*
X116653086Y-80497839D01*
X116667297Y-80489340D01*
X116671798Y-80487282D01*
X116678771Y-80491772D01*
X116693116Y-80504205D01*
X116713292Y-80523020D01*
X116737762Y-80546657D01*
X116764986Y-80573558D01*
X116793424Y-80602163D01*
X116821538Y-80630913D01*
X116847788Y-80658247D01*
X116870635Y-80682607D01*
X116888541Y-80702434D01*
X116899965Y-80716167D01*
X116903435Y-80721978D01*
X116900448Y-80730249D01*
X116891296Y-80746630D01*
X116875692Y-80771560D01*
X116853353Y-80805479D01*
X116823990Y-80848825D01*
X116787320Y-80902038D01*
X116769228Y-80928069D01*
X116752438Y-80953000D01*
X116738888Y-80974688D01*
X116730123Y-80990556D01*
X116727589Y-80997500D01*
X116730053Y-81005790D01*
X116736788Y-81023672D01*
X116746813Y-81048822D01*
X116759147Y-81078911D01*
X116772806Y-81111614D01*
X116786809Y-81144605D01*
X116800175Y-81175558D01*
X116811920Y-81202145D01*
X116821064Y-81222042D01*
X116826624Y-81232921D01*
X116827463Y-81234096D01*
X116834559Y-81236199D01*
X116852647Y-81240277D01*
X116879907Y-81245954D01*
X116914520Y-81252858D01*
X116954665Y-81260616D01*
X116981798Y-81265741D01*
X117024881Y-81273880D01*
X117063950Y-81281400D01*
X117097094Y-81287921D01*
X117122402Y-81293065D01*
X117137964Y-81296453D01*
X117141835Y-81297488D01*
X117144696Y-81300664D01*
X117146912Y-81308649D01*
X117148559Y-81322819D01*
X117149709Y-81344553D01*
X117150437Y-81375228D01*
X117150817Y-81416221D01*
X117150923Y-81466818D01*
X117150862Y-81517762D01*
X117150613Y-81557186D01*
X117150073Y-81586594D01*
X117149142Y-81607491D01*
X117147718Y-81621382D01*
X117145700Y-81629772D01*
X117142986Y-81634165D01*
X117139525Y-81636052D01*
X117128237Y-81638673D01*
X117107743Y-81642798D01*
X117081671Y-81647709D01*
X117069512Y-81649908D01*
X117006052Y-81661374D01*
X116954396Y-81671041D01*
X116913486Y-81679146D01*
X116882261Y-81685926D01*
X116859661Y-81691621D01*
X116844625Y-81696467D01*
X116836095Y-81700702D01*
X116833851Y-81702777D01*
X116829384Y-81711401D01*
X116821211Y-81729631D01*
X116810267Y-81755173D01*
X116797486Y-81785732D01*
X116783800Y-81819012D01*
X116770145Y-81852719D01*
X116757453Y-81884557D01*
X116746659Y-81912232D01*
X116738696Y-81933448D01*
X116734499Y-81945911D01*
X116734084Y-81947962D01*
X116737628Y-81954556D01*
X116747558Y-81970276D01*
X116762830Y-81993544D01*
X116782405Y-82022786D01*
X116805240Y-82056423D01*
X116818769Y-82076164D01*
X116843048Y-82111984D01*
X116864609Y-82144768D01*
X116882396Y-82172830D01*
X116895355Y-82194486D01*
X116902431Y-82208053D01*
X116903435Y-82211368D01*
X116898905Y-82219454D01*
X116886035Y-82235347D01*
X116865905Y-82257860D01*
X116839594Y-82285804D01*
X116808183Y-82317991D01*
X116790095Y-82336106D01*
X116754713Y-82371178D01*
X116727290Y-82397990D01*
X116706615Y-82417534D01*
X116691479Y-82430802D01*
X116680669Y-82438784D01*
X116672976Y-82442472D01*
X116667188Y-82442857D01*
X116662094Y-82440931D01*
X116662070Y-82440919D01*
X116652407Y-82434947D01*
X116633881Y-82422801D01*
X116608340Y-82405717D01*
X116577634Y-82384934D01*
X116543609Y-82361691D01*
X116534863Y-82355683D01*
X116500868Y-82332566D01*
X116470204Y-82312204D01*
X116444583Y-82295694D01*
X116425716Y-82284133D01*
X116415315Y-82278619D01*
X116414124Y-82278307D01*
X116405129Y-82281153D01*
X116387541Y-82288816D01*
X116364261Y-82299983D01*
X116347912Y-82308261D01*
X116321776Y-82320940D01*
X116300840Y-82329510D01*
X116287493Y-82333062D01*
X116284211Y-82332508D01*
X116280373Y-82325258D01*
X116272256Y-82307484D01*
X116260520Y-82280715D01*
X116245827Y-82246481D01*
X116228835Y-82206312D01*
X116210205Y-82161737D01*
X116203106Y-82144619D01*
X116182265Y-82094292D01*
X116161300Y-82043722D01*
X116141213Y-81995324D01*
X116123008Y-81951512D01*
X116107688Y-81914703D01*
X116096255Y-81887311D01*
X116095495Y-81885494D01*
X116083305Y-81855723D01*
X116073231Y-81829866D01*
X116066243Y-81810511D01*
X116063314Y-81800245D01*
X116063282Y-81799770D01*
X116068259Y-81792018D01*
X116081427Y-81779502D01*
X116100139Y-81764686D01*
X116103987Y-81761897D01*
X116160801Y-81714941D01*
X116205315Y-81663942D01*
X116237712Y-81608568D01*
X116258177Y-81548483D01*
X116266897Y-81483354D01*
X116267261Y-81467461D01*
X116261835Y-81402326D01*
X116244824Y-81342480D01*
X116215808Y-81286866D01*
X116174364Y-81234426D01*
X116174039Y-81234078D01*
X116125346Y-81191028D01*
X116071047Y-81158894D01*
X116012744Y-81137742D01*
X115952038Y-81127638D01*
X115890531Y-81128649D01*
X115829824Y-81140840D01*
X115771518Y-81164277D01*
X115717214Y-81199026D01*
X115698759Y-81214492D01*
X115653434Y-81263317D01*
X115619874Y-81317714D01*
X115598173Y-81377472D01*
X115588426Y-81442382D01*
X115587846Y-81463522D01*
X115592489Y-81528590D01*
X115606902Y-81586929D01*
X115631804Y-81639892D01*
X115667917Y-81688835D01*
X115715962Y-81735113D01*
X115744301Y-81757391D01*
X115764835Y-81773610D01*
X115780540Y-81787911D01*
X115788962Y-81797980D01*
X115789743Y-81800251D01*
X115787329Y-81808250D01*
X115780470Y-81826814D01*
X115769743Y-81854490D01*
X115755722Y-81889823D01*
X115738985Y-81931359D01*
X115720106Y-81977645D01*
X115704232Y-82016186D01*
X115683055Y-82067427D01*
X115662593Y-82117004D01*
X115643604Y-82163075D01*
X115626847Y-82203797D01*
X115613080Y-82237330D01*
X115603060Y-82261830D01*
X115599015Y-82271794D01*
X115586697Y-82301879D01*
X115576908Y-82321079D01*
X115566973Y-82330453D01*
X115554216Y-82331059D01*
X115535962Y-82323952D01*
X115509536Y-82310190D01*
X115506263Y-82308447D01*
X115481217Y-82295557D01*
X115459965Y-82285419D01*
X115445437Y-82279389D01*
X115441167Y-82278307D01*
X115433576Y-82281841D01*
X115416900Y-82291750D01*
X115392768Y-82306995D01*
X115362806Y-82326539D01*
X115328640Y-82349343D01*
X115308536Y-82362974D01*
X115272984Y-82387081D01*
X115241003Y-82408517D01*
X115214164Y-82426251D01*
X115194033Y-82439252D01*
X115182180Y-82446490D01*
X115179734Y-82447641D01*
X115174028Y-82443237D01*
X115160436Y-82430860D01*
X115140273Y-82411764D01*
X115114848Y-82387200D01*
X115085474Y-82358422D01*
X115062357Y-82335538D01*
X115031016Y-82303934D01*
X115003023Y-82274849D01*
X114979652Y-82249675D01*
X114962174Y-82229805D01*
X114951862Y-82216632D01*
X114949589Y-82212112D01*
X114953164Y-82203679D01*
X114963181Y-82186272D01*
X114978584Y-82161568D01*
X114998315Y-82131240D01*
X115021314Y-82096966D01*
X115034065Y-82078356D01*
X115058296Y-82042908D01*
X115079830Y-82010779D01*
X115097611Y-81983593D01*
X115110585Y-81962976D01*
X115117698Y-81950553D01*
X115118731Y-81947859D01*
X115116405Y-81938605D01*
X115109882Y-81919715D01*
X115100104Y-81893520D01*
X115088015Y-81862353D01*
X115074555Y-81828547D01*
X115060669Y-81794434D01*
X115047298Y-81762346D01*
X115035385Y-81734615D01*
X115025873Y-81713574D01*
X115019705Y-81701555D01*
X115018542Y-81699944D01*
X115009974Y-81696373D01*
X114990509Y-81691045D01*
X114962086Y-81684400D01*
X114926646Y-81676880D01*
X114886131Y-81668925D01*
X114864340Y-81664881D01*
X114822015Y-81656965D01*
X114783791Y-81649417D01*
X114751603Y-81642651D01*
X114727390Y-81637083D01*
X114713089Y-81633127D01*
X114710243Y-81631869D01*
X114707409Y-81623365D01*
X114705118Y-81604196D01*
X114703365Y-81576508D01*
X114702146Y-81542444D01*
X114701454Y-81504146D01*
X114701284Y-81463759D01*
X114701631Y-81423427D01*
X114702490Y-81385292D01*
X114703855Y-81351498D01*
X114705721Y-81324190D01*
X114708082Y-81305509D01*
X114710933Y-81297601D01*
X114711080Y-81297530D01*
X114719809Y-81295401D01*
X114739441Y-81291292D01*
X114768069Y-81285581D01*
X114803784Y-81278644D01*
X114844680Y-81270859D01*
X114871241Y-81265876D01*
X114914099Y-81257691D01*
X114952682Y-81249964D01*
X114985141Y-81243094D01*
X115009627Y-81237481D01*
X115024291Y-81233524D01*
X115027641Y-81232077D01*
X115032569Y-81223540D01*
X115041243Y-81205354D01*
X115052662Y-81179906D01*
X115065827Y-81149583D01*
X115079735Y-81116771D01*
X115093388Y-81083857D01*
X115105785Y-81053226D01*
X115115925Y-81027265D01*
X115122808Y-81008362D01*
X115125433Y-80998901D01*
X115125435Y-80998785D01*
X115121874Y-80990328D01*
X115111885Y-80972866D01*
X115096516Y-80948062D01*
X115076811Y-80917581D01*
X115053815Y-80883086D01*
X115039920Y-80862679D01*
X115015361Y-80826580D01*
X114993268Y-80793535D01*
X114974733Y-80765224D01*
X114960848Y-80743326D01*
X114952705Y-80729523D01*
X114951071Y-80725994D01*
X114952501Y-80719419D01*
X114959783Y-80708156D01*
X114973656Y-80691361D01*
X114994860Y-80668189D01*
X115024135Y-80637798D01*
X115060940Y-80600622D01*
X115092560Y-80569281D01*
X115121436Y-80541263D01*
X115146219Y-80517827D01*
X115165562Y-80500232D01*
X115178119Y-80489737D01*
X115182248Y-80487282D01*
X115189680Y-80490846D01*
X115206204Y-80500855D01*
X115230242Y-80516284D01*
X115260213Y-80536108D01*
X115294541Y-80559301D01*
X115319087Y-80576143D01*
X115355589Y-80601172D01*
X115388900Y-80623698D01*
X115417410Y-80642657D01*
X115439511Y-80656986D01*
X115453592Y-80665623D01*
X115457697Y-80667684D01*
X115466553Y-80666156D01*
X115484983Y-80660422D01*
X115510596Y-80651424D01*
X115541000Y-80640103D01*
X115573803Y-80627402D01*
X115606614Y-80614260D01*
X115637042Y-80601621D01*
X115662694Y-80590425D01*
X115681179Y-80581614D01*
X115689996Y-80576239D01*
X115693286Y-80567966D01*
X115698446Y-80548708D01*
X115705065Y-80520302D01*
X115712726Y-80484589D01*
X115721018Y-80443405D01*
X115727355Y-80410279D01*
X115735679Y-80366340D01*
X115743402Y-80326593D01*
X115750155Y-80292853D01*
X115755572Y-80266931D01*
X115759283Y-80250641D01*
X115760730Y-80245830D01*
X115768108Y-80244090D01*
X115786917Y-80242569D01*
X115815565Y-80241324D01*
X115852458Y-80240413D01*
X115896004Y-80239894D01*
X115927036Y-80239794D01*
X115977145Y-80239818D01*
D10*
X118050000Y-87430000D02*
X119660000Y-87430000D01*
X118050000Y-85820000D02*
X118050000Y-87430000D01*
X134670000Y-81040000D02*
X133170000Y-81040000D01*
X134670000Y-82680000D02*
X134670000Y-81040000D01*
X133170000Y-82680000D02*
X134670000Y-82680000D01*
X134670000Y-85000000D02*
X133170000Y-85000000D01*
X134670000Y-86640000D02*
X134670000Y-85000000D01*
X133170000Y-86640000D02*
X134670000Y-86640000D01*
X126970000Y-87880000D02*
X123550000Y-87880000D01*
X126970000Y-86830000D02*
X126970000Y-87880000D01*
X133170000Y-86830000D02*
X126970000Y-86830000D01*
X133170000Y-80850000D02*
X133170000Y-86830000D01*
X126970000Y-80850000D02*
X133170000Y-80850000D01*
X126970000Y-79800000D02*
X126970000Y-80850000D01*
X123550000Y-79800000D02*
X126970000Y-79800000D01*
X123550000Y-87880000D02*
X123550000Y-79800000D01*
X101692500Y-84480000D02*
X101242500Y-84480000D01*
X101692500Y-84480000D02*
X101692500Y-84930000D01*
X101142500Y-90080000D02*
X101142500Y-89630000D01*
X99292500Y-90080000D02*
X101142500Y-90080000D01*
X96742500Y-82280000D02*
X96992500Y-82280000D01*
X96742500Y-90080000D02*
X96992500Y-90080000D01*
X99292500Y-82280000D02*
X101142500Y-82280000D01*
X101142500Y-82280000D02*
X101142500Y-82730000D01*
X111620000Y-83770000D02*
X109820000Y-83770000D01*
X109820000Y-86990000D02*
X112270000Y-86990000D01*
X106650000Y-85188748D02*
X106650000Y-85711252D01*
X105230000Y-85188748D02*
X105230000Y-85711252D01*
X114610000Y-85188748D02*
X114610000Y-85711252D01*
X116030000Y-85188748D02*
X116030000Y-85711252D01*
X123795200Y-92998800D02*
X123795200Y-90113800D01*
X123795200Y-90113800D02*
X121975200Y-90113800D01*
X121975200Y-90113800D02*
X121975200Y-92998800D01*
X116590400Y-90164600D02*
X116590400Y-93049600D01*
X118410400Y-90164600D02*
X116590400Y-90164600D01*
X118410400Y-93049600D02*
X118410400Y-90164600D01*
X108568800Y-88636800D02*
X103368800Y-88636800D01*
X108568800Y-93776800D02*
X108568800Y-88636800D01*
X103368800Y-96376800D02*
X103368800Y-88636800D01*
X108568800Y-93776800D02*
X105968800Y-93776800D01*
X105968800Y-93776800D02*
X105968800Y-96376800D01*
X105968800Y-96376800D02*
X103368800Y-96376800D01*
X108568800Y-95046800D02*
X108568800Y-96376800D01*
X108568800Y-96376800D02*
X107238800Y-96376800D01*
X126033600Y-92209252D02*
X126033600Y-91686748D01*
X124613600Y-92209252D02*
X124613600Y-91686748D01*
X120496400Y-91686748D02*
X120496400Y-92209252D01*
X119076400Y-91686748D02*
X119076400Y-92209252D01*
X112238748Y-94310000D02*
X112761252Y-94310000D01*
X112238748Y-95730000D02*
X112761252Y-95730000D01*
X112258748Y-91750000D02*
X112781252Y-91750000D01*
X112258748Y-93170000D02*
X112781252Y-93170000D01*
X112238748Y-90670000D02*
X112761252Y-90670000D01*
X112238748Y-89250000D02*
X112761252Y-89250000D01*
X97940000Y-80870000D02*
X100600000Y-80870000D01*
X97940000Y-80810000D02*
X97940000Y-80870000D01*
X100600000Y-80810000D02*
X100600000Y-80870000D01*
X97940000Y-80810000D02*
X100600000Y-80810000D01*
X97940000Y-79540000D02*
X97940000Y-78210000D01*
X97940000Y-78210000D02*
X99270000Y-78210000D01*
X98010000Y-93710000D02*
X99340000Y-93710000D01*
X98010000Y-95040000D02*
X98010000Y-93710000D01*
X98010000Y-96310000D02*
X100670000Y-96310000D01*
X100670000Y-96310000D02*
X100670000Y-96370000D01*
X98010000Y-96310000D02*
X98010000Y-96370000D01*
X98010000Y-96370000D02*
X100670000Y-96370000D01*
D11*
X114212380Y-84173333D02*
X114926666Y-84173333D01*
X115069523Y-84220952D01*
X115164761Y-84316190D01*
X115212380Y-84459047D01*
X115212380Y-84554285D01*
X114545714Y-83268571D02*
X115212380Y-83268571D01*
X114164761Y-83506666D02*
X114879047Y-83744761D01*
X114879047Y-83125714D01*
M02*
