G04 #@! TF.GenerationSoftware,KiCad,Pcbnew,(5.1.4)-1*
G04 #@! TF.CreationDate,2019-09-20T01:57:43+03:00*
G04 #@! TF.ProjectId,Simple_BMS,53696d70-6c65-45f4-924d-532e6b696361,rev?*
G04 #@! TF.SameCoordinates,Original*
G04 #@! TF.FileFunction,Soldermask,Bot*
G04 #@! TF.FilePolarity,Negative*
%FSLAX46Y46*%
G04 Gerber Fmt 4.6, Leading zero omitted, Abs format (unit mm)*
G04 Created by KiCad (PCBNEW (5.1.4)-1) date 2019-09-20 01:57:43*
%MOMM*%
%LPD*%
G04 APERTURE LIST*
%ADD10C,0.100000*%
G04 APERTURE END LIST*
D10*
G36*
X104809242Y-94152318D02*
G01*
X104875427Y-94158837D01*
X105045266Y-94210357D01*
X105201791Y-94294022D01*
X105237529Y-94323352D01*
X105338986Y-94406614D01*
X105422248Y-94508071D01*
X105451578Y-94543809D01*
X105535243Y-94700334D01*
X105586763Y-94870173D01*
X105604159Y-95046800D01*
X105586763Y-95223427D01*
X105535243Y-95393266D01*
X105451578Y-95549791D01*
X105422248Y-95585529D01*
X105338986Y-95686986D01*
X105237529Y-95770248D01*
X105201791Y-95799578D01*
X105045266Y-95883243D01*
X104875427Y-95934763D01*
X104812101Y-95941000D01*
X104743060Y-95947800D01*
X104654540Y-95947800D01*
X104585499Y-95941000D01*
X104522173Y-95934763D01*
X104352334Y-95883243D01*
X104195809Y-95799578D01*
X104160071Y-95770248D01*
X104058614Y-95686986D01*
X103975352Y-95585529D01*
X103946022Y-95549791D01*
X103862357Y-95393266D01*
X103810837Y-95223427D01*
X103793441Y-95046800D01*
X103810837Y-94870173D01*
X103862357Y-94700334D01*
X103946022Y-94543809D01*
X103975352Y-94508071D01*
X104058614Y-94406614D01*
X104160071Y-94323352D01*
X104195809Y-94294022D01*
X104352334Y-94210357D01*
X104522173Y-94158837D01*
X104588358Y-94152318D01*
X104654540Y-94145800D01*
X104743060Y-94145800D01*
X104809242Y-94152318D01*
X104809242Y-94152318D01*
G37*
G36*
X108139800Y-95947800D02*
G01*
X106337800Y-95947800D01*
X106337800Y-94145800D01*
X108139800Y-94145800D01*
X108139800Y-95947800D01*
X108139800Y-95947800D01*
G37*
G36*
X100241000Y-95941000D02*
G01*
X98439000Y-95941000D01*
X98439000Y-94139000D01*
X100241000Y-94139000D01*
X100241000Y-95941000D01*
X100241000Y-95941000D01*
G37*
G36*
X104809243Y-91612319D02*
G01*
X104875427Y-91618837D01*
X105045266Y-91670357D01*
X105201791Y-91754022D01*
X105237529Y-91783352D01*
X105338986Y-91866614D01*
X105422248Y-91968071D01*
X105451578Y-92003809D01*
X105535243Y-92160334D01*
X105586763Y-92330173D01*
X105604159Y-92506800D01*
X105586763Y-92683427D01*
X105535243Y-92853266D01*
X105451578Y-93009791D01*
X105422248Y-93045529D01*
X105338986Y-93146986D01*
X105237529Y-93230248D01*
X105201791Y-93259578D01*
X105045266Y-93343243D01*
X104875427Y-93394763D01*
X104809242Y-93401282D01*
X104743060Y-93407800D01*
X104654540Y-93407800D01*
X104588358Y-93401282D01*
X104522173Y-93394763D01*
X104352334Y-93343243D01*
X104195809Y-93259578D01*
X104160071Y-93230248D01*
X104058614Y-93146986D01*
X103975352Y-93045529D01*
X103946022Y-93009791D01*
X103862357Y-92853266D01*
X103810837Y-92683427D01*
X103793441Y-92506800D01*
X103810837Y-92330173D01*
X103862357Y-92160334D01*
X103946022Y-92003809D01*
X103975352Y-91968071D01*
X104058614Y-91866614D01*
X104160071Y-91783352D01*
X104195809Y-91754022D01*
X104352334Y-91670357D01*
X104522173Y-91618837D01*
X104588357Y-91612319D01*
X104654540Y-91605800D01*
X104743060Y-91605800D01*
X104809243Y-91612319D01*
X104809243Y-91612319D01*
G37*
G36*
X107349243Y-91612319D02*
G01*
X107415427Y-91618837D01*
X107585266Y-91670357D01*
X107741791Y-91754022D01*
X107777529Y-91783352D01*
X107878986Y-91866614D01*
X107962248Y-91968071D01*
X107991578Y-92003809D01*
X108075243Y-92160334D01*
X108126763Y-92330173D01*
X108144159Y-92506800D01*
X108126763Y-92683427D01*
X108075243Y-92853266D01*
X107991578Y-93009791D01*
X107962248Y-93045529D01*
X107878986Y-93146986D01*
X107777529Y-93230248D01*
X107741791Y-93259578D01*
X107585266Y-93343243D01*
X107415427Y-93394763D01*
X107349242Y-93401282D01*
X107283060Y-93407800D01*
X107194540Y-93407800D01*
X107128358Y-93401282D01*
X107062173Y-93394763D01*
X106892334Y-93343243D01*
X106735809Y-93259578D01*
X106700071Y-93230248D01*
X106598614Y-93146986D01*
X106515352Y-93045529D01*
X106486022Y-93009791D01*
X106402357Y-92853266D01*
X106350837Y-92683427D01*
X106333441Y-92506800D01*
X106350837Y-92330173D01*
X106402357Y-92160334D01*
X106486022Y-92003809D01*
X106515352Y-91968071D01*
X106598614Y-91866614D01*
X106700071Y-91783352D01*
X106735809Y-91754022D01*
X106892334Y-91670357D01*
X107062173Y-91618837D01*
X107128357Y-91612319D01*
X107194540Y-91605800D01*
X107283060Y-91605800D01*
X107349243Y-91612319D01*
X107349243Y-91612319D01*
G37*
G36*
X104809242Y-89072318D02*
G01*
X104875427Y-89078837D01*
X105045266Y-89130357D01*
X105201791Y-89214022D01*
X105205964Y-89217447D01*
X105338986Y-89326614D01*
X105420696Y-89426179D01*
X105451578Y-89463809D01*
X105535243Y-89620334D01*
X105586763Y-89790173D01*
X105604159Y-89966800D01*
X105586763Y-90143427D01*
X105535243Y-90313266D01*
X105451578Y-90469791D01*
X105422248Y-90505529D01*
X105338986Y-90606986D01*
X105237529Y-90690248D01*
X105201791Y-90719578D01*
X105045266Y-90803243D01*
X104875427Y-90854763D01*
X104809243Y-90861281D01*
X104743060Y-90867800D01*
X104654540Y-90867800D01*
X104588357Y-90861281D01*
X104522173Y-90854763D01*
X104352334Y-90803243D01*
X104195809Y-90719578D01*
X104160071Y-90690248D01*
X104058614Y-90606986D01*
X103975352Y-90505529D01*
X103946022Y-90469791D01*
X103862357Y-90313266D01*
X103810837Y-90143427D01*
X103793441Y-89966800D01*
X103810837Y-89790173D01*
X103862357Y-89620334D01*
X103946022Y-89463809D01*
X103976904Y-89426179D01*
X104058614Y-89326614D01*
X104191636Y-89217447D01*
X104195809Y-89214022D01*
X104352334Y-89130357D01*
X104522173Y-89078837D01*
X104588358Y-89072318D01*
X104654540Y-89065800D01*
X104743060Y-89065800D01*
X104809242Y-89072318D01*
X104809242Y-89072318D01*
G37*
G36*
X107349242Y-89072318D02*
G01*
X107415427Y-89078837D01*
X107585266Y-89130357D01*
X107741791Y-89214022D01*
X107745964Y-89217447D01*
X107878986Y-89326614D01*
X107960696Y-89426179D01*
X107991578Y-89463809D01*
X108075243Y-89620334D01*
X108126763Y-89790173D01*
X108144159Y-89966800D01*
X108126763Y-90143427D01*
X108075243Y-90313266D01*
X107991578Y-90469791D01*
X107962248Y-90505529D01*
X107878986Y-90606986D01*
X107777529Y-90690248D01*
X107741791Y-90719578D01*
X107585266Y-90803243D01*
X107415427Y-90854763D01*
X107349243Y-90861281D01*
X107283060Y-90867800D01*
X107194540Y-90867800D01*
X107128357Y-90861281D01*
X107062173Y-90854763D01*
X106892334Y-90803243D01*
X106735809Y-90719578D01*
X106700071Y-90690248D01*
X106598614Y-90606986D01*
X106515352Y-90505529D01*
X106486022Y-90469791D01*
X106402357Y-90313266D01*
X106350837Y-90143427D01*
X106333441Y-89966800D01*
X106350837Y-89790173D01*
X106402357Y-89620334D01*
X106486022Y-89463809D01*
X106516904Y-89426179D01*
X106598614Y-89326614D01*
X106731636Y-89217447D01*
X106735809Y-89214022D01*
X106892334Y-89130357D01*
X107062173Y-89078837D01*
X107128358Y-89072318D01*
X107194540Y-89065800D01*
X107283060Y-89065800D01*
X107349242Y-89072318D01*
X107349242Y-89072318D01*
G37*
G36*
X98556355Y-89032140D02*
G01*
X98620118Y-89038420D01*
X98710377Y-89065800D01*
X98742836Y-89075646D01*
X98855925Y-89136094D01*
X98955054Y-89217446D01*
X99036406Y-89316575D01*
X99096854Y-89429664D01*
X99096855Y-89429668D01*
X99134080Y-89552382D01*
X99146649Y-89680000D01*
X99134080Y-89807618D01*
X99106540Y-89898404D01*
X99096854Y-89930336D01*
X99036406Y-90043425D01*
X98955054Y-90142554D01*
X98855925Y-90223906D01*
X98742836Y-90284354D01*
X98710904Y-90294040D01*
X98620118Y-90321580D01*
X98556355Y-90327860D01*
X98524474Y-90331000D01*
X97760526Y-90331000D01*
X97728645Y-90327860D01*
X97664882Y-90321580D01*
X97574096Y-90294040D01*
X97542164Y-90284354D01*
X97429075Y-90223906D01*
X97329946Y-90142554D01*
X97248594Y-90043425D01*
X97188146Y-89930336D01*
X97178460Y-89898404D01*
X97150920Y-89807618D01*
X97138351Y-89680000D01*
X97150920Y-89552382D01*
X97188145Y-89429668D01*
X97188146Y-89429664D01*
X97248594Y-89316575D01*
X97329946Y-89217446D01*
X97429075Y-89136094D01*
X97542164Y-89075646D01*
X97574623Y-89065800D01*
X97664882Y-89038420D01*
X97728645Y-89032140D01*
X97760526Y-89029000D01*
X98524474Y-89029000D01*
X98556355Y-89032140D01*
X98556355Y-89032140D01*
G37*
G36*
X101068848Y-87933820D02*
G01*
X101068850Y-87933821D01*
X101068851Y-87933821D01*
X101210074Y-87992317D01*
X101210077Y-87992319D01*
X101337169Y-88077239D01*
X101445261Y-88185331D01*
X101530181Y-88312423D01*
X101530183Y-88312426D01*
X101588679Y-88453649D01*
X101618500Y-88603571D01*
X101618500Y-88756429D01*
X101588679Y-88906351D01*
X101530183Y-89047574D01*
X101530181Y-89047577D01*
X101445261Y-89174669D01*
X101337169Y-89282761D01*
X101210077Y-89367681D01*
X101210074Y-89367683D01*
X101068851Y-89426179D01*
X101068850Y-89426179D01*
X101068848Y-89426180D01*
X100918931Y-89456000D01*
X100766069Y-89456000D01*
X100616152Y-89426180D01*
X100616150Y-89426179D01*
X100616149Y-89426179D01*
X100474926Y-89367683D01*
X100474923Y-89367681D01*
X100347831Y-89282761D01*
X100239739Y-89174669D01*
X100154819Y-89047577D01*
X100154817Y-89047574D01*
X100096321Y-88906351D01*
X100066500Y-88756429D01*
X100066500Y-88603571D01*
X100096321Y-88453649D01*
X100154817Y-88312426D01*
X100154819Y-88312423D01*
X100239739Y-88185331D01*
X100347831Y-88077239D01*
X100474923Y-87992319D01*
X100474926Y-87992317D01*
X100616149Y-87933821D01*
X100616150Y-87933821D01*
X100616152Y-87933820D01*
X100766069Y-87904000D01*
X100918931Y-87904000D01*
X101068848Y-87933820D01*
X101068848Y-87933820D01*
G37*
G36*
X120934031Y-84422621D02*
G01*
X120963486Y-84431556D01*
X120990623Y-84446062D01*
X121014414Y-84465586D01*
X121033938Y-84489377D01*
X121048444Y-84516514D01*
X121057379Y-84545969D01*
X121061000Y-84582734D01*
X121061000Y-87057266D01*
X121057379Y-87094031D01*
X121048444Y-87123486D01*
X121033938Y-87150623D01*
X121014414Y-87174414D01*
X120990623Y-87193938D01*
X120963486Y-87208444D01*
X120934031Y-87217379D01*
X120897266Y-87221000D01*
X118422734Y-87221000D01*
X118385969Y-87217379D01*
X118356514Y-87208444D01*
X118329377Y-87193938D01*
X118305586Y-87174414D01*
X118286062Y-87150623D01*
X118271556Y-87123486D01*
X118262621Y-87094031D01*
X118259000Y-87057266D01*
X118259000Y-84582734D01*
X118262621Y-84545969D01*
X118271556Y-84516514D01*
X118286062Y-84489377D01*
X118305586Y-84465586D01*
X118329377Y-84446062D01*
X118356514Y-84431556D01*
X118385969Y-84422621D01*
X118422734Y-84419000D01*
X120897266Y-84419000D01*
X120934031Y-84422621D01*
X120934031Y-84422621D01*
G37*
G36*
X101068848Y-82933820D02*
G01*
X101068850Y-82933821D01*
X101068851Y-82933821D01*
X101210074Y-82992317D01*
X101210077Y-82992319D01*
X101337169Y-83077239D01*
X101445261Y-83185331D01*
X101530181Y-83312423D01*
X101530183Y-83312426D01*
X101588679Y-83453649D01*
X101618500Y-83603571D01*
X101618500Y-83756429D01*
X101588679Y-83906351D01*
X101530183Y-84047574D01*
X101530181Y-84047577D01*
X101445261Y-84174669D01*
X101337169Y-84282761D01*
X101210077Y-84367681D01*
X101210074Y-84367683D01*
X101068851Y-84426179D01*
X101068850Y-84426179D01*
X101068848Y-84426180D01*
X100918931Y-84456000D01*
X100766069Y-84456000D01*
X100616152Y-84426180D01*
X100616150Y-84426179D01*
X100616149Y-84426179D01*
X100474926Y-84367683D01*
X100474923Y-84367681D01*
X100347831Y-84282761D01*
X100239739Y-84174669D01*
X100154819Y-84047577D01*
X100154817Y-84047574D01*
X100096321Y-83906351D01*
X100066500Y-83756429D01*
X100066500Y-83603571D01*
X100096321Y-83453649D01*
X100154817Y-83312426D01*
X100154819Y-83312423D01*
X100239739Y-83185331D01*
X100347831Y-83077239D01*
X100474923Y-82992319D01*
X100474926Y-82992317D01*
X100616149Y-82933821D01*
X100616150Y-82933821D01*
X100616152Y-82933820D01*
X100766069Y-82904000D01*
X100918931Y-82904000D01*
X101068848Y-82933820D01*
X101068848Y-82933820D01*
G37*
G36*
X98556355Y-82032140D02*
G01*
X98620118Y-82038420D01*
X98710904Y-82065960D01*
X98742836Y-82075646D01*
X98855925Y-82136094D01*
X98955054Y-82217446D01*
X99036406Y-82316575D01*
X99096854Y-82429664D01*
X99096855Y-82429668D01*
X99134080Y-82552382D01*
X99146649Y-82680000D01*
X99134080Y-82807618D01*
X99106540Y-82898404D01*
X99096854Y-82930336D01*
X99036406Y-83043425D01*
X98955054Y-83142554D01*
X98855925Y-83223906D01*
X98742836Y-83284354D01*
X98710904Y-83294040D01*
X98620118Y-83321580D01*
X98556355Y-83327860D01*
X98524474Y-83331000D01*
X97760526Y-83331000D01*
X97728645Y-83327860D01*
X97664882Y-83321580D01*
X97574096Y-83294040D01*
X97542164Y-83284354D01*
X97429075Y-83223906D01*
X97329946Y-83142554D01*
X97248594Y-83043425D01*
X97188146Y-82930336D01*
X97178460Y-82898404D01*
X97150920Y-82807618D01*
X97138351Y-82680000D01*
X97150920Y-82552382D01*
X97188145Y-82429668D01*
X97188146Y-82429664D01*
X97248594Y-82316575D01*
X97329946Y-82217446D01*
X97429075Y-82136094D01*
X97542164Y-82075646D01*
X97574096Y-82065960D01*
X97664882Y-82038420D01*
X97728645Y-82032140D01*
X97760526Y-82029000D01*
X98524474Y-82029000D01*
X98556355Y-82032140D01*
X98556355Y-82032140D01*
G37*
G36*
X119978433Y-80494893D02*
G01*
X120068657Y-80512839D01*
X120174267Y-80556585D01*
X120323621Y-80618449D01*
X120323622Y-80618450D01*
X120553086Y-80771772D01*
X120748228Y-80966914D01*
X120850675Y-81120237D01*
X120901551Y-81196379D01*
X121007161Y-81451344D01*
X121061000Y-81722012D01*
X121061000Y-81997988D01*
X121045553Y-82075645D01*
X121007161Y-82268657D01*
X120963415Y-82374267D01*
X120901551Y-82523621D01*
X120882332Y-82552384D01*
X120748228Y-82753086D01*
X120553086Y-82948228D01*
X120410613Y-83043425D01*
X120323621Y-83101551D01*
X120224633Y-83142553D01*
X120068657Y-83207161D01*
X119984478Y-83223905D01*
X119797988Y-83261000D01*
X119522012Y-83261000D01*
X119335522Y-83223905D01*
X119251343Y-83207161D01*
X119095367Y-83142553D01*
X118996379Y-83101551D01*
X118909387Y-83043425D01*
X118766914Y-82948228D01*
X118571772Y-82753086D01*
X118437668Y-82552384D01*
X118418449Y-82523621D01*
X118356585Y-82374267D01*
X118312839Y-82268657D01*
X118274447Y-82075645D01*
X118259000Y-81997988D01*
X118259000Y-81722012D01*
X118312839Y-81451344D01*
X118418449Y-81196379D01*
X118469325Y-81120237D01*
X118571772Y-80966914D01*
X118766914Y-80771772D01*
X118996378Y-80618450D01*
X118996379Y-80618449D01*
X119145733Y-80556585D01*
X119251343Y-80512839D01*
X119341567Y-80494893D01*
X119522012Y-80459000D01*
X119797988Y-80459000D01*
X119978433Y-80494893D01*
X119978433Y-80494893D01*
G37*
G36*
X100171000Y-80441000D02*
G01*
X98369000Y-80441000D01*
X98369000Y-78639000D01*
X100171000Y-78639000D01*
X100171000Y-80441000D01*
X100171000Y-80441000D01*
G37*
M02*
