G04 #@! TF.GenerationSoftware,KiCad,Pcbnew,(5.1.4)-1*
G04 #@! TF.CreationDate,2019-09-20T01:57:43+03:00*
G04 #@! TF.ProjectId,Simple_BMS,53696d70-6c65-45f4-924d-532e6b696361,rev?*
G04 #@! TF.SameCoordinates,Original*
G04 #@! TF.FileFunction,Soldermask,Top*
G04 #@! TF.FilePolarity,Negative*
%FSLAX46Y46*%
G04 Gerber Fmt 4.6, Leading zero omitted, Abs format (unit mm)*
G04 Created by KiCad (PCBNEW (5.1.4)-1) date 2019-09-20 01:57:43*
%MOMM*%
%LPD*%
G04 APERTURE LIST*
%ADD10C,0.100000*%
G04 APERTURE END LIST*
D10*
G36*
X108139800Y-95947800D02*
G01*
X106337800Y-95947800D01*
X106337800Y-94145800D01*
X108139800Y-94145800D01*
X108139800Y-95947800D01*
X108139800Y-95947800D01*
G37*
G36*
X104809242Y-94152318D02*
G01*
X104875427Y-94158837D01*
X105045266Y-94210357D01*
X105201791Y-94294022D01*
X105213298Y-94303466D01*
X105338986Y-94406614D01*
X105396471Y-94476661D01*
X105451578Y-94543809D01*
X105535243Y-94700334D01*
X105586763Y-94870173D01*
X105604159Y-95046800D01*
X105586763Y-95223427D01*
X105535243Y-95393266D01*
X105451578Y-95549791D01*
X105440459Y-95563339D01*
X105338986Y-95686986D01*
X105261858Y-95750282D01*
X105201791Y-95799578D01*
X105045266Y-95883243D01*
X104875427Y-95934763D01*
X104812101Y-95941000D01*
X104743060Y-95947800D01*
X104654540Y-95947800D01*
X104585499Y-95941000D01*
X104522173Y-95934763D01*
X104352334Y-95883243D01*
X104195809Y-95799578D01*
X104135742Y-95750282D01*
X104058614Y-95686986D01*
X103957141Y-95563339D01*
X103946022Y-95549791D01*
X103862357Y-95393266D01*
X103810837Y-95223427D01*
X103793441Y-95046800D01*
X103810837Y-94870173D01*
X103862357Y-94700334D01*
X103946022Y-94543809D01*
X104001129Y-94476661D01*
X104058614Y-94406614D01*
X104184302Y-94303466D01*
X104195809Y-94294022D01*
X104352334Y-94210357D01*
X104522173Y-94158837D01*
X104588358Y-94152318D01*
X104654540Y-94145800D01*
X104743060Y-94145800D01*
X104809242Y-94152318D01*
X104809242Y-94152318D01*
G37*
G36*
X100241000Y-95941000D02*
G01*
X98439000Y-95941000D01*
X98439000Y-94139000D01*
X100241000Y-94139000D01*
X100241000Y-95941000D01*
X100241000Y-95941000D01*
G37*
G36*
X113988674Y-94273465D02*
G01*
X114026367Y-94284899D01*
X114061103Y-94303466D01*
X114091548Y-94328452D01*
X114116534Y-94358897D01*
X114135101Y-94393633D01*
X114146535Y-94431326D01*
X114151000Y-94476661D01*
X114151000Y-95563339D01*
X114146535Y-95608674D01*
X114135101Y-95646367D01*
X114116534Y-95681103D01*
X114091548Y-95711548D01*
X114061103Y-95736534D01*
X114026367Y-95755101D01*
X113988674Y-95766535D01*
X113943339Y-95771000D01*
X113106661Y-95771000D01*
X113061326Y-95766535D01*
X113023633Y-95755101D01*
X112988897Y-95736534D01*
X112958452Y-95711548D01*
X112933466Y-95681103D01*
X112914899Y-95646367D01*
X112903465Y-95608674D01*
X112899000Y-95563339D01*
X112899000Y-94476661D01*
X112903465Y-94431326D01*
X112914899Y-94393633D01*
X112933466Y-94358897D01*
X112958452Y-94328452D01*
X112988897Y-94303466D01*
X113023633Y-94284899D01*
X113061326Y-94273465D01*
X113106661Y-94269000D01*
X113943339Y-94269000D01*
X113988674Y-94273465D01*
X113988674Y-94273465D01*
G37*
G36*
X111938674Y-94273465D02*
G01*
X111976367Y-94284899D01*
X112011103Y-94303466D01*
X112041548Y-94328452D01*
X112066534Y-94358897D01*
X112085101Y-94393633D01*
X112096535Y-94431326D01*
X112101000Y-94476661D01*
X112101000Y-95563339D01*
X112096535Y-95608674D01*
X112085101Y-95646367D01*
X112066534Y-95681103D01*
X112041548Y-95711548D01*
X112011103Y-95736534D01*
X111976367Y-95755101D01*
X111938674Y-95766535D01*
X111893339Y-95771000D01*
X111056661Y-95771000D01*
X111011326Y-95766535D01*
X110973633Y-95755101D01*
X110938897Y-95736534D01*
X110908452Y-95711548D01*
X110883466Y-95681103D01*
X110864899Y-95646367D01*
X110853465Y-95608674D01*
X110849000Y-95563339D01*
X110849000Y-94476661D01*
X110853465Y-94431326D01*
X110864899Y-94393633D01*
X110883466Y-94358897D01*
X110908452Y-94328452D01*
X110938897Y-94303466D01*
X110973633Y-94284899D01*
X111011326Y-94273465D01*
X111056661Y-94269000D01*
X111893339Y-94269000D01*
X111938674Y-94273465D01*
X111938674Y-94273465D01*
G37*
G36*
X118046181Y-92302895D02*
G01*
X118082216Y-92313827D01*
X118115424Y-92331577D01*
X118144534Y-92355466D01*
X118168423Y-92384576D01*
X118186173Y-92417784D01*
X118197105Y-92453819D01*
X118201400Y-92497431D01*
X118201400Y-93526769D01*
X118197105Y-93570381D01*
X118186173Y-93606416D01*
X118168423Y-93639624D01*
X118144534Y-93668734D01*
X118115424Y-93692623D01*
X118082216Y-93710373D01*
X118046181Y-93721305D01*
X118002569Y-93725600D01*
X116998231Y-93725600D01*
X116954619Y-93721305D01*
X116918584Y-93710373D01*
X116885376Y-93692623D01*
X116856266Y-93668734D01*
X116832377Y-93639624D01*
X116814627Y-93606416D01*
X116803695Y-93570381D01*
X116799400Y-93526769D01*
X116799400Y-92497431D01*
X116803695Y-92453819D01*
X116814627Y-92417784D01*
X116832377Y-92384576D01*
X116856266Y-92355466D01*
X116885376Y-92331577D01*
X116918584Y-92313827D01*
X116954619Y-92302895D01*
X116998231Y-92298600D01*
X118002569Y-92298600D01*
X118046181Y-92302895D01*
X118046181Y-92302895D01*
G37*
G36*
X123430981Y-92252095D02*
G01*
X123467016Y-92263027D01*
X123500224Y-92280777D01*
X123529334Y-92304666D01*
X123553223Y-92333776D01*
X123570973Y-92366984D01*
X123581905Y-92403019D01*
X123586200Y-92446631D01*
X123586200Y-93475969D01*
X123581905Y-93519581D01*
X123570973Y-93555616D01*
X123553223Y-93588824D01*
X123529334Y-93617934D01*
X123500224Y-93641823D01*
X123467016Y-93659573D01*
X123430981Y-93670505D01*
X123387369Y-93674800D01*
X122383031Y-93674800D01*
X122339419Y-93670505D01*
X122303384Y-93659573D01*
X122270176Y-93641823D01*
X122241066Y-93617934D01*
X122217177Y-93588824D01*
X122199427Y-93555616D01*
X122188495Y-93519581D01*
X122184200Y-93475969D01*
X122184200Y-92446631D01*
X122188495Y-92403019D01*
X122199427Y-92366984D01*
X122217177Y-92333776D01*
X122241066Y-92304666D01*
X122270176Y-92280777D01*
X122303384Y-92263027D01*
X122339419Y-92252095D01*
X122383031Y-92247800D01*
X123387369Y-92247800D01*
X123430981Y-92252095D01*
X123430981Y-92252095D01*
G37*
G36*
X125912274Y-92351465D02*
G01*
X125949967Y-92362899D01*
X125984703Y-92381466D01*
X126015148Y-92406452D01*
X126040134Y-92436897D01*
X126058701Y-92471633D01*
X126070135Y-92509326D01*
X126074600Y-92554661D01*
X126074600Y-93391339D01*
X126070135Y-93436674D01*
X126058701Y-93474367D01*
X126040134Y-93509103D01*
X126015148Y-93539548D01*
X125984703Y-93564534D01*
X125949967Y-93583101D01*
X125912274Y-93594535D01*
X125866939Y-93599000D01*
X124780261Y-93599000D01*
X124734926Y-93594535D01*
X124697233Y-93583101D01*
X124662497Y-93564534D01*
X124632052Y-93539548D01*
X124607066Y-93509103D01*
X124588499Y-93474367D01*
X124577065Y-93436674D01*
X124572600Y-93391339D01*
X124572600Y-92554661D01*
X124577065Y-92509326D01*
X124588499Y-92471633D01*
X124607066Y-92436897D01*
X124632052Y-92406452D01*
X124662497Y-92381466D01*
X124697233Y-92362899D01*
X124734926Y-92351465D01*
X124780261Y-92347000D01*
X125866939Y-92347000D01*
X125912274Y-92351465D01*
X125912274Y-92351465D01*
G37*
G36*
X120375074Y-92351465D02*
G01*
X120412767Y-92362899D01*
X120447503Y-92381466D01*
X120477948Y-92406452D01*
X120502934Y-92436897D01*
X120521501Y-92471633D01*
X120532935Y-92509326D01*
X120537400Y-92554661D01*
X120537400Y-93391339D01*
X120532935Y-93436674D01*
X120521501Y-93474367D01*
X120502934Y-93509103D01*
X120477948Y-93539548D01*
X120447503Y-93564534D01*
X120412767Y-93583101D01*
X120375074Y-93594535D01*
X120329739Y-93599000D01*
X119243061Y-93599000D01*
X119197726Y-93594535D01*
X119160033Y-93583101D01*
X119125297Y-93564534D01*
X119094852Y-93539548D01*
X119069866Y-93509103D01*
X119051299Y-93474367D01*
X119039865Y-93436674D01*
X119035400Y-93391339D01*
X119035400Y-92554661D01*
X119039865Y-92509326D01*
X119051299Y-92471633D01*
X119069866Y-92436897D01*
X119094852Y-92406452D01*
X119125297Y-92381466D01*
X119160033Y-92362899D01*
X119197726Y-92351465D01*
X119243061Y-92347000D01*
X120329739Y-92347000D01*
X120375074Y-92351465D01*
X120375074Y-92351465D01*
G37*
G36*
X107349243Y-91612319D02*
G01*
X107415427Y-91618837D01*
X107585266Y-91670357D01*
X107741791Y-91754022D01*
X107773539Y-91780077D01*
X107878986Y-91866614D01*
X107962248Y-91968071D01*
X107991578Y-92003809D01*
X108075243Y-92160334D01*
X108126763Y-92330173D01*
X108144159Y-92506800D01*
X108126763Y-92683427D01*
X108075243Y-92853266D01*
X107991578Y-93009791D01*
X107964338Y-93042983D01*
X107878986Y-93146986D01*
X107777529Y-93230248D01*
X107741791Y-93259578D01*
X107585266Y-93343243D01*
X107415427Y-93394763D01*
X107349242Y-93401282D01*
X107283060Y-93407800D01*
X107194540Y-93407800D01*
X107128358Y-93401282D01*
X107062173Y-93394763D01*
X106892334Y-93343243D01*
X106735809Y-93259578D01*
X106700071Y-93230248D01*
X106598614Y-93146986D01*
X106513262Y-93042983D01*
X106486022Y-93009791D01*
X106402357Y-92853266D01*
X106350837Y-92683427D01*
X106333441Y-92506800D01*
X106350837Y-92330173D01*
X106402357Y-92160334D01*
X106486022Y-92003809D01*
X106515352Y-91968071D01*
X106598614Y-91866614D01*
X106704061Y-91780077D01*
X106735809Y-91754022D01*
X106892334Y-91670357D01*
X107062173Y-91618837D01*
X107128357Y-91612319D01*
X107194540Y-91605800D01*
X107283060Y-91605800D01*
X107349243Y-91612319D01*
X107349243Y-91612319D01*
G37*
G36*
X104809243Y-91612319D02*
G01*
X104875427Y-91618837D01*
X105045266Y-91670357D01*
X105201791Y-91754022D01*
X105233539Y-91780077D01*
X105338986Y-91866614D01*
X105422248Y-91968071D01*
X105451578Y-92003809D01*
X105535243Y-92160334D01*
X105586763Y-92330173D01*
X105604159Y-92506800D01*
X105586763Y-92683427D01*
X105535243Y-92853266D01*
X105451578Y-93009791D01*
X105424338Y-93042983D01*
X105338986Y-93146986D01*
X105237529Y-93230248D01*
X105201791Y-93259578D01*
X105045266Y-93343243D01*
X104875427Y-93394763D01*
X104809242Y-93401282D01*
X104743060Y-93407800D01*
X104654540Y-93407800D01*
X104588358Y-93401282D01*
X104522173Y-93394763D01*
X104352334Y-93343243D01*
X104195809Y-93259578D01*
X104160071Y-93230248D01*
X104058614Y-93146986D01*
X103973262Y-93042983D01*
X103946022Y-93009791D01*
X103862357Y-92853266D01*
X103810837Y-92683427D01*
X103793441Y-92506800D01*
X103810837Y-92330173D01*
X103862357Y-92160334D01*
X103946022Y-92003809D01*
X103975352Y-91968071D01*
X104058614Y-91866614D01*
X104164061Y-91780077D01*
X104195809Y-91754022D01*
X104352334Y-91670357D01*
X104522173Y-91618837D01*
X104588357Y-91612319D01*
X104654540Y-91605800D01*
X104743060Y-91605800D01*
X104809243Y-91612319D01*
X104809243Y-91612319D01*
G37*
G36*
X114008674Y-91713465D02*
G01*
X114046367Y-91724899D01*
X114081103Y-91743466D01*
X114111548Y-91768452D01*
X114136534Y-91798897D01*
X114155101Y-91833633D01*
X114166535Y-91871326D01*
X114171000Y-91916661D01*
X114171000Y-93003339D01*
X114166535Y-93048674D01*
X114155101Y-93086367D01*
X114136534Y-93121103D01*
X114111548Y-93151548D01*
X114081103Y-93176534D01*
X114046367Y-93195101D01*
X114008674Y-93206535D01*
X113963339Y-93211000D01*
X113126661Y-93211000D01*
X113081326Y-93206535D01*
X113043633Y-93195101D01*
X113008897Y-93176534D01*
X112978452Y-93151548D01*
X112953466Y-93121103D01*
X112934899Y-93086367D01*
X112923465Y-93048674D01*
X112919000Y-93003339D01*
X112919000Y-91916661D01*
X112923465Y-91871326D01*
X112934899Y-91833633D01*
X112953466Y-91798897D01*
X112978452Y-91768452D01*
X113008897Y-91743466D01*
X113043633Y-91724899D01*
X113081326Y-91713465D01*
X113126661Y-91709000D01*
X113963339Y-91709000D01*
X114008674Y-91713465D01*
X114008674Y-91713465D01*
G37*
G36*
X111958674Y-91713465D02*
G01*
X111996367Y-91724899D01*
X112031103Y-91743466D01*
X112061548Y-91768452D01*
X112086534Y-91798897D01*
X112105101Y-91833633D01*
X112116535Y-91871326D01*
X112121000Y-91916661D01*
X112121000Y-93003339D01*
X112116535Y-93048674D01*
X112105101Y-93086367D01*
X112086534Y-93121103D01*
X112061548Y-93151548D01*
X112031103Y-93176534D01*
X111996367Y-93195101D01*
X111958674Y-93206535D01*
X111913339Y-93211000D01*
X111076661Y-93211000D01*
X111031326Y-93206535D01*
X110993633Y-93195101D01*
X110958897Y-93176534D01*
X110928452Y-93151548D01*
X110903466Y-93121103D01*
X110884899Y-93086367D01*
X110873465Y-93048674D01*
X110869000Y-93003339D01*
X110869000Y-91916661D01*
X110873465Y-91871326D01*
X110884899Y-91833633D01*
X110903466Y-91798897D01*
X110928452Y-91768452D01*
X110958897Y-91743466D01*
X110993633Y-91724899D01*
X111031326Y-91713465D01*
X111076661Y-91709000D01*
X111913339Y-91709000D01*
X111958674Y-91713465D01*
X111958674Y-91713465D01*
G37*
G36*
X118046181Y-90377895D02*
G01*
X118082216Y-90388827D01*
X118115424Y-90406577D01*
X118144534Y-90430466D01*
X118168423Y-90459576D01*
X118186173Y-90492784D01*
X118197105Y-90528819D01*
X118201400Y-90572431D01*
X118201400Y-91601769D01*
X118197105Y-91645381D01*
X118186173Y-91681416D01*
X118168423Y-91714624D01*
X118144534Y-91743734D01*
X118115424Y-91767623D01*
X118082216Y-91785373D01*
X118046181Y-91796305D01*
X118002569Y-91800600D01*
X116998231Y-91800600D01*
X116954619Y-91796305D01*
X116918584Y-91785373D01*
X116885376Y-91767623D01*
X116856266Y-91743734D01*
X116832377Y-91714624D01*
X116814627Y-91681416D01*
X116803695Y-91645381D01*
X116799400Y-91601769D01*
X116799400Y-90572431D01*
X116803695Y-90528819D01*
X116814627Y-90492784D01*
X116832377Y-90459576D01*
X116856266Y-90430466D01*
X116885376Y-90406577D01*
X116918584Y-90388827D01*
X116954619Y-90377895D01*
X116998231Y-90373600D01*
X118002569Y-90373600D01*
X118046181Y-90377895D01*
X118046181Y-90377895D01*
G37*
G36*
X123430981Y-90327095D02*
G01*
X123467016Y-90338027D01*
X123500224Y-90355777D01*
X123529334Y-90379666D01*
X123553223Y-90408776D01*
X123570973Y-90441984D01*
X123581905Y-90478019D01*
X123586200Y-90521631D01*
X123586200Y-91550969D01*
X123581905Y-91594581D01*
X123570973Y-91630616D01*
X123553223Y-91663824D01*
X123529334Y-91692934D01*
X123500224Y-91716823D01*
X123467016Y-91734573D01*
X123430981Y-91745505D01*
X123387369Y-91749800D01*
X122383031Y-91749800D01*
X122339419Y-91745505D01*
X122303384Y-91734573D01*
X122270176Y-91716823D01*
X122241066Y-91692934D01*
X122217177Y-91663824D01*
X122199427Y-91630616D01*
X122188495Y-91594581D01*
X122184200Y-91550969D01*
X122184200Y-90521631D01*
X122188495Y-90478019D01*
X122199427Y-90441984D01*
X122217177Y-90408776D01*
X122241066Y-90379666D01*
X122270176Y-90355777D01*
X122303384Y-90338027D01*
X122339419Y-90327095D01*
X122383031Y-90322800D01*
X123387369Y-90322800D01*
X123430981Y-90327095D01*
X123430981Y-90327095D01*
G37*
G36*
X125912274Y-90301465D02*
G01*
X125949967Y-90312899D01*
X125984703Y-90331466D01*
X126015148Y-90356452D01*
X126040134Y-90386897D01*
X126058701Y-90421633D01*
X126070135Y-90459326D01*
X126074600Y-90504661D01*
X126074600Y-91341339D01*
X126070135Y-91386674D01*
X126058701Y-91424367D01*
X126040134Y-91459103D01*
X126015148Y-91489548D01*
X125984703Y-91514534D01*
X125949967Y-91533101D01*
X125912274Y-91544535D01*
X125866939Y-91549000D01*
X124780261Y-91549000D01*
X124734926Y-91544535D01*
X124697233Y-91533101D01*
X124662497Y-91514534D01*
X124632052Y-91489548D01*
X124607066Y-91459103D01*
X124588499Y-91424367D01*
X124577065Y-91386674D01*
X124572600Y-91341339D01*
X124572600Y-90504661D01*
X124577065Y-90459326D01*
X124588499Y-90421633D01*
X124607066Y-90386897D01*
X124632052Y-90356452D01*
X124662497Y-90331466D01*
X124697233Y-90312899D01*
X124734926Y-90301465D01*
X124780261Y-90297000D01*
X125866939Y-90297000D01*
X125912274Y-90301465D01*
X125912274Y-90301465D01*
G37*
G36*
X120375074Y-90301465D02*
G01*
X120412767Y-90312899D01*
X120447503Y-90331466D01*
X120477948Y-90356452D01*
X120502934Y-90386897D01*
X120521501Y-90421633D01*
X120532935Y-90459326D01*
X120537400Y-90504661D01*
X120537400Y-91341339D01*
X120532935Y-91386674D01*
X120521501Y-91424367D01*
X120502934Y-91459103D01*
X120477948Y-91489548D01*
X120447503Y-91514534D01*
X120412767Y-91533101D01*
X120375074Y-91544535D01*
X120329739Y-91549000D01*
X119243061Y-91549000D01*
X119197726Y-91544535D01*
X119160033Y-91533101D01*
X119125297Y-91514534D01*
X119094852Y-91489548D01*
X119069866Y-91459103D01*
X119051299Y-91424367D01*
X119039865Y-91386674D01*
X119035400Y-91341339D01*
X119035400Y-90504661D01*
X119039865Y-90459326D01*
X119051299Y-90421633D01*
X119069866Y-90386897D01*
X119094852Y-90356452D01*
X119125297Y-90331466D01*
X119160033Y-90312899D01*
X119197726Y-90301465D01*
X119243061Y-90297000D01*
X120329739Y-90297000D01*
X120375074Y-90301465D01*
X120375074Y-90301465D01*
G37*
G36*
X104809242Y-89072318D02*
G01*
X104875427Y-89078837D01*
X105045266Y-89130357D01*
X105201791Y-89214022D01*
X105220916Y-89229718D01*
X105338986Y-89326614D01*
X105420696Y-89426179D01*
X105451578Y-89463809D01*
X105535243Y-89620334D01*
X105586763Y-89790173D01*
X105604159Y-89966800D01*
X105586763Y-90143427D01*
X105535243Y-90313266D01*
X105451578Y-90469791D01*
X105444825Y-90478019D01*
X105338986Y-90606986D01*
X105254240Y-90676534D01*
X105201791Y-90719578D01*
X105045266Y-90803243D01*
X104875427Y-90854763D01*
X104809243Y-90861281D01*
X104743060Y-90867800D01*
X104654540Y-90867800D01*
X104588357Y-90861281D01*
X104522173Y-90854763D01*
X104352334Y-90803243D01*
X104195809Y-90719578D01*
X104143360Y-90676534D01*
X104058614Y-90606986D01*
X103952775Y-90478019D01*
X103946022Y-90469791D01*
X103862357Y-90313266D01*
X103810837Y-90143427D01*
X103793441Y-89966800D01*
X103810837Y-89790173D01*
X103862357Y-89620334D01*
X103946022Y-89463809D01*
X103976904Y-89426179D01*
X104058614Y-89326614D01*
X104176684Y-89229718D01*
X104195809Y-89214022D01*
X104352334Y-89130357D01*
X104522173Y-89078837D01*
X104588358Y-89072318D01*
X104654540Y-89065800D01*
X104743060Y-89065800D01*
X104809242Y-89072318D01*
X104809242Y-89072318D01*
G37*
G36*
X107349242Y-89072318D02*
G01*
X107415427Y-89078837D01*
X107585266Y-89130357D01*
X107741791Y-89214022D01*
X107760916Y-89229718D01*
X107878986Y-89326614D01*
X107960696Y-89426179D01*
X107991578Y-89463809D01*
X108075243Y-89620334D01*
X108126763Y-89790173D01*
X108144159Y-89966800D01*
X108126763Y-90143427D01*
X108075243Y-90313266D01*
X107991578Y-90469791D01*
X107984825Y-90478019D01*
X107878986Y-90606986D01*
X107794240Y-90676534D01*
X107741791Y-90719578D01*
X107585266Y-90803243D01*
X107415427Y-90854763D01*
X107349243Y-90861281D01*
X107283060Y-90867800D01*
X107194540Y-90867800D01*
X107128357Y-90861281D01*
X107062173Y-90854763D01*
X106892334Y-90803243D01*
X106735809Y-90719578D01*
X106683360Y-90676534D01*
X106598614Y-90606986D01*
X106492775Y-90478019D01*
X106486022Y-90469791D01*
X106402357Y-90313266D01*
X106350837Y-90143427D01*
X106333441Y-89966800D01*
X106350837Y-89790173D01*
X106402357Y-89620334D01*
X106486022Y-89463809D01*
X106516904Y-89426179D01*
X106598614Y-89326614D01*
X106716684Y-89229718D01*
X106735809Y-89214022D01*
X106892334Y-89130357D01*
X107062173Y-89078837D01*
X107128358Y-89072318D01*
X107194540Y-89065800D01*
X107283060Y-89065800D01*
X107349242Y-89072318D01*
X107349242Y-89072318D01*
G37*
G36*
X111938674Y-89213465D02*
G01*
X111976367Y-89224899D01*
X112011103Y-89243466D01*
X112041548Y-89268452D01*
X112066534Y-89298897D01*
X112085101Y-89333633D01*
X112096535Y-89371326D01*
X112101000Y-89416661D01*
X112101000Y-90503339D01*
X112096535Y-90548674D01*
X112085101Y-90586367D01*
X112066534Y-90621103D01*
X112041548Y-90651548D01*
X112011103Y-90676534D01*
X111976367Y-90695101D01*
X111938674Y-90706535D01*
X111893339Y-90711000D01*
X111056661Y-90711000D01*
X111011326Y-90706535D01*
X110973633Y-90695101D01*
X110938897Y-90676534D01*
X110908452Y-90651548D01*
X110883466Y-90621103D01*
X110864899Y-90586367D01*
X110853465Y-90548674D01*
X110849000Y-90503339D01*
X110849000Y-89416661D01*
X110853465Y-89371326D01*
X110864899Y-89333633D01*
X110883466Y-89298897D01*
X110908452Y-89268452D01*
X110938897Y-89243466D01*
X110973633Y-89224899D01*
X111011326Y-89213465D01*
X111056661Y-89209000D01*
X111893339Y-89209000D01*
X111938674Y-89213465D01*
X111938674Y-89213465D01*
G37*
G36*
X113988674Y-89213465D02*
G01*
X114026367Y-89224899D01*
X114061103Y-89243466D01*
X114091548Y-89268452D01*
X114116534Y-89298897D01*
X114135101Y-89333633D01*
X114146535Y-89371326D01*
X114151000Y-89416661D01*
X114151000Y-90503339D01*
X114146535Y-90548674D01*
X114135101Y-90586367D01*
X114116534Y-90621103D01*
X114091548Y-90651548D01*
X114061103Y-90676534D01*
X114026367Y-90695101D01*
X113988674Y-90706535D01*
X113943339Y-90711000D01*
X113106661Y-90711000D01*
X113061326Y-90706535D01*
X113023633Y-90695101D01*
X112988897Y-90676534D01*
X112958452Y-90651548D01*
X112933466Y-90621103D01*
X112914899Y-90586367D01*
X112903465Y-90548674D01*
X112899000Y-90503339D01*
X112899000Y-89416661D01*
X112903465Y-89371326D01*
X112914899Y-89333633D01*
X112933466Y-89298897D01*
X112958452Y-89268452D01*
X112988897Y-89243466D01*
X113023633Y-89224899D01*
X113061326Y-89213465D01*
X113106661Y-89209000D01*
X113943339Y-89209000D01*
X113988674Y-89213465D01*
X113988674Y-89213465D01*
G37*
G36*
X99143500Y-89641886D02*
G01*
X99144102Y-89654138D01*
X99146649Y-89680000D01*
X99144102Y-89705862D01*
X99143500Y-89718114D01*
X99143500Y-89791406D01*
X99134543Y-89808164D01*
X99130415Y-89819701D01*
X99104632Y-89904693D01*
X99096854Y-89930336D01*
X99036406Y-90043425D01*
X98955054Y-90142554D01*
X98855925Y-90223906D01*
X98742836Y-90284354D01*
X98710904Y-90294040D01*
X98620118Y-90321580D01*
X98564122Y-90327095D01*
X98524474Y-90331000D01*
X97760526Y-90331000D01*
X97720878Y-90327095D01*
X97664882Y-90321580D01*
X97574096Y-90294040D01*
X97542164Y-90284354D01*
X97429075Y-90223906D01*
X97329946Y-90142554D01*
X97248594Y-90043425D01*
X97188146Y-89930336D01*
X97180368Y-89904693D01*
X97154587Y-89819708D01*
X97145213Y-89797075D01*
X97141500Y-89791518D01*
X97141500Y-89718114D01*
X97140898Y-89705862D01*
X97138351Y-89680000D01*
X97140898Y-89654138D01*
X97141500Y-89641886D01*
X97141500Y-88429000D01*
X99143500Y-88429000D01*
X99143500Y-89641886D01*
X99143500Y-89641886D01*
G37*
G36*
X101068848Y-82933820D02*
G01*
X101068850Y-82933821D01*
X101068851Y-82933821D01*
X101210074Y-82992317D01*
X101210077Y-82992319D01*
X101337169Y-83077239D01*
X101445261Y-83185331D01*
X101530181Y-83312423D01*
X101530183Y-83312426D01*
X101588679Y-83453649D01*
X101588680Y-83453652D01*
X101618500Y-83603569D01*
X101618500Y-83756431D01*
X101594176Y-83878718D01*
X101588679Y-83906351D01*
X101530183Y-84047574D01*
X101530181Y-84047577D01*
X101445261Y-84174669D01*
X101337169Y-84282761D01*
X101252440Y-84339375D01*
X101210074Y-84367683D01*
X101159772Y-84388519D01*
X101138164Y-84400068D01*
X101119222Y-84415614D01*
X101103677Y-84434556D01*
X101092126Y-84456166D01*
X101085013Y-84479615D01*
X101082611Y-84504001D01*
X101085013Y-84528387D01*
X101092126Y-84551836D01*
X101103677Y-84573447D01*
X101119223Y-84592389D01*
X101138165Y-84607934D01*
X101159775Y-84619485D01*
X101183224Y-84626598D01*
X101207610Y-84629000D01*
X101568500Y-84629000D01*
X101568500Y-87731000D01*
X101207610Y-87731000D01*
X101183224Y-87733402D01*
X101159775Y-87740515D01*
X101138164Y-87752066D01*
X101119222Y-87767611D01*
X101103677Y-87786553D01*
X101092126Y-87808164D01*
X101085013Y-87831613D01*
X101082611Y-87855999D01*
X101085013Y-87880385D01*
X101092126Y-87903834D01*
X101103677Y-87925445D01*
X101119222Y-87944387D01*
X101138164Y-87959932D01*
X101159772Y-87971481D01*
X101210074Y-87992317D01*
X101210075Y-87992318D01*
X101337169Y-88077239D01*
X101445261Y-88185331D01*
X101530181Y-88312423D01*
X101530183Y-88312426D01*
X101588679Y-88453649D01*
X101618500Y-88603571D01*
X101618500Y-88756429D01*
X101588679Y-88906351D01*
X101530183Y-89047574D01*
X101530181Y-89047577D01*
X101445261Y-89174669D01*
X101337169Y-89282761D01*
X101210077Y-89367681D01*
X101210074Y-89367683D01*
X101068851Y-89426179D01*
X101068850Y-89426179D01*
X101068848Y-89426180D01*
X100918931Y-89456000D01*
X100766069Y-89456000D01*
X100616152Y-89426180D01*
X100616150Y-89426179D01*
X100616149Y-89426179D01*
X100474926Y-89367683D01*
X100474923Y-89367681D01*
X100347831Y-89282761D01*
X100239739Y-89174669D01*
X100154819Y-89047577D01*
X100154817Y-89047574D01*
X100096321Y-88906351D01*
X100066500Y-88756429D01*
X100066500Y-88603571D01*
X100096321Y-88453649D01*
X100154817Y-88312426D01*
X100154819Y-88312423D01*
X100239739Y-88185331D01*
X100347831Y-88077239D01*
X100474925Y-87992318D01*
X100474926Y-87992317D01*
X100525228Y-87971481D01*
X100546836Y-87959932D01*
X100565778Y-87944386D01*
X100581323Y-87925444D01*
X100592874Y-87903834D01*
X100599987Y-87880385D01*
X100602389Y-87855999D01*
X100599987Y-87831613D01*
X100592874Y-87808164D01*
X100581323Y-87786553D01*
X100565777Y-87767611D01*
X100546835Y-87752066D01*
X100525225Y-87740515D01*
X100501776Y-87733402D01*
X100477390Y-87731000D01*
X100116500Y-87731000D01*
X100116500Y-84629000D01*
X100477390Y-84629000D01*
X100501776Y-84626598D01*
X100525225Y-84619485D01*
X100546836Y-84607934D01*
X100565778Y-84592389D01*
X100581323Y-84573447D01*
X100592874Y-84551836D01*
X100599987Y-84528387D01*
X100602389Y-84504001D01*
X100599987Y-84479615D01*
X100592874Y-84456166D01*
X100581323Y-84434555D01*
X100565778Y-84415613D01*
X100546836Y-84400068D01*
X100525228Y-84388519D01*
X100474926Y-84367683D01*
X100432560Y-84339375D01*
X100347831Y-84282761D01*
X100239739Y-84174669D01*
X100154819Y-84047577D01*
X100154817Y-84047574D01*
X100096321Y-83906351D01*
X100090825Y-83878718D01*
X100066500Y-83756431D01*
X100066500Y-83603569D01*
X100096320Y-83453652D01*
X100096321Y-83453649D01*
X100154817Y-83312426D01*
X100154819Y-83312423D01*
X100239739Y-83185331D01*
X100347831Y-83077239D01*
X100474923Y-82992319D01*
X100474926Y-82992317D01*
X100616149Y-82933821D01*
X100616150Y-82933821D01*
X100616152Y-82933820D01*
X100766069Y-82904000D01*
X100918931Y-82904000D01*
X101068848Y-82933820D01*
X101068848Y-82933820D01*
G37*
G36*
X99143500Y-87981000D02*
G01*
X97141500Y-87981000D01*
X97141500Y-86379000D01*
X99143500Y-86379000D01*
X99143500Y-87981000D01*
X99143500Y-87981000D01*
G37*
G36*
X120934031Y-84422621D02*
G01*
X120963486Y-84431556D01*
X120990623Y-84446062D01*
X121014414Y-84465586D01*
X121033938Y-84489377D01*
X121048444Y-84516514D01*
X121057379Y-84545969D01*
X121061000Y-84582734D01*
X121061000Y-87057266D01*
X121057379Y-87094031D01*
X121048444Y-87123486D01*
X121033938Y-87150623D01*
X121014414Y-87174414D01*
X120990623Y-87193938D01*
X120963486Y-87208444D01*
X120934031Y-87217379D01*
X120897266Y-87221000D01*
X118422734Y-87221000D01*
X118385969Y-87217379D01*
X118356514Y-87208444D01*
X118329377Y-87193938D01*
X118305586Y-87174414D01*
X118286062Y-87150623D01*
X118271556Y-87123486D01*
X118262621Y-87094031D01*
X118259000Y-87057266D01*
X118259000Y-84582734D01*
X118262621Y-84545969D01*
X118271556Y-84516514D01*
X118286062Y-84489377D01*
X118305586Y-84465586D01*
X118329377Y-84446062D01*
X118356514Y-84431556D01*
X118385969Y-84422621D01*
X118422734Y-84419000D01*
X120897266Y-84419000D01*
X120934031Y-84422621D01*
X120934031Y-84422621D01*
G37*
G36*
X106528674Y-85853465D02*
G01*
X106566367Y-85864899D01*
X106601103Y-85883466D01*
X106631548Y-85908452D01*
X106656534Y-85938897D01*
X106675101Y-85973633D01*
X106686535Y-86011326D01*
X106691000Y-86056661D01*
X106691000Y-86893339D01*
X106686535Y-86938674D01*
X106675101Y-86976367D01*
X106656534Y-87011103D01*
X106631548Y-87041548D01*
X106601103Y-87066534D01*
X106566367Y-87085101D01*
X106528674Y-87096535D01*
X106483339Y-87101000D01*
X105396661Y-87101000D01*
X105351326Y-87096535D01*
X105313633Y-87085101D01*
X105278897Y-87066534D01*
X105248452Y-87041548D01*
X105223466Y-87011103D01*
X105204899Y-86976367D01*
X105193465Y-86938674D01*
X105189000Y-86893339D01*
X105189000Y-86056661D01*
X105193465Y-86011326D01*
X105204899Y-85973633D01*
X105223466Y-85938897D01*
X105248452Y-85908452D01*
X105278897Y-85883466D01*
X105313633Y-85864899D01*
X105351326Y-85853465D01*
X105396661Y-85849000D01*
X106483339Y-85849000D01*
X106528674Y-85853465D01*
X106528674Y-85853465D01*
G37*
G36*
X115908674Y-85853465D02*
G01*
X115946367Y-85864899D01*
X115981103Y-85883466D01*
X116011548Y-85908452D01*
X116036534Y-85938897D01*
X116055101Y-85973633D01*
X116066535Y-86011326D01*
X116071000Y-86056661D01*
X116071000Y-86893339D01*
X116066535Y-86938674D01*
X116055101Y-86976367D01*
X116036534Y-87011103D01*
X116011548Y-87041548D01*
X115981103Y-87066534D01*
X115946367Y-87085101D01*
X115908674Y-87096535D01*
X115863339Y-87101000D01*
X114776661Y-87101000D01*
X114731326Y-87096535D01*
X114693633Y-87085101D01*
X114658897Y-87066534D01*
X114628452Y-87041548D01*
X114603466Y-87011103D01*
X114584899Y-86976367D01*
X114573465Y-86938674D01*
X114569000Y-86893339D01*
X114569000Y-86056661D01*
X114573465Y-86011326D01*
X114584899Y-85973633D01*
X114603466Y-85938897D01*
X114628452Y-85908452D01*
X114658897Y-85883466D01*
X114693633Y-85864899D01*
X114731326Y-85853465D01*
X114776661Y-85849000D01*
X115863339Y-85849000D01*
X115908674Y-85853465D01*
X115908674Y-85853465D01*
G37*
G36*
X110201000Y-86706000D02*
G01*
X109039000Y-86706000D01*
X109039000Y-85954000D01*
X110201000Y-85954000D01*
X110201000Y-86706000D01*
X110201000Y-86706000D01*
G37*
G36*
X112401000Y-86706000D02*
G01*
X111239000Y-86706000D01*
X111239000Y-84054000D01*
X112401000Y-84054000D01*
X112401000Y-86706000D01*
X112401000Y-86706000D01*
G37*
G36*
X99143500Y-85981000D02*
G01*
X97141500Y-85981000D01*
X97141500Y-84379000D01*
X99143500Y-84379000D01*
X99143500Y-85981000D01*
X99143500Y-85981000D01*
G37*
G36*
X106528674Y-83803465D02*
G01*
X106566367Y-83814899D01*
X106601103Y-83833466D01*
X106631548Y-83858452D01*
X106656534Y-83888897D01*
X106675101Y-83923633D01*
X106686535Y-83961326D01*
X106691000Y-84006661D01*
X106691000Y-84843339D01*
X106686535Y-84888674D01*
X106675101Y-84926367D01*
X106656534Y-84961103D01*
X106631548Y-84991548D01*
X106601103Y-85016534D01*
X106566367Y-85035101D01*
X106528674Y-85046535D01*
X106483339Y-85051000D01*
X105396661Y-85051000D01*
X105351326Y-85046535D01*
X105313633Y-85035101D01*
X105278897Y-85016534D01*
X105248452Y-84991548D01*
X105223466Y-84961103D01*
X105204899Y-84926367D01*
X105193465Y-84888674D01*
X105189000Y-84843339D01*
X105189000Y-84006661D01*
X105193465Y-83961326D01*
X105204899Y-83923633D01*
X105223466Y-83888897D01*
X105248452Y-83858452D01*
X105278897Y-83833466D01*
X105313633Y-83814899D01*
X105351326Y-83803465D01*
X105396661Y-83799000D01*
X106483339Y-83799000D01*
X106528674Y-83803465D01*
X106528674Y-83803465D01*
G37*
G36*
X115908674Y-83803465D02*
G01*
X115946367Y-83814899D01*
X115981103Y-83833466D01*
X116011548Y-83858452D01*
X116036534Y-83888897D01*
X116055101Y-83923633D01*
X116066535Y-83961326D01*
X116071000Y-84006661D01*
X116071000Y-84843339D01*
X116066535Y-84888674D01*
X116055101Y-84926367D01*
X116036534Y-84961103D01*
X116011548Y-84991548D01*
X115981103Y-85016534D01*
X115946367Y-85035101D01*
X115908674Y-85046535D01*
X115863339Y-85051000D01*
X114776661Y-85051000D01*
X114731326Y-85046535D01*
X114693633Y-85035101D01*
X114658897Y-85016534D01*
X114628452Y-84991548D01*
X114603466Y-84961103D01*
X114584899Y-84926367D01*
X114573465Y-84888674D01*
X114569000Y-84843339D01*
X114569000Y-84006661D01*
X114573465Y-83961326D01*
X114584899Y-83923633D01*
X114603466Y-83888897D01*
X114628452Y-83858452D01*
X114658897Y-83833466D01*
X114693633Y-83814899D01*
X114731326Y-83803465D01*
X114776661Y-83799000D01*
X115863339Y-83799000D01*
X115908674Y-83803465D01*
X115908674Y-83803465D01*
G37*
G36*
X110201000Y-84806000D02*
G01*
X109039000Y-84806000D01*
X109039000Y-84054000D01*
X110201000Y-84054000D01*
X110201000Y-84806000D01*
X110201000Y-84806000D01*
G37*
G36*
X98556355Y-82032140D02*
G01*
X98620118Y-82038420D01*
X98710904Y-82065960D01*
X98742836Y-82075646D01*
X98855925Y-82136094D01*
X98955054Y-82217446D01*
X99036406Y-82316575D01*
X99096854Y-82429664D01*
X99096855Y-82429668D01*
X99130413Y-82540292D01*
X99139787Y-82562925D01*
X99143500Y-82568482D01*
X99143500Y-82641886D01*
X99144102Y-82654138D01*
X99146649Y-82680000D01*
X99144102Y-82705862D01*
X99143500Y-82718114D01*
X99143500Y-83931000D01*
X97141500Y-83931000D01*
X97141500Y-82718114D01*
X97140898Y-82705862D01*
X97138351Y-82680000D01*
X97140898Y-82654138D01*
X97141500Y-82641886D01*
X97141500Y-82568594D01*
X97150457Y-82551836D01*
X97154585Y-82540299D01*
X97188145Y-82429668D01*
X97188146Y-82429664D01*
X97248594Y-82316575D01*
X97329946Y-82217446D01*
X97429075Y-82136094D01*
X97542164Y-82075646D01*
X97574096Y-82065960D01*
X97664882Y-82038420D01*
X97728645Y-82032140D01*
X97760526Y-82029000D01*
X98524474Y-82029000D01*
X98556355Y-82032140D01*
X98556355Y-82032140D01*
G37*
G36*
X119978433Y-80494893D02*
G01*
X120068657Y-80512839D01*
X120174267Y-80556585D01*
X120323621Y-80618449D01*
X120323622Y-80618450D01*
X120553086Y-80771772D01*
X120748228Y-80966914D01*
X120850675Y-81120237D01*
X120901551Y-81196379D01*
X121007161Y-81451344D01*
X121061000Y-81722012D01*
X121061000Y-81997988D01*
X121045553Y-82075645D01*
X121007161Y-82268657D01*
X120963415Y-82374267D01*
X120901551Y-82523621D01*
X120875289Y-82562925D01*
X120748228Y-82753086D01*
X120553086Y-82948228D01*
X120410611Y-83043426D01*
X120323621Y-83101551D01*
X120224633Y-83142553D01*
X120068657Y-83207161D01*
X119984478Y-83223905D01*
X119797988Y-83261000D01*
X119522012Y-83261000D01*
X119335522Y-83223905D01*
X119251343Y-83207161D01*
X119095367Y-83142553D01*
X118996379Y-83101551D01*
X118909389Y-83043426D01*
X118766914Y-82948228D01*
X118571772Y-82753086D01*
X118444711Y-82562925D01*
X118418449Y-82523621D01*
X118356585Y-82374267D01*
X118312839Y-82268657D01*
X118274447Y-82075645D01*
X118259000Y-81997988D01*
X118259000Y-81722012D01*
X118312839Y-81451344D01*
X118418449Y-81196379D01*
X118469325Y-81120237D01*
X118571772Y-80966914D01*
X118766914Y-80771772D01*
X118996378Y-80618450D01*
X118996379Y-80618449D01*
X119145733Y-80556585D01*
X119251343Y-80512839D01*
X119341567Y-80494893D01*
X119522012Y-80459000D01*
X119797988Y-80459000D01*
X119978433Y-80494893D01*
X119978433Y-80494893D01*
G37*
G36*
X100171000Y-80441000D02*
G01*
X98369000Y-80441000D01*
X98369000Y-78639000D01*
X100171000Y-78639000D01*
X100171000Y-80441000D01*
X100171000Y-80441000D01*
G37*
M02*
