G04 #@! TF.GenerationSoftware,KiCad,Pcbnew,(5.1.4)-1*
G04 #@! TF.CreationDate,2019-09-20T01:57:43+03:00*
G04 #@! TF.ProjectId,Simple_BMS,53696d70-6c65-45f4-924d-532e6b696361,rev?*
G04 #@! TF.SameCoordinates,Original*
G04 #@! TF.FileFunction,Copper,L2,Bot*
G04 #@! TF.FilePolarity,Positive*
%FSLAX46Y46*%
G04 Gerber Fmt 4.6, Leading zero omitted, Abs format (unit mm)*
G04 Created by KiCad (PCBNEW (5.1.4)-1) date 2019-09-20 01:57:43*
%MOMM*%
%LPD*%
G04 APERTURE LIST*
%ADD10C,2.700000*%
%ADD11C,0.100000*%
%ADD12O,1.900000X1.200000*%
%ADD13C,1.450000*%
%ADD14R,1.700000X1.700000*%
%ADD15O,1.700000X1.700000*%
%ADD16C,0.800000*%
G04 APERTURE END LIST*
D10*
X119660000Y-81860000D03*
D11*
G36*
X120784503Y-84471204D02*
G01*
X120808772Y-84474804D01*
X120832570Y-84480765D01*
X120855670Y-84489030D01*
X120877849Y-84499520D01*
X120898892Y-84512133D01*
X120918598Y-84526748D01*
X120936776Y-84543224D01*
X120953252Y-84561402D01*
X120967867Y-84581108D01*
X120980480Y-84602151D01*
X120990970Y-84624330D01*
X120999235Y-84647430D01*
X121005196Y-84671228D01*
X121008796Y-84695497D01*
X121010000Y-84720001D01*
X121010000Y-86919999D01*
X121008796Y-86944503D01*
X121005196Y-86968772D01*
X120999235Y-86992570D01*
X120990970Y-87015670D01*
X120980480Y-87037849D01*
X120967867Y-87058892D01*
X120953252Y-87078598D01*
X120936776Y-87096776D01*
X120918598Y-87113252D01*
X120898892Y-87127867D01*
X120877849Y-87140480D01*
X120855670Y-87150970D01*
X120832570Y-87159235D01*
X120808772Y-87165196D01*
X120784503Y-87168796D01*
X120759999Y-87170000D01*
X118560001Y-87170000D01*
X118535497Y-87168796D01*
X118511228Y-87165196D01*
X118487430Y-87159235D01*
X118464330Y-87150970D01*
X118442151Y-87140480D01*
X118421108Y-87127867D01*
X118401402Y-87113252D01*
X118383224Y-87096776D01*
X118366748Y-87078598D01*
X118352133Y-87058892D01*
X118339520Y-87037849D01*
X118329030Y-87015670D01*
X118320765Y-86992570D01*
X118314804Y-86968772D01*
X118311204Y-86944503D01*
X118310000Y-86919999D01*
X118310000Y-84720001D01*
X118311204Y-84695497D01*
X118314804Y-84671228D01*
X118320765Y-84647430D01*
X118329030Y-84624330D01*
X118339520Y-84602151D01*
X118352133Y-84581108D01*
X118366748Y-84561402D01*
X118383224Y-84543224D01*
X118401402Y-84526748D01*
X118421108Y-84512133D01*
X118442151Y-84499520D01*
X118464330Y-84489030D01*
X118487430Y-84480765D01*
X118511228Y-84474804D01*
X118535497Y-84471204D01*
X118560001Y-84470000D01*
X120759999Y-84470000D01*
X120784503Y-84471204D01*
X120784503Y-84471204D01*
G37*
D10*
X119660000Y-85820000D03*
D12*
X98142500Y-89680000D03*
X98142500Y-82680000D03*
D13*
X100842500Y-88680000D03*
X100842500Y-83680000D03*
D14*
X107238800Y-95046800D03*
D15*
X104698800Y-95046800D03*
X107238800Y-92506800D03*
X104698800Y-92506800D03*
X107238800Y-89966800D03*
X104698800Y-89966800D03*
D14*
X99270000Y-79540000D03*
X99340000Y-95040000D03*
D16*
X103911400Y-79959200D03*
X109702600Y-79908400D03*
X106857800Y-79908400D03*
X103911400Y-83693000D03*
X106857800Y-82600800D03*
X109702600Y-82626200D03*
X123063000Y-84963000D03*
X123063000Y-88087200D03*
X117170200Y-84963000D03*
X117195600Y-87782400D03*
X111887000Y-80289400D03*
X111887000Y-82600800D03*
X117271800Y-80289400D03*
X114554000Y-80314800D03*
X117271800Y-82600800D03*
X114554000Y-82575400D03*
X123063000Y-83007200D03*
X123063000Y-80416400D03*
M02*
