M48
; DRILL file {KiCad (5.1.4)-1} date 9/20/2019 1:56:35 AM
; FORMAT={-:-/ absolute / inch / decimal}
; #@! TF.CreationDate,2019-09-20T01:56:35+03:00
; #@! TF.GenerationSoftware,Kicad,Pcbnew,(5.1.4)-1
; #@! TF.FileFunction,Plated,1,2,PTH
FMAT,2
INCH
T1C0.0157
T2C0.0236
T3C0.0335
T4C0.0394
T5C0.0669
%
G90
G05
T1
X4.091Y-3.148
X4.091Y-3.295
X4.207Y-3.146
X4.207Y-3.252
X4.319Y-3.146
X4.319Y-3.253
X4.405Y-3.161
X4.405Y-3.252
X4.51Y-3.162
X4.51Y-3.251
X4.613Y-3.345
X4.614Y-3.456
X4.617Y-3.161
X4.617Y-3.252
X4.845Y-3.166
X4.845Y-3.268
X4.845Y-3.345
X4.845Y-3.468
T3
X3.9702Y-3.2945
X3.9702Y-3.4913
T4
X4.122Y-3.542
X4.122Y-3.642
X4.122Y-3.742
X4.222Y-3.542
X4.222Y-3.642
X4.222Y-3.742
X3.9083Y-3.1315
X3.911Y-3.7417
T5
X4.711Y-3.2228
X4.711Y-3.3787
T2
G00X3.8501Y-3.2551
M15
G01X3.8777Y-3.2551
M16
G05
G00X3.8777Y-3.5307
M15
G01X3.8501Y-3.5307
M16
G05
T0
M30
